<svg xmlns="http://www.w3.org/2000/svg" xmlns:xlink="http://www.w3.org/1999/xlink" width="119" height="119" viewBox="0 0 119 119">
  <defs>
    <filter id="Trazado_826199" x="0" y="0" width="119" height="119" filterUnits="userSpaceOnUse">
      <feOffset input="SourceAlpha"/>
      <feGaussianBlur stdDeviation="5.5" result="blur"/>
      <feFlood flood-color="#fff" flood-opacity="0.659"/>
      <feComposite operator="in" in2="blur"/>
      <feComposite in="SourceGraphic"/>
    </filter>
    <clipPath id="clip-path">
      <rect id="Rectángulo_401051" data-name="Rectángulo 401051" width="49.573" height="49.569" fill="none"/>
    </clipPath>
  </defs>
  <g id="_12" data-name="12" transform="translate(-793.5 -856.5)">
    <g id="Grupo_1098587" data-name="Grupo 1098587" transform="translate(-315 -3484)">
      <g transform="matrix(1, 0, 0, 1, 1108.5, 4340.5)" filter="url(#Trazado_826199)">
        <path id="Trazado_826199-2" data-name="Trazado 826199" d="M43,0A43,43,0,1,1,0,43,43,43,0,0,1,43,0Z" transform="translate(16.5 16.5)" fill="#4df5df"/>
      </g>
    </g>
    <g id="Grupo_1099050" data-name="Grupo 1099050" transform="translate(825 893.216)">
      <g id="Grupo_1099049" data-name="Grupo 1099049" clip-path="url(#clip-path)">
        <path id="Trazado_873471" data-name="Trazado 873471" d="M420.935,282.208l1.875-1.875a1.461,1.461,0,1,1,2.066,2.066l-2.6,2.6Z" transform="translate(-380.179 -252.805)" fill="#f2f2f2"/>
        <path id="Trazado_873472" data-name="Trazado 873472" d="M395.159,228.294l1.877-1.877a1.461,1.461,0,0,1,2.066,2.066l-2.606,2.606Z" transform="translate(-356.899 -204.108)" fill="#f2f2f2"/>
        <path id="Trazado_873473" data-name="Trazado 873473" d="M397.874,227.581a1.993,1.993,0,0,1,1.584-.577,1.459,1.459,0,0,0-2.423-.587l-1.877,1.877.648,1.354Z" transform="translate(-356.898 -204.108)" fill="#e3e5e5"/>
        <path id="Trazado_873474" data-name="Trazado 873474" d="M423.65,281.5a1.993,1.993,0,0,1,1.584-.577,1.459,1.459,0,0,0-2.423-.587l-1.877,1.877.648,1.355Z" transform="translate(-380.178 -252.805)" fill="#e3e5e5"/>
        <path id="Trazado_873475" data-name="Trazado 873475" d="M234.863,75.995l2.573-2.573a1.461,1.461,0,0,1,2.066,2.066l-1.844,1.844Z" transform="translate(-212.123 -65.927)" fill="#f2f2f2"/>
        <path id="Trazado_873476" data-name="Trazado 873476" d="M180.97,50.239l2.571-2.571a1.461,1.461,0,0,1,2.066,2.066l-1.842,1.842Z" transform="translate(-163.448 -42.666)" fill="#f2f2f2"/>
        <path id="Trazado_873477" data-name="Trazado 873477" d="M238.576,74.34a1.458,1.458,0,0,1,1.258-.409,1.459,1.459,0,0,0-2.4-.511l-2.573,2.573,1.392.666Z" transform="translate(-212.124 -65.925)" fill="#e3e5e5"/>
        <path id="Trazado_873478" data-name="Trazado 873478" d="M184.679,48.587a1.457,1.457,0,0,1,1.258-.409,1.459,1.459,0,0,0-2.4-.511l-2.571,2.571,1.392.666Z" transform="translate(-163.448 -42.665)" fill="#e3e5e5"/>
        <path id="Trazado_873479" data-name="Trazado 873479" d="M272.581,217.314l9.869-9.869h0l7.492,15.664a4.8,4.8,0,0,1-7.719,5.465c-.189-.189.531.643-9.642-11.26" transform="translate(-246.189 -187.36)" fill="#6edcf9"/>
        <path id="Trazado_873480" data-name="Trazado 873480" d="M78.584,55.608,94.248,63.1l-9.869,9.869h0c-11.863-10.138-11.068-9.451-11.26-9.642a4.8,4.8,0,0,1,5.465-7.718" transform="translate(-64.773 -49.799)" fill="#6edcf9"/>
        <path id="Trazado_873481" data-name="Trazado 873481" d="M283.578,306.365c-.189-.189.553.67-9.619-11.234l-1.379,1.379c10.2,11.934,9.454,11.073,9.642,11.26a4.8,4.8,0,0,0,7.449-.837,4.8,4.8,0,0,1-6.092-.568" transform="translate(-246.188 -266.556)" fill="#37cae2"/>
        <path id="Trazado_873482" data-name="Trazado 873482" d="M85.743,79.326,74.762,69.941a4.8,4.8,0,0,1-.939-6.208,4.8,4.8,0,0,0-.7,7.356c.2.195-.58-.477,11.26,9.642h0Z" transform="translate(-64.78 -57.562)" fill="#37cae2"/>
        <path id="Trazado_873483" data-name="Trazado 873483" d="M147.871,367.344l4.877-4.877,1.878,9.825a3.324,3.324,0,0,1-6.135,2.3c-.094-.163.1.223-2.9-5.976a4.777,4.777,0,0,0,2.278-1.274" transform="translate(-131.496 -327.372)" fill="#6edcf9"/>
        <path id="Trazado_873484" data-name="Trazado 873484" d="M351.47,207.445l7.492,15.664a4.8,4.8,0,0,1-2.4,6.464,4.79,4.79,0,0,0-.066-3.994L349,209.915h0l2.469-2.47Z" transform="translate(-315.209 -187.36)" fill="#b9f2fc"/>
        <path id="Trazado_873485" data-name="Trazado 873485" d="M75.884,58.008a4.8,4.8,0,0,1,6.464-2.4L98.012,63.1l-2.47,2.47L79.879,58.075a4.791,4.791,0,0,0-3.995-.067" transform="translate(-68.537 -49.796)" fill="#b9f2fc"/>
        <path id="Trazado_873486" data-name="Trazado 873486" d="M11.091,272.431l9.825,1.878-4.883,4.883a4.775,4.775,0,0,0-1.268,2.271c-6.2-2.995-5.816-2.8-5.976-2.9a3.324,3.324,0,0,1,2.3-6.135" transform="translate(-6.45 -246)" fill="#6edcf9"/>
        <path id="Trazado_873487" data-name="Trazado 873487" d="M149.724,423.236l-2.463-5.1a4.77,4.77,0,0,1-1.668.761c2.995,6.2,2.8,5.813,2.9,5.976a3.327,3.327,0,0,0,5.833-.171,3.325,3.325,0,0,1-4.6-1.465" transform="translate(-131.496 -377.651)" fill="#37cae2"/>
        <path id="Trazado_873488" data-name="Trazado 873488" d="M10.179,281.042a3.324,3.324,0,0,1-1.287-4.374,3.326,3.326,0,0,0,.163,5.9l5.744,2.775a4.772,4.772,0,0,1,.774-1.686c-5.562-2.687-5.233-2.523-5.394-2.616" transform="translate(-6.484 -249.881)" fill="#37cae2"/>
        <path id="Trazado_873489" data-name="Trazado 873489" d="M115.581,9.647,85.466,39.762a4.846,4.846,0,0,0,6.859,6.847l30.1-30.1a9.014,9.014,0,0,0,2.152-4.149c1.595-6.934-6.13-5.569-9-2.71" transform="translate(-75.917 -6.604)" fill="#69daf4"/>
        <path id="Trazado_873490" data-name="Trazado 873490" d="M85.752,46.795c.557-1.458-1.262.631,33.083-33.714a9.689,9.689,0,0,1,5.945-2.482c-.043-5.187-6.781-3.433-9.2-1.024L85.466,39.69a4.852,4.852,0,0,0,.006,6.847c.09.09.184.175.28.257" transform="translate(-75.917 -6.532)" fill="#37cae2"/>
        <path id="Trazado_873491" data-name="Trazado 873491" d="M441.732,35.956a.436.436,0,0,0-.224.736c2.57,2.57,2.438,2.5,2.679,2.5a.436.436,0,0,0,.428-.353c.437-2.249-.757-3.3-2.883-2.882" transform="translate(-398.645 -32.394)" fill="#474b63"/>
        <path id="Trazado_873492" data-name="Trazado 873492" d="M434.881,32.778c1.183-3.464-.882-5.545-4.359-4.359a.727.727,0,0,0-.279,1.2l3.436,3.436a.727.727,0,0,0,1.2-.279m-1.126-1.7-1.532-1.532c1.091-.049,1.581.413,1.532,1.532" transform="translate(-388.394 -25.364)"/>
        <path id="Trazado_873493" data-name="Trazado 873493" d="M48.49,1.079c-2.223-2.224-7.158-.648-9.273,1.46L29.357,12.4,26.8,11.176l1.125-1.125a2.187,2.187,0,0,0-3.094-3.093L22.615,9.174,21.581,8.68c1.117-1.117,1.764-1.56,1.764-2.67a2.187,2.187,0,0,0-3.734-1.547L17.4,6.679c-3.4-1.626-4.064-2.1-5.667-2.087a5.525,5.525,0,0,0-3.544,9.721l2.424,2.072a.727.727,0,0,0,.944-1.1c-2.644-2.26-2.509-2.139-2.661-2.29A4.091,4.091,0,0,1,7.94,8.749a4.067,4.067,0,0,1,3.12.162L25.8,15.959l-6.2,6.2-5.461-4.667a.727.727,0,0,0-.944,1.1l5.375,4.593L14.257,27.5,4.809,25.694A4.051,4.051,0,0,0,2.287,33.32l5.251,2.536a5.525,5.525,0,0,0,1.09,4.056l-.927.927A.727.727,0,0,0,8.73,41.867l.926-.926a5.49,5.49,0,0,0,4.058,1.093c2.772,5.738,2.571,5.334,2.684,5.53a4.051,4.051,0,0,0,7.476-2.8l-1.806-9.447L26.382,31c9.63,11.269,8.953,10.488,9.17,10.7a5.526,5.526,0,0,0,8.888-6.292l-1.464-3.061,2.267-2.267a2.187,2.187,0,1,0-3.093-3.093l-1.175,1.175-.494-1.033,2.269-2.269A2.187,2.187,0,0,0,41.2,21.13c-1.109,0-1.54.634-2.724,1.818L37.17,20.212l4.693-4.693a.727.727,0,0,0-1.028-1.028c-8.5,8.495-24.961,24.972-25.173,25.155A4.067,4.067,0,0,1,10.7,39.9l8.06-8.06a.727.727,0,0,0-1.028-1.028l-8.06,8.06a4.077,4.077,0,0,1,.461-5.191L40.244,3.568c1.638-1.632,5.69-2.991,7.219-1.461C48.949,3.592,47.681,7.645,46,9.33l-2.762,2.763a.727.727,0,0,0,1.028,1.028l2.762-2.763c2.074-2.074,3.72-7.026,1.466-9.279M25.859,7.985A.734.734,0,0,1,26.9,9.023l-1.48,1.48-1.4-.672Zm-5.22-2.494A.734.734,0,0,1,21.677,6.53L20.2,8.008l-1.4-.672ZM43.177,28.019a.735.735,0,0,1,1.253.519c0,.4-.07.374-2.093,2.4l-.672-1.4ZM41.2,22.583a.734.734,0,0,1,.734.734c0,.4-.066.37-2.1,2.4l-.672-1.4c1.636-1.636,1.639-1.729,2.033-1.729M20.827,36.555l1.621,8.478a2.6,2.6,0,0,1-4.89,1.617l-2.413-5c1.27-.531,1.456-.874,5.682-5.1M36.361,40.44,27.413,29.969l6.2-6.2,7.049,14.738a4.066,4.066,0,0,1,.161,3.119,4.084,4.084,0,0,1-4.459-1.188m7.019-3.727a4.09,4.09,0,0,1-.874,3.777,5.515,5.515,0,0,0-.536-2.608l-7.27-15.2,1.38-1.38c7.567,15.821,7.164,14.92,7.3,15.412M11.688,7.6a5.517,5.517,0,0,0-2.609-.536,4.092,4.092,0,0,1,3.78-.873c.565.156-.209-.171,15.409,7.3l-1.38,1.38ZM7.916,34.425c-5.4-2.606-5.055-2.438-5.179-2.51a2.6,2.6,0,0,1,1.8-4.794h0l8.478,1.621c-3.981,3.981-4.556,4.384-5.1,5.683" transform="translate(0 0)"/>
      </g>
    </g>
  </g>
</svg>
