<svg xmlns="http://www.w3.org/2000/svg" xmlns:xlink="http://www.w3.org/1999/xlink" width="119" height="119" viewBox="0 0 119 119">
  <defs>
    <filter id="Trazado_836181" x="0" y="0" width="119" height="119" filterUnits="userSpaceOnUse">
      <feOffset input="SourceAlpha"/>
      <feGaussianBlur stdDeviation="5.5" result="blur"/>
      <feFlood flood-color="#fff" flood-opacity="0.659"/>
      <feComposite operator="in" in2="blur"/>
      <feComposite in="SourceGraphic"/>
    </filter>
  </defs>
  <g id="_13" data-name="13" transform="translate(-1106.5 -856.5)">
    <g id="Grupo_1098588" data-name="Grupo 1098588" transform="translate(-6 -3967)">
      <g transform="matrix(1, 0, 0, 1, 1112.5, 4823.5)" filter="url(#Trazado_836181)">
        <path id="Trazado_836181-2" data-name="Trazado 836181" d="M43,0A43,43,0,1,1,0,43,43,43,0,0,1,43,0Z" transform="translate(16.5 16.5)" fill="#4df5df"/>
      </g>
    </g>
    <g id="manager" transform="translate(1118.538 873.193)">
      <g id="Grupo_1099052" data-name="Grupo 1099052" transform="translate(31.078 21.802)">
        <g id="Grupo_1099051" data-name="Grupo 1099051" transform="translate(0 0)">
          <path id="Trazado_873494" data-name="Trazado 873494" d="M64.745,79.435v5.991H31.9V79.435A15.23,15.23,0,0,1,47.135,64.2H49.51A15.23,15.23,0,0,1,64.745,79.435Z" transform="translate(-31.9 -42.741)" fill="#f2e5fd"/>
          <path id="Trazado_873495" data-name="Trazado 873495" d="M64.47,33.376A10.778,10.778,0,0,1,53.676,44.118a10.346,10.346,0,0,1-3.563-.62A10.724,10.724,0,1,1,64.47,33.376Z" transform="translate(-37.254 -22.659)" fill="#f7d6bf"/>
          <path id="Trazado_873496" data-name="Trazado 873496" d="M43.5,30.782a20.04,20.04,0,0,0,6.972,1.239C56,32.022,60.7,29.9,62.556,26.961a10.786,10.786,0,0,0-15.08-2.169A11.043,11.043,0,0,0,43.5,30.782Z" transform="translate(-37.509 -22.647)" fill="#727997"/>
          <path id="Trazado_873497" data-name="Trazado 873497" d="M63.882,64.407a3.641,3.641,0,0,1-3.822,3.46,3.68,3.68,0,0,1-3.46-3.46,13.211,13.211,0,0,1,2.427-.207h2.427A12.489,12.489,0,0,1,63.882,64.407Z" transform="translate(-43.844 -42.741)" fill="#80bfbe"/>
          <path id="Trazado_873498" data-name="Trazado 873498" d="M57.3,80.183c0,3.77,2.014,4.751,3.46,4.751s3.46-.981,3.46-4.751S62.671,71.3,60.76,71.3,57.3,76.413,57.3,80.183Z" transform="translate(-44.183 -46.174)" fill="#debefb"/>
        </g>
      </g>
      <path id="Trazado_873499" data-name="Trazado 873499" d="M64.7,56.379a.913.913,0,1,0-1.808.258,11.54,11.54,0,0,1,.1,1.911v5.113H58.139V57.205a.93.93,0,0,0-1.859,0h0v6.4H39.031v-6.4a.93.93,0,0,0-1.859,0h0v6.4H32.008V58.5a14.259,14.259,0,0,1,11.155-14,4.478,4.478,0,0,0,2.324,2.789c-1.446,2.066-2.221,5.991-2.221,8.521,0,4.183,2.376,5.681,4.39,5.681s4.39-1.5,4.39-5.681c0-2.531-.775-6.559-2.324-8.573a4.412,4.412,0,0,0,2.117-2.685,14.455,14.455,0,0,1,8.469,5.629.851.851,0,0,0,1.239.207.917.917,0,0,0,.207-1.291,16.1,16.1,0,0,0-8.934-6.2,11.7,11.7,0,1,0-10.587,0A16.136,16.136,0,0,0,30.2,58.5v5.991a.96.96,0,0,0,.93.93H63.923a.926.926,0,0,0,.93-.93V58.5C64.8,57.773,64.749,57.1,64.7,56.379ZM47.5,46a2.693,2.693,0,0,1-2.531-1.756,42.067,42.067,0,0,1,5.113,0A2.738,2.738,0,0,1,47.5,46Zm.155,13.634c-.775,0-2.582-.361-2.582-3.873,0-4.183,1.756-8,2.582-8s2.582,3.77,2.582,8C50.238,59.271,48.43,59.632,47.655,59.632ZM47.5,22.708a9.846,9.846,0,0,1,7.488,3.46c-1.962,2.479-6.249,4.08-10.948,4.08a20.223,20.223,0,0,1-5.836-.878A9.789,9.789,0,0,1,47.5,22.708ZM37.637,32.52c0-.465.052-.93.1-1.446a21.386,21.386,0,0,0,6.3.93c5.061,0,9.606-1.7,12.033-4.39a9.5,9.5,0,0,1,1.291,4.854,9.864,9.864,0,0,1-19.728.052ZM62.374,51.783a.889.889,0,0,1,1.188.465h0c.052.155.155.31.207.465a.913.913,0,0,1-.516,1.188.9.9,0,0,1-1.188-.516,3.558,3.558,0,0,0-.155-.413A.889.889,0,0,1,62.374,51.783Z" fill="#172956"/>
    </g>
  </g>
</svg>
