<svg xmlns="http://www.w3.org/2000/svg" xmlns:xlink="http://www.w3.org/1999/xlink" width="119" height="119" viewBox="0 0 119 119">
  <defs>
    <filter id="Trazado_836181" x="0" y="0" width="119" height="119" filterUnits="userSpaceOnUse">
      <feOffset input="SourceAlpha"/>
      <feGaussianBlur stdDeviation="5.5" result="blur"/>
      <feFlood flood-color="#fff" flood-opacity="0.659"/>
      <feComposite operator="in" in2="blur"/>
      <feComposite in="SourceGraphic"/>
    </filter>
  </defs>
  <g id="_16" data-name="16" transform="translate(4164.5 10899.5)">
    <g id="Grupo_1099055" data-name="Grupo 1099055" transform="translate(-5277 -15723)">
      <g transform="matrix(1, 0, 0, 1, 1112.5, 4823.5)" filter="url(#Trazado_836181)">
        <path id="Trazado_836181-2" data-name="Trazado 836181" d="M43,0A43,43,0,1,1,0,43,43,43,0,0,1,43,0Z" transform="translate(16.5 16.5)" fill="#4df5df"/>
      </g>
    </g>
    <g id="acccide" transform="translate(-4142.649 -10930.263)">
      <path id="Trazado_873525" data-name="Trazado 873525" d="M187.018,127.075l.342-1.1a1.907,1.907,0,0,1,1.822-1.343h.81l.554-2.692h2.692l.723-7.754a3.9,3.9,0,0,1,1.364-2.616l9.485-8.035a2.191,2.191,0,0,1,3.134.312l8.252,10.42a2,2,0,0,1-.258,2.751l-21.39,18.524a1.924,1.924,0,0,1-2.685-.16,32.575,32.575,0,0,1-4.7-6.571A2.306,2.306,0,0,1,187.018,127.075Z" transform="translate(-145.806 -26.438)" fill="#b6dffc"/>
      <path id="Trazado_873526" data-name="Trazado 873526" d="M234.743,159.215l-2.919,2.436a1.807,1.807,0,0,1-1.533.364,5.7,5.7,0,0,0-6.852,5.577q0,.089,0,.178a1.77,1.77,0,0,1-.64,1.413l-1.15.96a1.761,1.761,0,0,1-1.52.375,5.694,5.694,0,0,0-6.969,5.551q0,.138.007.274a1.748,1.748,0,0,1-.641,1.416l-2.5,2.088.225.252a1.924,1.924,0,0,0,2.685.16l21.39-18.524A2,2,0,0,0,234.743,159.215Z" transform="translate(-164.198 -71.157)" fill="#7babdb"/>
      <circle id="Elipse_11453" data-name="Elipse 11453" cx="4.238" cy="4.238" r="4.238" transform="translate(60.698 92.196)" fill="#6f6f7f"/>
      <circle id="Elipse_11454" data-name="Elipse 11454" cx="4.238" cy="4.238" r="4.238" transform="translate(50.422 100.672)" fill="#6f6f7f"/>
      <circle id="Elipse_11455" data-name="Elipse 11455" cx="1.582" cy="1.582" r="1.582" transform="translate(53.078 103.328)" fill="#e2e2e2"/>
      <circle id="Elipse_11456" data-name="Elipse 11456" cx="1.582" cy="1.582" r="1.582" transform="translate(63.355 94.852)" fill="#e2e2e2"/>
      <path id="Trazado_873527" data-name="Trazado 873527" d="M309.232,139.8l-1.17,1.052a1.521,1.521,0,1,0,2.035,2.263l1.028-.924Z" transform="translate(-241.799 -55.71)" fill="#e05f5f"/>
      <path id="Trazado_873528" data-name="Trazado 873528" d="M190.611,225.206a28.266,28.266,0,0,0,1.621,2.48l2.652-2.148a1.14,1.14,0,0,0,.168-1.6l-.421-.519a1.14,1.14,0,0,0-1.6-.168Z" transform="translate(-148.75 -121.903)" fill="#ffd392"/>
      <path id="Trazado_873529" data-name="Trazado 873529" d="M234.817,153.851l-.178,2.736a1.24,1.24,0,0,0,2.01,1.05l1.566-1.248a1.67,1.67,0,0,0,.3-2.3l-1.876-2.552-1.125.934A1.952,1.952,0,0,0,234.817,153.851Z" transform="translate(-183.779 -65.052)" fill="#6f6f7f"/>
      <path id="Trazado_873530" data-name="Trazado 873530" d="M261.858,123.9l2.766-2.249,1.445,1.73a2.274,2.274,0,0,1-.243,3.165l-2.861,2.519-1.475-1.882A2.358,2.358,0,0,1,261.858,123.9Z" transform="translate(-204.746 -41.268)" fill="#6f6f7f"/>
      <path id="Trazado_873531" data-name="Trazado 873531" d="M28.3,138.358l4.977,3.421A4,4,0,0,1,35,144.865l.325,6.13,1.088-.107a1.578,1.578,0,0,1,1.723,1.388l.089.768,1.454.245a1.676,1.676,0,0,1,1.177,2.48l-4.212,7.415a2.575,2.575,0,0,1-3.5.973l-2.385-1.339h0a3.416,3.416,0,0,0,.083-.425,4.571,4.571,0,0,0-6.518-4.7q-.268.125-.544.283a2.682,2.682,0,0,1-2.9-.136L8.878,149.263a2.827,2.827,0,0,1-.79-3.741l3.937-6.652,11.061,6.444Z" transform="translate(-3.21 -54.562)" fill="#ff8585"/>
      <path id="Trazado_873532" data-name="Trazado 873532" d="M21.587,143.387l1.287.817a1.692,1.692,0,0,0,2.294-.462l.822-1.181-2.91-1.7Z" transform="translate(-14.264 -56.557)" fill="#e05f5f"/>
      <path id="Trazado_873533" data-name="Trazado 873533" d="M149.7,224.3a1.342,1.342,0,0,0-1.382,2.3l1.809,1.15,1.378-2.427Z" transform="translate(-114.6 -122.799)" fill="#ffd392"/>
      <circle id="Elipse_11457" data-name="Elipse 11457" cx="4.238" cy="4.238" r="4.238" transform="translate(22.425 70.6)" fill="#6f6f7f"/>
      <circle id="Elipse_11458" data-name="Elipse 11458" cx="1.582" cy="1.582" r="1.582" transform="translate(25.081 73.257)" fill="#e2e2e2"/>
      <path id="Trazado_873534" data-name="Trazado 873534" d="M102.523,161.68l1.455-2.046,1.764,1.134a3.4,3.4,0,0,1,1.562,2.861v1.621a1.268,1.268,0,0,1-1.99,1.042l-2.258-1.564a2.175,2.175,0,0,1-.533-3.049Z" transform="translate(-78.341 -71.491)" fill="#6f6f7f"/>
      <path id="Trazado_873535" data-name="Trazado 873535" d="M40.016,176.344l1.907,1.362,6.881-9.184-1.708-.995Z" transform="translate(-28.928 -77.772)" fill="#e05f5f"/>
      <path id="Trazado_873536" data-name="Trazado 873536" d="M24.86,184.387a5.692,5.692,0,0,0-4.693,2.475l9.264,6.615a5.692,5.692,0,0,0-4.569-9.09Z" transform="translate(-13.134 -91.186)" fill="#e05f5f"/>
      <circle id="Elipse_11459" data-name="Elipse 11459" cx="4.238" cy="4.238" r="4.238" transform="translate(7.488 94.658)" fill="#6f6f7f"/>
      <circle id="Elipse_11460" data-name="Elipse 11460" cx="1.582" cy="1.582" r="1.582" transform="translate(10.144 97.315)" fill="#e2e2e2"/>
      <path id="Trazado_873537" data-name="Trazado 873537" d="M205.4,100.151a3.008,3.008,0,0,0-4.3-.428l-9.484,8.034a4.7,4.7,0,0,0-1.649,3.165l-.654,7.013H187.36a.817.817,0,0,0-.8.653l-.42,2.039H186a2.712,2.712,0,0,0-2.6,1.919l-.342,1.1a3.1,3.1,0,0,0,.193,2.346,33.152,33.152,0,0,0,4.824,6.747,2.756,2.756,0,0,0,3.826.229l1.638-1.419a5.053,5.053,0,0,0,7.637-6.613l2.432-2.107a5.038,5.038,0,1,0-.811-1.46l-2.867,2.483a5.053,5.053,0,0,0-7.284,6.308l-1.814,1.571a1.112,1.112,0,0,1-1.544-.09c-.613-.677-1.331-1.518-2.055-2.467l2.043-1.655a1.957,1.957,0,0,0,.289-2.753l-.421-.519a1.957,1.957,0,0,0-2.752-.289l-1.655,1.341c-.01-.018-.02-.036-.029-.055a1.5,1.5,0,0,1-.086-1.118l.342-1.1a1.085,1.085,0,0,1,1.042-.768h.81a.817.817,0,0,0,.8-.653l.42-2.039h2.025a.817.817,0,0,0,.814-.742l.723-7.754a3.07,3.07,0,0,1,1.078-2.069l9.482-8.035a1.374,1.374,0,0,1,1.965.2l4.819,6.086-.6.539a2.339,2.339,0,0,0,1.441,4.076q.063,0,.127,0a2.322,2.322,0,0,0,1.561-.6l.381-.343.523.66a1.178,1.178,0,0,1-.153,1.626l-.3.263a.817.817,0,1,0,1.07,1.236l.3-.263a2.81,2.81,0,0,0,.364-3.877Zm2.16,16.117a3.42,3.42,0,1,1-3.42,3.42,3.421,3.421,0,0,1,3.42-3.42Zm-10.277,8.476a3.421,3.421,0,1,1-3.42,3.421,3.421,3.421,0,0,1,3.42-3.421Zm-9.867.49a.322.322,0,0,1,.453.048l.42.519a.322.322,0,0,1-.047.453l-1.973,1.6q-.383-.559-.72-1.105Zm22.957-15.181a.7.7,0,0,1-.942-1.047l.523-.47.876,1.106Z" transform="translate(-142.62 -23.255)" fill="#494456"/>
      <path id="Trazado_873538" data-name="Trazado 873538" d="M243.906,234.743a2.4,2.4,0,1,0-2.4-2.4,2.4,2.4,0,0,0,2.4,2.4Zm0-3.163a.764.764,0,1,1-.764.764A.764.764,0,0,1,243.906,231.58Z" transform="translate(-189.246 -127.434)" fill="#494456"/>
      <path id="Trazado_873539" data-name="Trazado 873539" d="M294.2,193.264a2.4,2.4,0,1,0-2.4-2.4A2.4,2.4,0,0,0,294.2,193.264Zm0-3.163a.764.764,0,1,1-.764.764A.764.764,0,0,1,294.2,190.1Z" transform="translate(-229.26 -94.431)" fill="#494456"/>
      <path id="Trazado_873540" data-name="Trazado 873540" d="M235.991,150.428l-1.876-2.552a.817.817,0,0,0-1.18-.145l-1.125.934a2.781,2.781,0,0,0-1,1.952l-.178,2.736a2.033,2.033,0,0,0,1.1,1.957,2.064,2.064,0,0,0,.958.238,2.042,2.042,0,0,0,1.277-.453l1.566-1.248a2.48,2.48,0,0,0,.454-3.419Zm-1.472,2.14-1.566,1.248a.423.423,0,0,1-.685-.358l.178-2.735a1.14,1.14,0,0,1,.409-.8l.458-.38,1.363,1.853A.851.851,0,0,1,234.519,152.568Z" transform="translate(-180.592 -61.87)" fill="#494456"/>
      <path id="Trazado_873541" data-name="Trazado 873541" d="M263.535,119.674l-1.445-1.73a.817.817,0,0,0-1.143-.11l-2.766,2.248a3.19,3.19,0,0,0-.5,4.422l1.475,1.882a.817.817,0,0,0,.568.31c.025,0,.05,0,.075,0a.817.817,0,0,0,.54-.2l2.861-2.519A3.074,3.074,0,0,0,263.535,119.674Zm-1.41,3.076-2.212,1.947-.941-1.2a1.548,1.548,0,0,1,.241-2.146l2.14-1.74.928,1.111a1.449,1.449,0,0,1-.156,2.027Z" transform="translate(-201.585 -38.086)" fill="#494456"/>
      <path id="Trazado_873542" data-name="Trazado 873542" d="M5.193,146.75l1.952,1.394a5.073,5.073,0,1,0,.924-1.349L6.143,145.42a2,2,0,0,1-.561-2.66l2.015-3.4.575.365a2.5,2.5,0,0,0,3.4-.686l.391-.562,6.706,3.907-2.173,2.9a.817.817,0,0,0,1.308.981l2.723-3.633,4.741-6.328,4.33,2.976a3.206,3.206,0,0,1,1.376,2.456l.325,6.13a.817.817,0,0,0,.9.77l1.088-.107a.765.765,0,0,1,.83.669l.09.768a.817.817,0,0,0,.676.712l1.454.245a.858.858,0,0,1,.6,1.269l-.342.6-1.095-.621a2.16,2.16,0,1,0-2.225,3.7l1.153.732-1.7,3a1.76,1.76,0,0,1-2.387.664l-1.877-1.055a5.226,5.226,0,0,0-2.112-4.882,5.476,5.476,0,0,0-5.576-.556c-.2.094-.409.2-.607.316A1.87,1.87,0,0,1,18.15,154a.817.817,0,1,0-.95,1.33,3.508,3.508,0,0,0,3.784.179c.158-.091.319-.175.48-.25a3.8,3.8,0,0,1,3.914.388,3.617,3.617,0,0,1,1.451,3.456,2.789,2.789,0,0,1-.061.322.86.86,0,0,0-.023.116.817.817,0,0,0,.411.814l2.385,1.339a3.4,3.4,0,0,0,4.609-1.282l4.212-7.415a2.493,2.493,0,0,0-1.751-3.688l-.849-.143L35.741,149a2.4,2.4,0,0,0-2.616-2.107l-.236.023-.279-5.275a4.849,4.849,0,0,0-2.082-3.716l-4.977-3.422a.817.817,0,0,0-1.117.184l-4.775,6.371-7.521-4.381h0l-2.91-1.7a.817.817,0,0,0-1.115.29l-3.938,6.653a3.624,3.624,0,0,0,1.018,4.822Zm6.533.11a3.42,3.42,0,1,1-3.42,3.42,3.421,3.421,0,0,1,3.42-3.42Zm22.2,7.3a.525.525,0,0,1,.772-.567l1.094.62-.55.969-1.084-.689A.522.522,0,0,1,33.923,154.159ZM10.549,137.648l-.316.454a.872.872,0,0,1-1.185.239l-.618-.392.676-1.142Z" transform="translate(0 -51.384)" fill="#494456"/>
      <path id="Trazado_873543" data-name="Trazado 873543" d="M33.794,205.318a2.4,2.4,0,1,0-2.4-2.4A2.4,2.4,0,0,0,33.794,205.318Zm0-3.163a.764.764,0,1,1-.764.764.764.764,0,0,1,.764-.764Z" transform="translate(-22.068 -104.022)" fill="#494456"/>
      <path id="Trazado_873544" data-name="Trazado 873544" d="M96.55,69.783a5.055,5.055,0,1,0,5.055,5.055A5.055,5.055,0,0,0,96.55,69.783Zm0,8.476a3.421,3.421,0,1,1,3.42-3.421A3.421,3.421,0,0,1,96.55,78.259Z" transform="translate(-69.887)" fill="#494456"/>
      <path id="Trazado_873545" data-name="Trazado 873545" d="M106.894,82.783a2.4,2.4,0,1,0,2.4,2.4A2.4,2.4,0,0,0,106.894,82.783Zm0,3.163a.764.764,0,1,1,.764-.764A.764.764,0,0,1,106.894,85.946Z" transform="translate(-80.231 -10.344)" fill="#494456"/>
      <path id="Trazado_873546" data-name="Trazado 873546" d="M99.41,162.218l2.257,1.563a2.086,2.086,0,0,0,3.273-1.714v-1.621A4.2,4.2,0,0,0,103,156.9l-1.764-1.134a.817.817,0,0,0-1.108.214l-1.455,2.046h0a2.993,2.993,0,0,0,.734,4.194Zm.6-3.247,1-1.41,1.108.713a2.572,2.572,0,0,1,1.186,2.173v1.621a.451.451,0,0,1-.708.371l-2.257-1.564a1.357,1.357,0,0,1-.333-1.9Z" transform="translate(-75.16 -68.308)" fill="#494456"/>
      <path id="Trazado_873547" data-name="Trazado 873547" d="M277.8,160.8l-.828.729a.817.817,0,1,0,1.08,1.226l.828-.729a.817.817,0,1,0-1.08-1.226Z" transform="translate(-217.232 -72.247)" fill="#494456"/>
      <path id="Trazado_873548" data-name="Trazado 873548" d="M257.015,181.012a.814.814,0,0,0,.509-.178l.84-.669a.817.817,0,0,0-1.019-1.278l-.84.669a.817.817,0,0,0,.511,1.457Z" transform="translate(-200.934 -86.667)" fill="#494456"/>
      <path id="Trazado_873549" data-name="Trazado 873549" d="M86.668,191.413a.817.817,0,1,0,.876-1.38l-.9-.574a.817.817,0,1,0-.876,1.38Z" transform="translate(-65.025 -95.12)" fill="#494456"/>
      <path id="Trazado_873550" data-name="Trazado 873550" d="M60.4,116.162a.817.817,0,0,0-.477,1.053l.32.85a.817.817,0,1,0,1.53-.575l-.32-.85A.817.817,0,0,0,60.4,116.162Z" transform="translate(-44.727 -36.86)" fill="#494456"/>
      <path id="Trazado_873551" data-name="Trazado 873551" d="M207.975,109.509l-.422.945a.817.817,0,1,0,1.492.667l.422-.945a.817.817,0,0,0-1.492-.667Z" transform="translate(-162.166 -31.24)" fill="#494456"/>
      <path id="Trazado_873552" data-name="Trazado 873552" d="M161.471,157.954a.817.817,0,0,0,1.052-.48l1.144-3.063a.817.817,0,0,0-.85-1.1l-2.056.213-1.454-4.04a.817.817,0,0,0-.762-.541h-.007a.817.817,0,0,0-.764.528l-1.623,4.282h-2.305a.817.817,0,0,0-.715,1.212l1.444,2.617a.817.817,0,0,0,1.43-.79l-.775-1.4h1.486a.817.817,0,0,0,.764-.528l1.039-2.741.922,2.56a.817.817,0,0,0,.853.536l1.381-.143-.682,1.829A.817.817,0,0,0,161.471,157.954Z" transform="translate(-118.847 -62.985)" fill="#494456"/>
      <circle id="Elipse_11461" data-name="Elipse 11461" cx="0.817" cy="0.817" r="0.817" transform="translate(22.753 105.756)" fill="#494456"/>
    </g>
  </g>
</svg>
