<svg xmlns="http://www.w3.org/2000/svg" xmlns:xlink="http://www.w3.org/1999/xlink" width="119" height="119" viewBox="0 0 119 119">
  <defs>
    <filter id="Trazado_836181" x="0" y="0" width="119" height="119" filterUnits="userSpaceOnUse">
      <feOffset input="SourceAlpha"/>
      <feGaussianBlur stdDeviation="5.5" result="blur"/>
      <feFlood flood-color="#fff" flood-opacity="0.659"/>
      <feComposite operator="in" in2="blur"/>
      <feComposite in="SourceGraphic"/>
    </filter>
  </defs>
  <g id="_17" data-name="17" transform="translate(4810.5 10636.5)">
    <g id="Grupo_1099056" data-name="Grupo 1099056" transform="translate(-5923 -15460)">
      <g transform="matrix(1, 0, 0, 1, 1112.5, 4823.5)" filter="url(#Trazado_836181)">
        <path id="Trazado_836181-2" data-name="Trazado 836181" d="M43,0A43,43,0,1,1,0,43,43,43,0,0,1,43,0Z" transform="translate(16.5 16.5)" fill="#4df5df"/>
      </g>
    </g>
    <g id="carretera" transform="translate(-4783.5 -10604.025)">
      <g id="Grupo_1099059" data-name="Grupo 1099059" transform="translate(13.852 23.415)">
        <g id="Grupo_1099058" data-name="Grupo 1099058">
          <g id="Grupo_1099057" data-name="Grupo 1099057">
            <path id="Trazado_873553" data-name="Trazado 873553" d="M118.624,244.493h-8.09V239a3.032,3.032,0,0,0-3.032-3.032H92.933a11.133,11.133,0,0,1,0-22.265h6.743v8.09H92.933a3.032,3.032,0,0,0,0,6.064H107.5a11.142,11.142,0,0,1,11.133,11.133v5.506Z" transform="translate(-81.8 -213.7)" fill="#7a7979"/>
          </g>
        </g>
      </g>
      <g id="Grupo_1099061" data-name="Grupo 1099061" transform="translate(17.782 39.901)">
        <g id="Grupo_1099060" data-name="Grupo 1099060">
          <path id="Trazado_873554" data-name="Trazado 873554" d="M140.272,367.912a4.248,4.248,0,0,0-7.772-1.664,4.242,4.242,0,0,0-7.137,0,4.247,4.247,0,0,0-7.663,1.16,11.123,11.123,0,0,0,7.214,2.66h14.57a3.011,3.011,0,0,1,2.364,1.138V371.2A4.383,4.383,0,0,0,140.272,367.912Z" transform="translate(-117.7 -364.3)" fill="#4c4c4c"/>
        </g>
      </g>
      <g id="Grupo_1099063" data-name="Grupo 1099063" transform="translate(21.372 23.426)">
        <g id="Grupo_1099062" data-name="Grupo 1099062">
          <path id="Trazado_873555" data-name="Trazado 873555" d="M150.5,214.388l5.211,7.5h5.145V213.8h-6.743A10.643,10.643,0,0,0,150.5,214.388Z" transform="translate(-150.5 -213.796)" fill="#4c4c4c"/>
        </g>
      </g>
      <g id="Grupo_1099065" data-name="Grupo 1099065" transform="translate(13.305 22.868)">
        <g id="Grupo_1099064" data-name="Grupo 1099064">
          <path id="Trazado_873556" data-name="Trazado 873556" d="M114.172,240.587a.542.542,0,0,1-.547-.547v-5.5a10.6,10.6,0,0,0-10.585-10.585H88.48a3.58,3.58,0,1,1,0-7.159h6.2v-6.995h-6.2a10.585,10.585,0,1,0,0,21.171h14.57a3.588,3.588,0,0,1,3.58,3.58v5.484a.547.547,0,1,1-1.095,0v-5.5a2.49,2.49,0,0,0-2.485-2.485H88.48a11.68,11.68,0,0,1,0-23.36h6.743a.542.542,0,0,1,.547.547v8.09a.542.542,0,0,1-.547.547H88.48a2.485,2.485,0,1,0,0,4.97h14.57a11.7,11.7,0,0,1,11.68,11.68v5.506A.558.558,0,0,1,114.172,240.587Z" transform="translate(-76.8 -208.7)" fill="#231f20"/>
        </g>
      </g>
      <g id="Grupo_1099067" data-name="Grupo 1099067" transform="translate(15.494 31.393)">
        <g id="Grupo_1099066" data-name="Grupo 1099066">
          <path id="Trazado_873557" data-name="Trazado 873557" d="M99.34,295.9a.523.523,0,0,1-.427-.208,9.476,9.476,0,0,1-2.113-5.966,9.781,9.781,0,0,1,.405-2.759.544.544,0,0,1,1.04.317A8.389,8.389,0,0,0,99.756,295a.551.551,0,0,1-.077.766A.461.461,0,0,1,99.34,295.9Z" transform="translate(-96.8 -286.585)" fill="#c9c9c9"/>
        </g>
      </g>
      <g id="Grupo_1099069" data-name="Grupo 1099069" transform="translate(17.835 27.117)">
        <g id="Grupo_1099068" data-name="Grupo 1099068">
          <path id="Trazado_873558" data-name="Trazado 873558" d="M118.731,249.465a.547.547,0,0,1-.405-.92,10.387,10.387,0,0,1,.941-.9.544.544,0,0,1,.7.832,7.177,7.177,0,0,0-.832.8A.507.507,0,0,1,118.731,249.465Z" transform="translate(-118.182 -247.518)" fill="#c9c9c9"/>
        </g>
      </g>
      <g id="Grupo_1099071" data-name="Grupo 1099071" transform="translate(19.876 0.57)">
        <g id="Grupo_1099070" data-name="Grupo 1099070">
          <path id="Trazado_873559" data-name="Trazado 873559" d="M148.953,5h-.7a11.838,11.838,0,0,0-9.283,18.62l7.947,11.439a2.056,2.056,0,0,0,3.382,0l7.947-11.428A11.852,11.852,0,0,0,148.953,5Zm-.35,16.9a5.2,5.2,0,1,1,5.2-5.2A5.2,5.2,0,0,1,148.6,21.9Z" transform="translate(-136.827 -5)" fill="#f9b630"/>
        </g>
      </g>
      <g id="Grupo_1099073" data-name="Grupo 1099073" transform="translate(38.526 6.754)">
        <g id="Grupo_1099072" data-name="Grupo 1099072">
          <path id="Trazado_873560" data-name="Trazado 873560" d="M310.659,61.5a6.1,6.1,0,0,0,.131,11.056A11.815,11.815,0,0,0,310.659,61.5Z" transform="translate(-307.2 -61.5)" fill="#d88a0e"/>
        </g>
      </g>
      <g id="Grupo_1099075" data-name="Grupo 1099075" transform="translate(19.891 9.808)">
        <g id="Grupo_1099074" data-name="Grupo 1099074">
          <path id="Trazado_873561" data-name="Trazado 873561" d="M143.556,92.388a5.905,5.905,0,0,0-.821-.438,5.329,5.329,0,0,0-4.543-2.551,5.4,5.4,0,0,0-.952.088,11.746,11.746,0,0,0,1.861,9.3l3.153,4.532a6.107,6.107,0,0,0,4.149-5.78,5.837,5.837,0,0,0-.1-1.073A5.2,5.2,0,0,1,143.556,92.388Z" transform="translate(-136.962 -89.4)" fill="#d88a0e"/>
        </g>
      </g>
      <g id="Grupo_1099077" data-name="Grupo 1099077" transform="translate(19.332 0.025)">
        <g id="Grupo_1099076" data-name="Grupo 1099076" transform="translate(0 0)">
          <path id="Trazado_873562" data-name="Trazado 873562" d="M144.178,32.063a2.622,2.622,0,0,1-2.146-1.117L134.1,19.507a12.353,12.353,0,0,1-.865-12.753A12.054,12.054,0,0,1,143.816.033q.361-.016.722,0a12.061,12.061,0,0,1,10.585,6.721,12.641,12.641,0,0,1,1.357,6.294,12.384,12.384,0,0,1-2.222,6.458l-7.936,11.428A2.632,2.632,0,0,1,144.178,32.063Zm0-30.946h-.339a11,11,0,0,0-9.644,6.13,11.224,11.224,0,0,0,.788,11.636l7.947,11.428a1.507,1.507,0,0,0,2.474,0l7.947-11.428a11.223,11.223,0,0,0,.788-11.636,11,11,0,0,0-9.644-6.13h-.317Z" transform="translate(-131.858 -0.025)" fill="#231f20"/>
        </g>
      </g>
      <g id="Grupo_1099079" data-name="Grupo 1099079" transform="translate(25.904 6.525)">
        <g id="Grupo_1099078" data-name="Grupo 1099078">
          <path id="Trazado_873563" data-name="Trazado 873563" d="M197.647,70.894a5.747,5.747,0,1,1,5.747-5.736A5.753,5.753,0,0,1,197.647,70.894Zm0-10.388a4.652,4.652,0,1,0,4.663,4.652A4.653,4.653,0,0,0,197.647,60.506Z" transform="translate(-191.9 -59.4)" fill="#231f20"/>
        </g>
      </g>
      <g id="Grupo_1099081" data-name="Grupo 1099081" transform="translate(21.513 2.647)">
        <g id="Grupo_1099080" data-name="Grupo 1099080">
          <path id="Trazado_873564" data-name="Trazado 873564" d="M154.082,39.818a.541.541,0,0,1-.449-.23,10.334,10.334,0,0,1,1.916-13.815.545.545,0,1,1,.69.843,8.949,8.949,0,0,0-2.343,2.945,9.069,9.069,0,0,0,.635,9.392.548.548,0,0,1-.142.766A.512.512,0,0,1,154.082,39.818Zm4.324-14.537a.551.551,0,0,1-.208-1.062c.208-.077.416-.153.635-.219a.55.55,0,0,1,.328,1.051,4.816,4.816,0,0,0-.558.2A.62.62,0,0,1,158.406,25.281Z" transform="translate(-151.781 -23.976)" fill="#ffedcc"/>
        </g>
      </g>
      <g id="Grupo_1099083" data-name="Grupo 1099083" transform="translate(31.17 30.968)">
        <g id="Grupo_1099082" data-name="Grupo 1099082">
          <path id="Trazado_873565" data-name="Trazado 873565" d="M246.82,283.795h-6.272a.547.547,0,0,1,0-1.095h6.272a.547.547,0,0,1,0,1.095Z" transform="translate(-240 -282.7)" fill="#231f20"/>
        </g>
      </g>
      <g id="Grupo_1099085" data-name="Grupo 1099085" transform="translate(39.872 30.968)">
        <g id="Grupo_1099084" data-name="Grupo 1099084">
          <path id="Trazado_873566" data-name="Trazado 873566" d="M321.536,283.795h-1.489a.547.547,0,0,1,0-1.095h1.489a.542.542,0,0,1,.547.547A.549.549,0,0,1,321.536,283.795Z" transform="translate(-319.5 -282.7)" fill="#231f20"/>
        </g>
      </g>
      <g id="Grupo_1099087" data-name="Grupo 1099087" transform="translate(41.81 5.879)">
        <g id="Grupo_1099086" data-name="Grupo 1099086" transform="translate(0)">
          <path id="Trazado_873567" data-name="Trazado 873567" d="M340.013,57.058a2.813,2.813,0,0,0,0,5.627H351.4a2.813,2.813,0,1,0,0-5.627h-.066a2.047,2.047,0,0,0-4.094,0,3.547,3.547,0,1,0-7.093,0Z" transform="translate(-337.2 -53.5)" fill="#71ccff"/>
        </g>
      </g>
      <g id="Grupo_1099089" data-name="Grupo 1099089" transform="translate(41.262 5.331)">
        <g id="Grupo_1099088" data-name="Grupo 1099088" transform="translate(0)">
          <path id="Trazado_873568" data-name="Trazado 873568" d="M346.945,58.779H335.561a3.361,3.361,0,0,1-.383-6.7,4.1,4.1,0,0,1,7.772-1.237,2.594,2.594,0,0,1,4.433,1.248,3.358,3.358,0,0,1-.438,6.688Zm-11.384-5.627a2.266,2.266,0,0,0,0,4.532h11.384a2.266,2.266,0,0,0,0-4.532h-.066a.542.542,0,0,1-.547-.547,1.5,1.5,0,0,0-3,0,.547.547,0,0,1-1.095,0,3,3,0,1,0-6,0,.542.542,0,0,1-.547.547Z" transform="translate(-332.2 -48.5)" fill="#231f20"/>
        </g>
      </g>
      <g id="Grupo_1099091" data-name="Grupo 1099091" transform="translate(44.087 7.522)">
        <g id="Grupo_1099090" data-name="Grupo 1099090">
          <path id="Trazado_873569" data-name="Trazado 873569" d="M359.927,73.165h-1.379a.547.547,0,1,1,0-1.095h1.379a.392.392,0,0,0,.394-.394v-1.2a1.957,1.957,0,0,1,1.73-1.948,1.9,1.9,0,0,1,1.467.493,1.923,1.923,0,0,1,.624,1.412.547.547,0,1,1-1.095,0,.8.8,0,0,0-.274-.6.831.831,0,0,0-.635-.208.845.845,0,0,0-.733.854v1.215A1.486,1.486,0,0,1,359.927,73.165Z" transform="translate(-358 -68.514)" fill="#c0e7f9"/>
        </g>
      </g>
      <g id="Grupo_1099093" data-name="Grupo 1099093" transform="translate(40.102 14.515)">
        <g id="Grupo_1099092" data-name="Grupo 1099092">
          <path id="Trazado_873570" data-name="Trazado 873570" d="M326.121,133.495h-3.974a.547.547,0,0,1,0-1.095h3.974a.547.547,0,0,1,0,1.095Z" transform="translate(-321.6 -132.4)" fill="#231f20"/>
        </g>
      </g>
      <g id="Grupo_1099095" data-name="Grupo 1099095" transform="translate(38.285 14.515)">
        <g id="Grupo_1099094" data-name="Grupo 1099094">
          <path id="Trazado_873571" data-name="Trazado 873571" d="M305.755,133.495h-.208a.547.547,0,0,1,0-1.095h.208a.547.547,0,0,1,0,1.095Z" transform="translate(-305 -132.4)" fill="#231f20"/>
        </g>
      </g>
      <g id="Grupo_1099097" data-name="Grupo 1099097" transform="translate(9.025 11.571)">
        <g id="Grupo_1099096" data-name="Grupo 1099096" transform="translate(0)">
          <path id="Trazado_873572" data-name="Trazado 873572" d="M40.513,109.058a2.813,2.813,0,0,0,0,5.627H51.9a2.813,2.813,0,1,0,0-5.627h-.066a2.047,2.047,0,1,0-4.094,0,3.547,3.547,0,1,0-7.093,0Z" transform="translate(-37.7 -105.5)" fill="#71ccff"/>
        </g>
      </g>
      <g id="Grupo_1099099" data-name="Grupo 1099099" transform="translate(8.477 11.034)">
        <g id="Grupo_1099098" data-name="Grupo 1099098">
          <path id="Trazado_873573" data-name="Trazado 873573" d="M47.445,110.879H36.061a3.361,3.361,0,0,1-.383-6.7,4.1,4.1,0,0,1,7.772-1.237,2.594,2.594,0,0,1,4.433,1.248,3.358,3.358,0,0,1-.438,6.688Zm-11.384-5.637a2.266,2.266,0,1,0,0,4.532H47.445a2.266,2.266,0,1,0,0-4.532h-.066a.542.542,0,0,1-.547-.547,1.5,1.5,0,1,0-3,0,.547.547,0,0,1-1.095,0,3,3,0,1,0-6,0,.542.542,0,0,1-.547.547Z" transform="translate(-32.7 -100.6)" fill="#231f20"/>
        </g>
      </g>
      <g id="Grupo_1099101" data-name="Grupo 1099101" transform="translate(11.291 13.203)">
        <g id="Grupo_1099100" data-name="Grupo 1099100">
          <path id="Trazado_873574" data-name="Trazado 873574" d="M60.327,125.076H58.947a.547.547,0,1,1,0-1.095h1.379a.392.392,0,0,0,.394-.394v-1.215a1.957,1.957,0,0,1,1.73-1.948,1.9,1.9,0,0,1,1.467.493,1.923,1.923,0,0,1,.624,1.412.547.547,0,0,1-1.095,0,.8.8,0,0,0-.274-.6.831.831,0,0,0-.635-.208.845.845,0,0,0-.733.854v1.215A1.474,1.474,0,0,1,60.327,125.076Z" transform="translate(-58.4 -120.414)" fill="#c0e7f9"/>
        </g>
      </g>
      <g id="Grupo_1099103" data-name="Grupo 1099103" transform="translate(7.317 20.219)">
        <g id="Grupo_1099102" data-name="Grupo 1099102" transform="translate(0)">
          <path id="Trazado_873575" data-name="Trazado 873575" d="M26.621,185.595H22.647a.547.547,0,1,1,0-1.095h3.974a.542.542,0,0,1,.547.547A.549.549,0,0,1,26.621,185.595Z" transform="translate(-22.1 -184.5)" fill="#231f20"/>
        </g>
      </g>
      <g id="Grupo_1099105" data-name="Grupo 1099105" transform="translate(5.5 20.219)">
        <g id="Grupo_1099104" data-name="Grupo 1099104" transform="translate(0)">
          <path id="Trazado_873576" data-name="Trazado 873576" d="M6.255,185.595H6.047a.547.547,0,1,1,0-1.095h.208a.542.542,0,0,1,.547.547A.549.549,0,0,1,6.255,185.595Z" transform="translate(-5.5 -184.5)" fill="#231f20"/>
        </g>
      </g>
      <g id="Grupo_1099107" data-name="Grupo 1099107" transform="translate(18.297 42.09)">
        <g id="Grupo_1099106" data-name="Grupo 1099106">
          <path id="Trazado_873577" data-name="Trazado 873577" d="M127.928,386.993a2.028,2.028,0,0,0,.1-.635,2.058,2.058,0,1,0-4.116,0,2.028,2.028,0,0,0,.1.635,2.061,2.061,0,0,0,.449,4.072,2.039,2.039,0,0,0,1.511-.657,2.061,2.061,0,1,0,1.959-3.415Z" transform="translate(-122.4 -384.3)" fill="#08b26c"/>
        </g>
      </g>
      <g id="Grupo_1099109" data-name="Grupo 1099109" transform="translate(25.445 42.09)">
        <g id="Grupo_1099108" data-name="Grupo 1099108">
          <path id="Trazado_873578" data-name="Trazado 873578" d="M193.228,386.993a2.028,2.028,0,0,0,.1-.635,2.058,2.058,0,1,0-4.116,0,2.028,2.028,0,0,0,.1.635,2.061,2.061,0,0,0,.449,4.072,2.039,2.039,0,0,0,1.511-.657,2.061,2.061,0,1,0,1.959-3.415Z" transform="translate(-187.7 -384.3)" fill="#08b26c"/>
        </g>
      </g>
      <g id="Grupo_1099111" data-name="Grupo 1099111" transform="translate(32.582 42.09)">
        <g id="Grupo_1099110" data-name="Grupo 1099110" transform="translate(0)">
          <path id="Trazado_873579" data-name="Trazado 873579" d="M258.428,386.993a2.028,2.028,0,0,0,.1-.635,2.058,2.058,0,1,0-4.116,0,2.028,2.028,0,0,0,.1.635,2.061,2.061,0,0,0,.449,4.072,2.039,2.039,0,0,0,1.511-.657,2.061,2.061,0,1,0,1.959-3.415Z" transform="translate(-252.9 -384.3)" fill="#08b26c"/>
        </g>
      </g>
      <g id="Grupo_1099113" data-name="Grupo 1099113" transform="translate(17.749 41.543)">
        <g id="Grupo_1099112" data-name="Grupo 1099112" transform="translate(0)">
          <path id="Trazado_873580" data-name="Trazado 873580" d="M123.027,387.16a2.637,2.637,0,0,1-1.511-.482,2.608,2.608,0,1,1-2.594-4.5,2.2,2.2,0,0,1-.011-.274,2.605,2.605,0,0,1,5.211,0,2.288,2.288,0,0,1-.011.274,2.609,2.609,0,0,1-1.084,4.981Zm-1.511-1.751a.573.573,0,0,1,.405.175,1.476,1.476,0,0,0,1.106.482,1.512,1.512,0,0,0,.328-2.988.556.556,0,0,1-.361-.263.514.514,0,0,1-.044-.438,1.685,1.685,0,0,0,.077-.46,1.511,1.511,0,0,0-3.021,0,1.309,1.309,0,0,0,.077.46.542.542,0,0,1-.405.7,1.512,1.512,0,0,0,.328,2.988,1.5,1.5,0,0,0,1.106-.482A.573.573,0,0,1,121.516,385.408Z" transform="translate(-117.4 -379.3)" fill="#231f20"/>
        </g>
      </g>
      <g id="Grupo_1099115" data-name="Grupo 1099115" transform="translate(24.897 41.543)">
        <g id="Grupo_1099114" data-name="Grupo 1099114">
          <path id="Trazado_873581" data-name="Trazado 873581" d="M188.327,387.16a2.637,2.637,0,0,1-1.511-.482,2.608,2.608,0,1,1-2.594-4.5,2.2,2.2,0,0,1-.011-.274,2.605,2.605,0,0,1,5.211,0,2.29,2.29,0,0,1-.011.274,2.609,2.609,0,0,1-1.084,4.981Zm-1.511-1.751a.573.573,0,0,1,.405.175,1.476,1.476,0,0,0,1.106.482,1.512,1.512,0,0,0,.328-2.988.556.556,0,0,1-.361-.263.514.514,0,0,1-.044-.438,1.684,1.684,0,0,0,.077-.46,1.511,1.511,0,0,0-3.021,0,1.309,1.309,0,0,0,.077.46.542.542,0,0,1-.405.7,1.512,1.512,0,0,0,.328,2.988,1.5,1.5,0,0,0,1.106-.482A.554.554,0,0,1,186.816,385.408Z" transform="translate(-182.7 -379.3)" fill="#231f20"/>
        </g>
      </g>
      <g id="Grupo_1099117" data-name="Grupo 1099117" transform="translate(32.034 41.543)">
        <g id="Grupo_1099116" data-name="Grupo 1099116" transform="translate(0)">
          <path id="Trazado_873582" data-name="Trazado 873582" d="M253.527,387.16a2.637,2.637,0,0,1-1.511-.482,2.608,2.608,0,1,1-2.594-4.5,2.2,2.2,0,0,1-.011-.274,2.605,2.605,0,0,1,5.211,0,2.29,2.29,0,0,1-.011.274,2.609,2.609,0,0,1-1.084,4.981Zm-1.511-1.751a.573.573,0,0,1,.405.175,1.476,1.476,0,0,0,1.106.482,1.512,1.512,0,0,0,.328-2.988.556.556,0,0,1-.361-.263.514.514,0,0,1-.044-.438,1.685,1.685,0,0,0,.077-.46,1.511,1.511,0,0,0-3.021,0,1.309,1.309,0,0,0,.077.46.542.542,0,0,1-.405.7,1.512,1.512,0,0,0,.328,2.988,1.5,1.5,0,0,0,1.106-.482A.573.573,0,0,1,252.016,385.408Z" transform="translate(-247.9 -379.3)" fill="#231f20"/>
        </g>
      </g>
      <g id="Grupo_1099119" data-name="Grupo 1099119" transform="translate(21.318 47.651)">
        <g id="Grupo_1099118" data-name="Grupo 1099118">
          <path id="Trazado_873583" data-name="Trazado 873583" d="M150.547,442.2a.542.542,0,0,1-.547-.547v-6.01a.547.547,0,0,1,1.095,0v6.01A.542.542,0,0,1,150.547,442.2Z" transform="translate(-150 -435.1)" fill="#231f20"/>
        </g>
      </g>
      <g id="Grupo_1099121" data-name="Grupo 1099121" transform="translate(28.466 47.651)">
        <g id="Grupo_1099120" data-name="Grupo 1099120">
          <path id="Trazado_873584" data-name="Trazado 873584" d="M215.847,442.2a.542.542,0,0,1-.547-.547v-6.01a.547.547,0,1,1,1.095,0v6.01A.549.549,0,0,1,215.847,442.2Z" transform="translate(-215.3 -435.1)" fill="#231f20"/>
        </g>
      </g>
      <g id="Grupo_1099123" data-name="Grupo 1099123" transform="translate(35.603 47.651)">
        <g id="Grupo_1099122" data-name="Grupo 1099122">
          <path id="Trazado_873585" data-name="Trazado 873585" d="M281.047,442.2a.542.542,0,0,1-.547-.547v-6.01a.547.547,0,1,1,1.095,0v6.01A.542.542,0,0,1,281.047,442.2Z" transform="translate(-280.5 -435.1)" fill="#231f20"/>
        </g>
      </g>
    </g>
  </g>
</svg>
