<svg xmlns="http://www.w3.org/2000/svg" xmlns:xlink="http://www.w3.org/1999/xlink" width="505" height="275" viewBox="0 0 505 275">
  <defs>
    <clipPath id="clip-path">
      <rect id="Rectángulo_400934" data-name="Rectángulo 400934" width="451.52" height="177.272" fill="none"/>
    </clipPath>
    <clipPath id="clip-path-2">
      <rect id="Rectángulo_400933" data-name="Rectángulo 400933" width="451.519" height="177.272" fill="none"/>
    </clipPath>
    <clipPath id="clip-path-3">
      <rect id="Rectángulo_400901" data-name="Rectángulo 400901" width="11.113" height="22.009" fill="none"/>
    </clipPath>
    <clipPath id="clip-path-4">
      <rect id="Rectángulo_400902" data-name="Rectángulo 400902" width="19.447" height="34.676" fill="none"/>
    </clipPath>
    <clipPath id="clip-path-5">
      <rect id="Rectángulo_400903" data-name="Rectángulo 400903" width="15.431" height="19.803" fill="none"/>
    </clipPath>
    <clipPath id="clip-path-6">
      <rect id="Rectángulo_400904" data-name="Rectángulo 400904" width="3.523" height="5.344" fill="none"/>
    </clipPath>
    <clipPath id="clip-path-7">
      <rect id="Rectángulo_400905" data-name="Rectángulo 400905" width="3.682" height="10.626" fill="none"/>
    </clipPath>
    <clipPath id="clip-path-8">
      <rect id="Rectángulo_400906" data-name="Rectángulo 400906" width="14.054" height="13.597" fill="none"/>
    </clipPath>
    <clipPath id="clip-path-9">
      <rect id="Rectángulo_400907" data-name="Rectángulo 400907" width="2.077" height="8.947" fill="none"/>
    </clipPath>
    <clipPath id="clip-path-10">
      <rect id="Rectángulo_400908" data-name="Rectángulo 400908" width="10.73" height="12.573" fill="none"/>
    </clipPath>
    <clipPath id="clip-path-11">
      <rect id="Rectángulo_400909" data-name="Rectángulo 400909" width="10.043" height="15.055" fill="none"/>
    </clipPath>
    <clipPath id="clip-path-12">
      <rect id="Rectángulo_400910" data-name="Rectángulo 400910" width="12.126" height="6.976" fill="none"/>
    </clipPath>
    <clipPath id="clip-path-13">
      <rect id="Rectángulo_400911" data-name="Rectángulo 400911" width="11.374" height="6.917" fill="none"/>
    </clipPath>
    <clipPath id="clip-path-14">
      <rect id="Rectángulo_400912" data-name="Rectángulo 400912" width="21.26" height="33.997" fill="none"/>
    </clipPath>
    <clipPath id="clip-path-15">
      <rect id="Rectángulo_400913" data-name="Rectángulo 400913" width="4.619" height="13.278" fill="none"/>
    </clipPath>
    <clipPath id="clip-path-16">
      <rect id="Rectángulo_400914" data-name="Rectángulo 400914" width="3.367" height="7.72" fill="none"/>
    </clipPath>
    <clipPath id="clip-path-17">
      <rect id="Rectángulo_400915" data-name="Rectángulo 400915" width="12.28" height="3.047" fill="none"/>
    </clipPath>
    <clipPath id="clip-path-18">
      <rect id="Rectángulo_400917" data-name="Rectángulo 400917" width="8.29" height="13.931" fill="none"/>
    </clipPath>
    <clipPath id="clip-path-19">
      <rect id="Rectángulo_400918" data-name="Rectángulo 400918" width="27.353" height="29.426" fill="none"/>
    </clipPath>
    <clipPath id="clip-path-20">
      <rect id="Rectángulo_400919" data-name="Rectángulo 400919" width="7.029" height="14.618" fill="none"/>
    </clipPath>
    <clipPath id="clip-path-21">
      <rect id="Rectángulo_400920" data-name="Rectángulo 400920" width="22.803" height="19.329" fill="none"/>
    </clipPath>
    <clipPath id="clip-path-22">
      <rect id="Rectángulo_400921" data-name="Rectángulo 400921" width="3.059" height="5.649" fill="none"/>
    </clipPath>
    <clipPath id="clip-path-23">
      <rect id="Rectángulo_400922" data-name="Rectángulo 400922" width="12.109" height="49.304" fill="none"/>
    </clipPath>
    <clipPath id="clip-path-24">
      <rect id="Rectángulo_400923" data-name="Rectángulo 400923" width="13.189" height="36.147" fill="none"/>
    </clipPath>
    <clipPath id="clip-path-25">
      <rect id="Rectángulo_400924" data-name="Rectángulo 400924" width="13.411" height="13.411" fill="none"/>
    </clipPath>
    <clipPath id="clip-path-26">
      <rect id="Rectángulo_400925" data-name="Rectángulo 400925" width="5.719" height="5.719" fill="none"/>
    </clipPath>
    <clipPath id="clip-path-27">
      <rect id="Rectángulo_400926" data-name="Rectángulo 400926" width="9.896" height="4.231" fill="none"/>
    </clipPath>
    <clipPath id="clip-path-28">
      <rect id="Rectángulo_400927" data-name="Rectángulo 400927" width="23.552" height="23.552" fill="#beb4d0"/>
    </clipPath>
    <clipPath id="clip-path-29">
      <rect id="Rectángulo_400928" data-name="Rectángulo 400928" width="10.043" height="10.043" fill="none"/>
    </clipPath>
    <clipPath id="clip-path-30">
      <rect id="Rectángulo_400929" data-name="Rectángulo 400929" width="17.379" height="7.431" fill="none"/>
    </clipPath>
    <clipPath id="clip-path-31">
      <rect id="Rectángulo_400930" data-name="Rectángulo 400930" width="16.868" height="16.867" fill="none"/>
    </clipPath>
    <clipPath id="clip-path-32">
      <rect id="Rectángulo_400931" data-name="Rectángulo 400931" width="7.193" height="7.193" fill="none"/>
    </clipPath>
    <clipPath id="clip-path-33">
      <rect id="Rectángulo_400932" data-name="Rectángulo 400932" width="12.447" height="5.322" fill="none"/>
    </clipPath>
  </defs>
  <g id="_3" data-name="3" transform="translate(-915 -396)">
    <rect id="Rectángulo_400935" data-name="Rectángulo 400935" width="505" height="275" rx="8" transform="translate(915 396)" fill="#beb4d0"/>
    <g id="Grupo_1098832" data-name="Grupo 1098832" transform="translate(935 435.864)">
      <g id="Grupo_1098831" data-name="Grupo 1098831" clip-path="url(#clip-path)">
        <g id="Grupo_1098830" data-name="Grupo 1098830">
          <g id="Grupo_1098829" data-name="Grupo 1098829" clip-path="url(#clip-path-2)">
            <path id="Trazado_872938" data-name="Trazado 872938" d="M510.373,288.738V363.6c0,26.444-18.373,41.554-49.8,41.554s-49.8-15.111-49.8-41.554V288.738c0-3.606,3.091-5.495,10.3-5.495h5.838c7.212,0,10.3,1.888,10.3,5.495v73.149c0,12.02,9.445,20.777,23.353,20.777s23.524-8.757,23.524-20.777V288.738c0-3.606,3.091-5.495,10.3-5.495h5.667c7.212,0,10.3,1.888,10.3,5.495" transform="translate(-336.902 -232.301)" fill="#3a1d71"/>
            <path id="Trazado_872939" data-name="Trazado 872939" d="M1214.467,288.738V398.632c0,3.606-3.091,5.495-10.3,5.495h-4.98c-7.211,0-10.3-1.889-10.3-5.495V327.544l-.687-.171-24.9,44.473a7.878,7.878,0,0,1-6.869,3.263h-4.979a7.877,7.877,0,0,1-6.869-3.263l-24.9-44.473-.687.171v71.088c0,3.606-3.091,5.495-10.3,5.495h-4.979c-7.212,0-10.3-1.889-10.3-5.495V288.738c0-3.606,3.091-5.495,10.3-5.495h9.1c4.98,0,8.929,1.2,10.818,4.636l28.847,51.341,1.374,2.4,1.545-2.919,29.019-50.826c1.889-3.434,5.838-4.636,10.818-4.636h8.929c7.211,0,10.3,1.888,10.3,5.495" transform="translate(-896.76 -232.301)" fill="#3a1d71"/>
            <path id="Trazado_872940" data-name="Trazado 872940" d="M1924.689,288.738v92.552h38.291c3.606,0,5.151,2.576,5.151,8.586V395.2c0,6.01-1.545,8.586-5.151,8.586h-57.866c-4.808,0-6.869-2.061-6.869-6.868V288.738c0-3.606,3.091-5.495,10.3-5.495h5.838c7.212,0,10.3,1.888,10.3,5.495" transform="translate(-1556.844 -232.301)" fill="#3a1d71"/>
            <path id="Trazado_872941" data-name="Trazado 872941" d="M1117.938,126.242c.021-3.4-.924-6.349-1.947-12.013-.349-1.933-.526-3.178-1.583-4.363a7.419,7.419,0,0,0-3.721-2.011,11.272,11.272,0,0,0-7.48.023,5.822,5.822,0,0,0-2.96,1.911c-.862,1.207-.686,2.986-.3,6.494.649,5.857.791,7.061.675,8.793a20.878,20.878,0,0,1-.979,5.053,29.191,29.191,0,0,0,11.9.57,9.144,9.144,0,0,0,4.36.66,2.028,2.028,0,0,0,.742-.421,2.174,2.174,0,0,0,.465-.817,8.769,8.769,0,0,0,.829-3.878m-3.122-3.165a35.51,35.51,0,0,1-.533,5.306c-.022.02-.332.229-.334.23a1.406,1.406,0,0,1-.532.129,1.349,1.349,0,0,1-.983-.6,23.365,23.365,0,0,1,.276-8.314,6.719,6.719,0,0,0,1.287-.949l.819,4.2" transform="translate(-901.858 -87.933)" fill="#daf1fd"/>
            <g id="Grupo_1098738" data-name="Grupo 1098738" transform="translate(197.77 20.317)" style="mix-blend-mode: multiply;isolation: isolate">
              <g id="Grupo_1098737" data-name="Grupo 1098737">
                <g id="Grupo_1098736" data-name="Grupo 1098736" clip-path="url(#clip-path-3)">
                  <path id="Trazado_872942" data-name="Trazado 872942" d="M1110.1,133.813a40.811,40.811,0,0,1-5.9-5.363c-1.263-1.423-1.872-3.629-3.089-8.039-.848-3.069-.939-4.625-.166-5.979a4.681,4.681,0,0,1,1.338-1.464,4.609,4.609,0,0,0-2.042,1.538c-.862,1.207-.686,2.985-.3,6.494.649,5.858.791,7.061.675,8.793a20.88,20.88,0,0,1-.979,5.053l1.714.131c.157-.86.291-1.786.388-2.774a34.078,34.078,0,0,0,.154-4.127,28.927,28.927,0,0,0,4,4.193,11.185,11.185,0,0,0,3.322,2.093,9.951,9.951,0,0,0,1.142.364c.158-.054.353-.146.377-.292.042-.266-.511-.555-.634-.622" transform="translate(-1099.628 -112.968)" fill="#d3dee2"/>
                </g>
              </g>
            </g>
            <path id="Trazado_872943" data-name="Trazado 872943" d="M1127.745,250.612c-.237-4.3-.671-8.327-1.223-12.05q-1.831-.541-3.707-1.072c-.1-.029-1.878-.531-3.8-1.05-4-1.081-8-2.071-9.711-2.489a53.464,53.464,0,0,1-7.194.318c-1.229-.029-2.405-.1-3.523-.2a8.8,8.8,0,0,0,.164,4.739c.469,1.432,1.278,2.43,2.894,4.427a31.815,31.815,0,0,0,3.713,3.951,32.655,32.655,0,0,0,5.148,3.757,25,25,0,0,0,.549,5.949,27.117,27.117,0,0,0,5.766,11.585.9.9,0,0,0,.824.25.866.866,0,0,0,.618-.5l-2.708-18.76-2.786-5.96a34.381,34.381,0,0,0,9.39-.794,15.621,15.621,0,0,0-.363,2.231c-.315,3.551.682,6.308,1.692,9.012a36.953,36.953,0,0,0,2.967,6.128.9.9,0,0,0,1.038.512.743.743,0,0,0,.429-.485c.052-3,.005-6.169-.178-9.5" transform="translate(-900.801 -191.875)" fill="#a854f3"/>
            <path id="Trazado_872944" data-name="Trazado 872944" d="M1258.632,389.123a7.686,7.686,0,0,0,3.638,1.73.55.55,0,0,0,.123-.488.967.967,0,0,0-.229-.4,15.989,15.989,0,0,0-3.033-2.253c-.32-.237-.9-.6-1.166.092-.236.608.312,1.058.666,1.323" transform="translate(-1031.672 -317.725)" fill="#4f6772"/>
            <path id="Trazado_872945" data-name="Trazado 872945" d="M1204.516,431.456a5.913,5.913,0,0,0,1.883,3.046.629.629,0,0,0,.4-.324.818.818,0,0,0,.062-.421,12.111,12.111,0,0,0-1.072-3.171c-.114-.334-.359-.886-1-.472a1.048,1.048,0,0,0-.274,1.342" transform="translate(-987.781 -352.636)" fill="#4f6772"/>
            <path id="Trazado_872946" data-name="Trazado 872946" d="M1154.929,220.825a1.366,1.366,0,0,0,.761,1.5.989.989,0,0,1,.368.225.753.753,0,0,1,.122.293l.281,1.093a.375.375,0,0,0,.505.333l1.152-.1a.423.423,0,0,0,.233-.067.416.416,0,0,0,.088-.109,16.142,16.142,0,0,0,1.274-2.482c.195-.476.346-1.076,0-1.457a1.01,1.01,0,0,0-.791-.282,4.48,4.48,0,0,0-.85.163,7.831,7.831,0,0,1-1.989.1,1.118,1.118,0,0,0-1.157.79" transform="translate(-947.185 -180.244)" fill="#ffd092"/>
            <g id="Grupo_1098741" data-name="Grupo 1098741" transform="translate(197.538 42.195)" style="mix-blend-mode: multiply;isolation: isolate">
              <g id="Grupo_1098740" data-name="Grupo 1098740">
                <g id="Grupo_1098739" data-name="Grupo 1098739" clip-path="url(#clip-path-4)">
                  <path id="Trazado_872947" data-name="Trazado 872947" d="M1117.7,269.095a37.214,37.214,0,0,1-5.73-17.17,2.036,2.036,0,0,0-.907-1.788,79.231,79.231,0,0,1-7.45-7.965,14.457,14.457,0,0,1-3.149-5.174c-.141-.509,0-1.665-.169-2.254q-.885-.051-1.714-.131a8.8,8.8,0,0,0,.164,4.739c.469,1.432,1.278,2.43,2.894,4.427a31.81,31.81,0,0,0,3.713,3.951,32.667,32.667,0,0,0,5.148,3.757,25,25,0,0,0,.549,5.949,27.121,27.121,0,0,0,5.766,11.585.9.9,0,0,0,.824.251.882.882,0,0,0,.139-.042c-.025-.046-.052-.09-.08-.134" transform="translate(-1098.338 -234.612)" fill="#d3dee2"/>
                </g>
              </g>
            </g>
            <g id="Grupo_1098744" data-name="Grupo 1098744" transform="translate(210.379 48.632)" style="mix-blend-mode: multiply;isolation: isolate">
              <g id="Grupo_1098743" data-name="Grupo 1098743">
                <g id="Grupo_1098742" data-name="Grupo 1098742" clip-path="url(#clip-path-5)">
                  <path id="Trazado_872948" data-name="Trazado 872948" d="M1182.792,282.212a38.153,38.153,0,0,1-.665-5.5,34.746,34.746,0,0,1,.261-5.9,30.119,30.119,0,0,1-12.643-.409q.372.666.744,1.364.442.831.846,1.638a34.487,34.487,0,0,0,9.39-.8,15.584,15.584,0,0,0-.363,2.231c-.315,3.551.682,6.308,1.692,9.012a36.96,36.96,0,0,0,2.968,6.127.986.986,0,0,0,.155.226,41.985,41.985,0,0,1-2.383-8" transform="translate(-1169.744 -270.404)" fill="#d3dee2"/>
                </g>
              </g>
            </g>
            <path id="Trazado_872949" data-name="Trazado 872949" d="M1169.49,42.288a4.834,4.834,0,0,1-.523,1.389,3.444,3.444,0,0,1-2.713,1.39q.064-.957.127-1.913a1.016,1.016,0,0,1,.11-.474c.2-.32.649-.319,1.022-.371a2.764,2.764,0,0,0,1.85-1.5,2.819,2.819,0,0,0,.326-1.083,4.713,4.713,0,0,1,.087,1.008,7.7,7.7,0,0,1-.286,1.557" transform="translate(-956.502 -32.58)" fill="#936522"/>
            <g id="Grupo_1098747" data-name="Grupo 1098747" transform="translate(209.751 7.144)" style="mix-blend-mode: multiply;isolation: isolate">
              <g id="Grupo_1098746" data-name="Grupo 1098746">
                <g id="Grupo_1098745" data-name="Grupo 1098745" clip-path="url(#clip-path-6)">
                  <path id="Trazado_872950" data-name="Trazado 872950" d="M1169.49,42.288a4.834,4.834,0,0,1-.523,1.389,3.444,3.444,0,0,1-2.713,1.39q.064-.957.127-1.913a1.016,1.016,0,0,1,.11-.474c.2-.32.649-.319,1.022-.371a2.764,2.764,0,0,0,1.85-1.5,2.819,2.819,0,0,0,.326-1.083,4.713,4.713,0,0,1,.087,1.008,7.7,7.7,0,0,1-.286,1.557" transform="translate(-1166.253 -39.724)" fill="#d3dee2"/>
                </g>
              </g>
            </g>
            <path id="Trazado_872951" data-name="Trazado 872951" d="M1126.319,33.543h0a4.153,4.153,0,0,0-5.218,2.7l-.909,2.854a4.153,4.153,0,0,0,7.915,2.521l.909-2.854a4.153,4.153,0,0,0-2.7-5.218" transform="translate(-918.562 -27.349)" fill="#ffd092"/>
            <path id="Trazado_872952" data-name="Trazado 872952" d="M1103.345,25.354a2.844,2.844,0,0,0-1.638-1.031,11.816,11.816,0,0,0-2.517-.4c-2.149-.393-2.277-1.192-3.681-1.23a5.16,5.16,0,0,0-3.56,1.555,18.039,18.039,0,0,0-2.242,3.291,8.655,8.655,0,0,1-2.61,2.978,4.511,4.511,0,0,0-1.168.837c-.717.877-.261,2.216.443,3.116a7.353,7.353,0,0,0,6.032,2.756,2.988,2.988,0,0,0,1.75-.442,2.865,2.865,0,0,0,.929-1.794c.915-3.9.836-4.645,1.6-5.486a3.618,3.618,0,0,1,1.957-1.154c1.718-.32,2.571.878,3.667.385a2.664,2.664,0,0,0,1.043-3.379" transform="translate(-890.327 -18.609)" fill="#12263f"/>
            <g id="Grupo_1098750" data-name="Grupo 1098750" transform="translate(211.25 25.083)" style="mix-blend-mode: multiply;isolation: isolate">
              <g id="Grupo_1098749" data-name="Grupo 1098749">
                <g id="Grupo_1098748" data-name="Grupo 1098748" clip-path="url(#clip-path-7)">
                  <path id="Trazado_872953" data-name="Trazado 872953" d="M1176.818,143.3a8.411,8.411,0,0,0-2.239-3.836c.1,1.263,1.2,2.238,1.48,3.474a2.847,2.847,0,0,1-.487,2.3l-.1.126.81,4.156c-.012.159-.023.307-.034.457.255.267.514-.022.892-.194a3.948,3.948,0,0,0,.923-.478.538.538,0,0,0,.173-.216c.131-.379-.429-.851-.483-.9-.064-.312-.159-.784-.272-1.359-.453-2.317-.525-2.952-.668-3.539" transform="translate(-1174.579 -139.468)" fill="#d3dee2"/>
                </g>
              </g>
            </g>
            <g id="Grupo_1098753" data-name="Grupo 1098753" transform="translate(195.241 4.081)" style="mix-blend-mode: multiply;isolation: isolate">
              <g id="Grupo_1098752" data-name="Grupo 1098752">
                <g id="Grupo_1098751" data-name="Grupo 1098751" clip-path="url(#clip-path-8)">
                  <path id="Trazado_872954" data-name="Trazado 872954" d="M1096.163,23.624c.857.057,1.715.269,2.574.344a6.949,6.949,0,0,0,.884.013c-.137-.015-.278-.033-.432-.061-2.149-.392-2.277-1.192-3.68-1.23a5.161,5.161,0,0,0-3.56,1.555,18.039,18.039,0,0,0-2.242,3.291,8.657,8.657,0,0,1-2.61,2.978,4.508,4.508,0,0,0-1.168.837c-.717.877-.261,2.217.443,3.116a7.14,7.14,0,0,0,2.146,1.819,4.752,4.752,0,0,1-.934-2.258,3.613,3.613,0,0,1,.173-1.986,6.668,6.668,0,0,1,1.649-1.9,9.005,9.005,0,0,0,1.589-2.094c.629-1.145,1.046-2.476,2.065-3.3a6.448,6.448,0,0,1,1.5-.818,3.113,3.113,0,0,1,1.286-.351,1.823,1.823,0,0,1,.321.039" transform="translate(-1085.567 -22.688)" fill="#d3dee2"/>
                </g>
              </g>
            </g>
            <path id="Trazado_872955" data-name="Trazado 872955" d="M1130.18,107.691a11.187,11.187,0,0,0-6.039-.072,8.607,8.607,0,0,1,4.479,4.938,16.316,16.316,0,0,0,1.561-4.867" transform="translate(-921.963 -87.947)" fill="#ffd092"/>
            <g id="Grupo_1098756" data-name="Grupo 1098756" transform="translate(209.347 31.522)" style="mix-blend-mode: multiply;isolation: isolate">
              <g id="Grupo_1098755" data-name="Grupo 1098755">
                <g id="Grupo_1098754" data-name="Grupo 1098754" clip-path="url(#clip-path-9)">
                  <path id="Trazado_872956" data-name="Trazado 872956" d="M1165.13,183.163a23.3,23.3,0,0,1,.377-7.525c.178-.1.372-.227.572-.368a2.4,2.4,0,0,1-2.076.06,1.207,1.207,0,0,0,.728.62,17.9,17.9,0,0,0,.4,7.214" transform="translate(-1164.003 -175.27)" fill="#d3dee2"/>
                  <path id="Trazado_872957" data-name="Trazado 872957" d="M1171.953,224.857l-.01-.01.009.03c0-.006,0-.013,0-.02" transform="translate(-1170.514 -215.93)" fill="#d3dee2"/>
                </g>
              </g>
            </g>
            <path id="Trazado_872958" data-name="Trazado 872958" d="M1138.427,178.5l-2.263,10.619-7.721.243q.027.844.053,1.689l7.305-.23,18.266-.575,2.711-12.324Z" transform="translate(-925.49 -145.923)" fill="#00ffdf"/>
            <g id="Grupo_1098759" data-name="Grupo 1098759" transform="translate(202.951 32.554)" style="mix-blend-mode: multiply;isolation: isolate">
              <g id="Grupo_1098758" data-name="Grupo 1098758">
                <g id="Grupo_1098757" data-name="Grupo 1098757" clip-path="url(#clip-path-10)">
                  <path id="Trazado_872959" data-name="Trazado 872959" d="M1128.443,191.892l7.774-.246,2.211-10.616.744-.022-2.593,12.313-8.083.26q-.026-.844-.053-1.689" transform="translate(-1128.443 -181.008)" fill="#d3dee2"/>
                </g>
              </g>
            </g>
            <path id="Trazado_872960" data-name="Trazado 872960" d="M1886.038,677.866V621.059a1.775,1.775,0,0,1,1.775-1.775h18.637a1.775,1.775,0,0,1,1.775,1.775v56.807a1.775,1.775,0,0,1-1.775,1.775h-18.637a1.775,1.775,0,0,1-1.775-1.775" transform="translate(-1546.832 -507.905)" fill="#00ffdf"/>
            <path id="Trazado_872961" data-name="Trazado 872961" d="M1933.821,647.272a3.053,3.053,0,1,1,3.053-3.053,3.053,3.053,0,0,1-3.053,3.053" transform="translate(-1583.517 -525.851)" fill="#f0c518"/>
            <path id="Trazado_872962" data-name="Trazado 872962" d="M1977.266,798.089a1.774,1.774,0,1,1,1.774-1.774,1.774,1.774,0,0,1-1.774,1.774" transform="translate(-1620.197 -651.642)" fill="#5f97cc"/>
            <path id="Trazado_872963" data-name="Trazado 872963" d="M1977.266,823.163a1.774,1.774,0,1,1,1.774-1.774,1.774,1.774,0,0,1-1.774,1.774" transform="translate(-1620.197 -672.206)" fill="#5f97cc"/>
            <path id="Trazado_872964" data-name="Trazado 872964" d="M1977.266,848.236a1.774,1.774,0,1,1,1.774-1.774,1.774,1.774,0,0,1-1.774,1.774" transform="translate(-1620.197 -692.77)" fill="#5f97cc"/>
            <path id="Trazado_872965" data-name="Trazado 872965" d="M1977.266,873.31a1.774,1.774,0,1,1,1.774-1.774,1.774,1.774,0,0,1-1.774,1.774" transform="translate(-1620.197 -713.334)" fill="#5f97cc"/>
            <path id="Trazado_872966" data-name="Trazado 872966" d="M1977.266,898.383a1.774,1.774,0,1,1,1.774-1.774,1.774,1.774,0,0,1-1.774,1.774" transform="translate(-1620.197 -733.898)" fill="#5f97cc"/>
            <path id="Trazado_872967" data-name="Trazado 872967" d="M1977.266,923.457a1.774,1.774,0,1,1,1.774-1.774,1.774,1.774,0,0,1-1.774,1.774" transform="translate(-1620.197 -754.462)" fill="#5f97cc"/>
            <path id="Trazado_872968" data-name="Trazado 872968" d="M1952.192,798.089a1.774,1.774,0,1,1,1.774-1.774,1.774,1.774,0,0,1-1.774,1.774" transform="translate(-1599.633 -651.642)" fill="#5f97cc"/>
            <path id="Trazado_872969" data-name="Trazado 872969" d="M1952.192,823.163a1.774,1.774,0,1,1,1.774-1.774,1.774,1.774,0,0,1-1.774,1.774" transform="translate(-1599.633 -672.206)" fill="#5f97cc"/>
            <path id="Trazado_872970" data-name="Trazado 872970" d="M1952.192,848.236a1.774,1.774,0,1,1,1.774-1.774,1.774,1.774,0,0,1-1.774,1.774" transform="translate(-1599.633 -692.77)" fill="#5f97cc"/>
            <path id="Trazado_872971" data-name="Trazado 872971" d="M1952.192,873.31a1.774,1.774,0,1,1,1.774-1.774,1.774,1.774,0,0,1-1.774,1.774" transform="translate(-1599.633 -713.334)" fill="#5f97cc"/>
            <path id="Trazado_872972" data-name="Trazado 872972" d="M1952.192,898.383a1.774,1.774,0,1,1,1.774-1.774,1.774,1.774,0,0,1-1.774,1.774" transform="translate(-1599.633 -733.898)" fill="#5f97cc"/>
            <path id="Trazado_872973" data-name="Trazado 872973" d="M1952.192,923.457a1.774,1.774,0,1,1,1.774-1.774,1.774,1.774,0,0,1-1.774,1.774" transform="translate(-1599.633 -754.462)" fill="#5f97cc"/>
            <path id="Trazado_872974" data-name="Trazado 872974" d="M1927.119,798.089a1.774,1.774,0,1,1,1.774-1.774,1.774,1.774,0,0,1-1.774,1.774" transform="translate(-1579.069 -651.642)" fill="#5f97cc"/>
            <path id="Trazado_872975" data-name="Trazado 872975" d="M1927.119,823.163a1.774,1.774,0,1,1,1.774-1.774,1.774,1.774,0,0,1-1.774,1.774" transform="translate(-1579.069 -672.206)" fill="#5f97cc"/>
            <path id="Trazado_872976" data-name="Trazado 872976" d="M1927.119,848.236a1.774,1.774,0,1,1,1.774-1.774,1.774,1.774,0,0,1-1.774,1.774" transform="translate(-1579.069 -692.77)" fill="#5f97cc"/>
            <path id="Trazado_872977" data-name="Trazado 872977" d="M1927.119,873.31a1.774,1.774,0,1,1,1.774-1.774,1.774,1.774,0,0,1-1.774,1.774" transform="translate(-1579.069 -713.334)" fill="#5f97cc"/>
            <path id="Trazado_872978" data-name="Trazado 872978" d="M1927.119,898.383a1.774,1.774,0,1,1,1.774-1.774,1.774,1.774,0,0,1-1.774,1.774" transform="translate(-1579.069 -733.898)" fill="#5f97cc"/>
            <path id="Trazado_872979" data-name="Trazado 872979" d="M1927.119,923.457a1.774,1.774,0,1,1,1.774-1.774,1.774,1.774,0,0,1-1.774,1.774" transform="translate(-1579.069 -754.462)" fill="#5f97cc"/>
            <path id="Trazado_872980" data-name="Trazado 872980" d="M1902.045,798.089a1.774,1.774,0,1,1,1.774-1.774,1.774,1.774,0,0,1-1.774,1.774" transform="translate(-1558.505 -651.642)" fill="#5f97cc"/>
            <path id="Trazado_872981" data-name="Trazado 872981" d="M1902.045,823.163a1.774,1.774,0,1,1,1.774-1.774,1.774,1.774,0,0,1-1.774,1.774" transform="translate(-1558.505 -672.206)" fill="#5f97cc"/>
            <path id="Trazado_872982" data-name="Trazado 872982" d="M1902.045,848.236a1.774,1.774,0,1,1,1.774-1.774,1.774,1.774,0,0,1-1.774,1.774" transform="translate(-1558.505 -692.77)" fill="#5f97cc"/>
            <path id="Trazado_872983" data-name="Trazado 872983" d="M1902.045,873.31a1.774,1.774,0,1,1,1.774-1.774,1.774,1.774,0,0,1-1.774,1.774" transform="translate(-1558.505 -713.334)" fill="#5f97cc"/>
            <path id="Trazado_872984" data-name="Trazado 872984" d="M1902.045,898.383a1.774,1.774,0,1,1,1.774-1.774,1.774,1.774,0,0,1-1.774,1.774" transform="translate(-1558.505 -733.898)" fill="#5f97cc"/>
            <path id="Trazado_872985" data-name="Trazado 872985" d="M1902.045,923.457a1.774,1.774,0,1,1,1.774-1.774,1.774,1.774,0,0,1-1.774,1.774" transform="translate(-1558.505 -754.462)" fill="#5f97cc"/>
            <path id="Trazado_872986" data-name="Trazado 872986" d="M1919.481,761.647h-11.333a1.774,1.774,0,0,0,0,3.548h11.333a1.774,1.774,0,0,0,0-3.548" transform="translate(-1563.51 -624.664)" fill="#3a1d71"/>
            <path id="Trazado_872987" data-name="Trazado 872987" d="M1919.481,736.574h-11.333a1.774,1.774,0,1,0,0,3.548h11.333a1.774,1.774,0,0,0,0-3.548" transform="translate(-1563.51 -604.1)" fill="#3a1d71"/>
            <path id="Trazado_872988" data-name="Trazado 872988" d="M1919.481,711.5h-11.333a1.774,1.774,0,0,0,0,3.548h11.333a1.774,1.774,0,0,0,0-3.548" transform="translate(-1563.51 -583.536)" fill="#3a1d71"/>
            <path id="Trazado_872989" data-name="Trazado 872989" d="M1919.481,686.426h-11.333a1.774,1.774,0,0,0,0,3.548h11.333a1.774,1.774,0,0,0,0-3.548" transform="translate(-1563.51 -562.971)" fill="#3a1d71"/>
            <path id="Trazado_872990" data-name="Trazado 872990" d="M2145.671,864.668a1.279,1.279,0,0,0,.171-.636.868.868,0,0,0-.93-.7,1.957,1.957,0,0,0-1.132.556,10.71,10.71,0,0,0-2.662,4.474c-.766,2.026.245,2.7,1.648,1.1a20.786,20.786,0,0,0,2.905-4.793" transform="translate(-1755.819 -708.064)" fill="#a854f3"/>
            <path id="Trazado_872991" data-name="Trazado 872991" d="M2123.181,782.661c-2.84-2.212-8.684.72-11.867,2.317-.594.3-1.084.565-1.672.923a1.2,1.2,0,0,0-.243-.4,1.535,1.535,0,0,0-.985-.337,28.075,28.075,0,0,0-6.965.244,28.373,28.373,0,0,1-3.768.521,18.867,18.867,0,0,1-1.947-.085,7.226,7.226,0,0,0-2.086-.156.648.648,0,0,0-.36.264c-.572-.348-1.053-.609-1.635-.9-3.183-1.6-9.028-4.529-11.867-2.317a4.2,4.2,0,0,0-1.4,4.153c.6,2.368,3.681,3.488,5.562,4.142,4.078,1.418,8.491,2.719,12.461,3.8l-.375.253a1.147,1.147,0,0,0,.7,2.184c1.228-.294,2.8-.678,4.607-1.136,1.919.489,3.594.9,4.884,1.206a1.147,1.147,0,0,0,.7-2.184l-.524-.354c4.009-1.093,8.481-2.408,12.61-3.844,1.881-.654,4.958-1.774,5.562-4.142a4.2,4.2,0,0,0-1.4-4.153" transform="translate(-1704.498 -641.245)" fill="#a854f3"/>
            <path id="Trazado_872992" data-name="Trazado 872992" d="M2246.171,865.06a1.282,1.282,0,0,1-.17-.636.868.868,0,0,1,.93-.7,1.956,1.956,0,0,1,1.132.556,10.709,10.709,0,0,1,2.662,4.474c.766,2.026-.244,2.7-1.648,1.1a20.8,20.8,0,0,1-2.905-4.793" transform="translate(-1842.053 -708.385)" fill="#a854f3"/>
            <path id="Trazado_872993" data-name="Trazado 872993" d="M2178.573,516.764c-2.734.6-6.542-1.194-8.548,1.786-1.458,2.167-1.968,6.985.368,8.633.593.418,1.275-.353.965-1.006a8.139,8.139,0,0,1-.579-3.8.552.552,0,0,0,.169.093c.87.272,1.7-.351,2.553-.553a9.386,9.386,0,0,1,1.914-.249c.1.047.2.091.293.129a4.1,4.1,0,0,0,4.306-.381c2.235-1.667,1.417-5.289-1.443-4.656" transform="translate(-1778.727 -423.763)" fill="#473d34"/>
            <path id="Trazado_872994" data-name="Trazado 872994" d="M2173.021,541.078a3.882,3.882,0,0,0-3.376.921c-.144.115-.285.234-.426.351a4.75,4.75,0,0,0-.148,1.16v1.935a1.689,1.689,0,1,0,.337,3.2,4.8,4.8,0,0,0,9.271-1.752v-3.38a4.762,4.762,0,0,0-.767-2.588,9.16,9.16,0,0,1-4.891.156" transform="translate(-1777.296 -443.637)" fill="#ffd092"/>
            <g id="Grupo_1098762" data-name="Grupo 1098762" transform="translate(389.745 93.003)" style="mix-blend-mode: multiply;isolation: isolate">
              <g id="Grupo_1098761" data-name="Grupo 1098761">
                <g id="Grupo_1098760" data-name="Grupo 1098760" clip-path="url(#clip-path-11)">
                  <path id="Trazado_872995" data-name="Trazado 872995" d="M2177.084,530.921c-.211.076-.427.14-.644.2a5.655,5.655,0,0,1-2.118.235,4.509,4.509,0,0,1-2.94-1.926,6.71,6.71,0,0,1-.754-2.9,25.883,25.883,0,0,1-.2-3.927,3.256,3.256,0,0,1,1.672-.773,7.775,7.775,0,0,1,2.021.275,5.1,5.1,0,0,0,2.52-.4,7.5,7.5,0,0,1-1.9-.1,13.524,13.524,0,0,0-2.6-.6,3.61,3.61,0,0,0-1.61.431,5.515,5.515,0,0,1,1.754-3.562,4.817,4.817,0,0,1,1.151-.738c-1.85-.095-3.666,0-4.851,1.759a8.556,8.556,0,0,0-.733,7.235,1.684,1.684,0,0,0,1.548,2.984,4.782,4.782,0,0,0,7.675,1.809" transform="translate(-2167.041 -517.11)" fill="#d3dee2"/>
                </g>
              </g>
            </g>
            <g id="Grupo_1098765" data-name="Grupo 1098765" transform="translate(406.947 140.619)" style="mix-blend-mode: multiply;isolation: isolate">
              <g id="Grupo_1098764" data-name="Grupo 1098764">
                <g id="Grupo_1098763" data-name="Grupo 1098763" clip-path="url(#clip-path-12)">
                  <path id="Trazado_872996" data-name="Trazado 872996" d="M2274.422,782.661c-2.656-2.069-7.941.362-11.218,1.992a6.675,6.675,0,0,0-.36,4.187l1.564-1.957a4.281,4.281,0,0,1,.543-.6,4.381,4.381,0,0,1,.865-.531,18.649,18.649,0,0,0,2.756-1.651,9.087,9.087,0,0,1,1.718-1.184,4.91,4.91,0,0,1,1.522-.353,5.464,5.464,0,0,1,2.794.342c.07.032.137.072.205.109a3.44,3.44,0,0,0-.391-.359" transform="translate(-2262.687 -781.864)" fill="#d3dee2"/>
                </g>
              </g>
            </g>
            <g id="Grupo_1098768" data-name="Grupo 1098768" transform="translate(374.742 140.691)" style="mix-blend-mode: multiply;isolation: isolate">
              <g id="Grupo_1098767" data-name="Grupo 1098767">
                <g id="Grupo_1098766" data-name="Grupo 1098766" clip-path="url(#clip-path-13)">
                  <path id="Trazado_872997" data-name="Trazado 872997" d="M2094.951,789.18a18.39,18.39,0,0,0-.172-4.08.714.714,0,0,0-.143-.386.74.74,0,0,0-.436-.176,26.075,26.075,0,0,1-3.73-.93,5.232,5.232,0,0,1-2.23-1.223,5.169,5.169,0,0,0-4.074.674,3.514,3.514,0,0,0-.545.536,3.644,3.644,0,0,1,2.837-.28,1.964,1.964,0,0,1,.544.257,3.805,3.805,0,0,1,.5.5c1.146,1.206,2.95,1.483,4.614,1.532a19.069,19.069,0,0,0,2.833,3.58" transform="translate(-2083.622 -782.263)" fill="#d3dee2"/>
                </g>
              </g>
            </g>
            <path id="Trazado_872998" data-name="Trazado 872998" d="M2128.057,622.942a30.276,30.276,0,0,0-8.1-9.554c-2.563-1.836-5.084-3.643-8.69-3.766-4.083-.14-7.074,1.962-9.642,3.766a26.506,26.506,0,0,0-8.1,9.554c-1.907,3.436-3.308,7.315-2.967,11.23s2.754,7.825,6.494,9.034a9.752,9.752,0,0,0,5.453.036c.071.563.133,1.076.186,1.528a36.274,36.274,0,0,0,17.147-.087c.056-.371.118-.785.186-1.237a9.326,9.326,0,0,0,4.5-.24c3.74-1.209,6.153-5.118,6.494-9.034s-1.06-7.794-2.967-11.23m-28.916,14.633a4.341,4.341,0,0,1-1.091-2.262,7.141,7.141,0,0,1,.927-5.072,8.83,8.83,0,0,1,1.042-1.343c.293,1.587.814,3.357,1.635,8.423q.113.7.213,1.352a4.218,4.218,0,0,1-2.727-1.1m24.394-2.262a4.341,4.341,0,0,1-1.091,2.262,3.683,3.683,0,0,1-1.685.929l.034-.229c.589-4.014,1.009-6.879,1.263-8.8a7.86,7.86,0,0,1,.551.77,7.142,7.142,0,0,1,.927,5.072" transform="translate(-1714.528 -499.975)" fill="#d9f2ff"/>
            <g id="Grupo_1098771" data-name="Grupo 1098771" transform="translate(375.981 109.64)" style="mix-blend-mode: multiply;isolation: isolate">
              <g id="Grupo_1098770" data-name="Grupo 1098770">
                <g id="Grupo_1098769" data-name="Grupo 1098769" clip-path="url(#clip-path-14)">
                  <path id="Trazado_872999" data-name="Trazado 872999" d="M2111.268,609.622c-4.083-.14-7.074,1.962-9.641,3.766a26.506,26.506,0,0,0-8.1,9.554c-1.907,3.436-3.308,7.315-2.967,11.23s2.754,7.825,6.494,9.034a9.432,9.432,0,0,0,4.768.192c-.12-.3-.26-.6-.4-.879l-2.757-5.556a4.187,4.187,0,0,1-.34-.685l-.048-.1a27.941,27.941,0,0,0-.071,4.629c-3.728-1.206-5.968-5.313-5.966-9.231s1.836-7.618,4.1-10.813a31.525,31.525,0,0,1,9.85-9.215,18.115,18.115,0,0,1,3.669-1.564,17.59,17.59,0,0,1,1.905-.333c-.166-.013-.331-.026-.5-.032" transform="translate(-2090.51 -609.615)" fill="#d3dee2"/>
                </g>
              </g>
            </g>
            <g id="Grupo_1098774" data-name="Grupo 1098774" transform="translate(407.012 126.205)" style="mix-blend-mode: multiply;isolation: isolate">
              <g id="Grupo_1098773" data-name="Grupo 1098773">
                <g id="Grupo_1098772" data-name="Grupo 1098772" clip-path="url(#clip-path-15)">
                  <path id="Trazado_873000" data-name="Trazado 873000" d="M2263.74,701.718l-.141,3.34a7.8,7.8,0,0,1,.515.723,7.145,7.145,0,0,1,.927,5.072,4.343,4.343,0,0,1-1.091,2.262,3.2,3.2,0,0,1-.407.341,4.925,4.925,0,0,0-.5,1.541,6.232,6.232,0,0,0,3.709-2.523,6.678,6.678,0,0,0,.453-5.839,13.254,13.254,0,0,0-3.468-4.916" transform="translate(-2263.047 -701.718)" fill="#d3dee2"/>
                </g>
              </g>
            </g>
            <g id="Grupo_1098777" data-name="Grupo 1098777" transform="translate(385.489 127.141)" style="mix-blend-mode: multiply;isolation: isolate">
              <g id="Grupo_1098776" data-name="Grupo 1098776">
                <g id="Grupo_1098775" data-name="Grupo 1098775" clip-path="url(#clip-path-16)">
                  <path id="Trazado_873001" data-name="Trazado 873001" d="M2144.92,706.925l-1.537,1.783c.222,1.2.574,2.507,1.088,5.264a1.943,1.943,0,0,0,.687.272l1.593.4c-.352-1-.691-2.1-.992-3.293a37.721,37.721,0,0,1-.838-4.427" transform="translate(-2143.383 -706.925)" fill="#d3dee2"/>
                </g>
              </g>
            </g>
            <g id="Grupo_1098780" data-name="Grupo 1098780" transform="translate(391.315 147.718)" style="mix-blend-mode: multiply;isolation: isolate">
              <g id="Grupo_1098779" data-name="Grupo 1098779">
                <g id="Grupo_1098778" data-name="Grupo 1098778" clip-path="url(#clip-path-17)">
                  <path id="Trazado_873002" data-name="Trazado 873002" d="M2182.357,824.384l5.694-3.047-12.279.015,6.585,3.032" transform="translate(-2175.771 -821.337)" fill="#d3dee2"/>
                </g>
              </g>
            </g>
            <path id="Trazado_873003" data-name="Trazado 873003" d="M2196.624,637.6l-.91,1.06.634.793q-.8,10.271-1.608,20.543l1.781,2.564,1.939-2.68q-.7-10.2-1.409-20.4l.792-.861-1.219-1.015" transform="translate(-1800.013 -522.929)" fill="#4f6772"/>
            <path id="Trazado_873004" data-name="Trazado 873004" d="M2128.145,741.436l2.655,15.056h22.385l2.655-15.056Z" transform="translate(-1745.396 -608.088)" fill="#00ffdf"/>
            <path id="Trazado_873005" data-name="Trazado 873005" d="M1275.572,71.251a6.177,6.177,0,1,0-6.177-6.177,6.177,6.177,0,0,0,6.177,6.177" transform="translate(-1041.093 -48.305)" fill="#8722e2"/>
            <path id="Trazado_873006" data-name="Trazado 873006" d="M1378.285,109.313H1369.3c-9.042,0-13.305-5.107-17.428-10.045-4.011-4.8-7.8-9.342-15.909-9.342V88.063c8.982,0,13.23,5.089,17.34,10.011,4.025,4.822,7.828,9.376,16,9.376h8.988Z" transform="translate(-1095.685 -72.225)" fill="#8722e2"/>
            <path id="Trazado_873007" data-name="Trazado 873007" d="M1335.959,41.62V39.757c4.887,0,7.181-2.427,9.61-5,2.6-2.752,5.292-5.6,11.018-5.6h5.562v1.863h-5.562c-4.924,0-7.227,2.436-9.665,5.014-2.593,2.743-5.275,5.579-10.964,5.579" transform="translate(-1095.685 -23.919)" fill="#8722e2"/>
            <path id="Trazado_873008" data-name="Trazado 873008" d="M1453.415,12.353a6.177,6.177,0,1,0-6.177-6.177,6.177,6.177,0,0,0,6.177,6.177" transform="translate(-1186.951)" fill="#8722e2"/>
            <path id="Trazado_873009" data-name="Trazado 873009" d="M1545.132,179.045a6.177,6.177,0,1,0-6.177-6.177,6.177,6.177,0,0,0,6.177,6.177" transform="translate(-1262.172 -136.712)" fill="#8722e2"/>
            <path id="Trazado_873010" data-name="Trazado 873010" d="M1685.263,12.353a6.177,6.177,0,1,0-6.177-6.177,6.177,6.177,0,0,0,6.177,6.177" transform="translate(-1377.1)" fill="#8722e2"/>
            <rect id="Rectángulo_400916" data-name="Rectángulo 400916" width="41.698" height="1.863" transform="translate(266.464 5.245)" fill="#8722e2"/>
            <path id="Trazado_873011" data-name="Trazado 873011" d="M292.182,283.157a.509.509,0,0,0-.32.222.5.5,0,0,0-.068.382l3.518,16.115H278.978a.55.55,0,0,0-.25-.014.531.531,0,0,0-.423.521,17.637,17.637,0,1,0,33.1-8.471.48.48,0,0,0-.021-.052.5.5,0,0,0-.056-.081,17.765,17.765,0,0,0-4.785-5.48.482.482,0,0,0-.154-.114,17.542,17.542,0,0,0-10.448-3.439,17.772,17.772,0,0,0-3.761.411" transform="translate(-228.252 -231.894)" fill="#f0c518"/>
            <path id="Trazado_873012" data-name="Trazado 873012" d="M265.562,262.982A17.728,17.728,0,0,0,251.686,280.2h0a.538.538,0,0,0,.271.449.505.505,0,0,0,.253.068h17.113a.507.507,0,0,0,.508-.508.5.5,0,0,0-.012-.108l-3.653-16.73a.507.507,0,0,0-.6-.388" transform="translate(-206.42 -215.674)" fill="#3a1d71"/>
            <path id="Trazado_873013" data-name="Trazado 873013" d="M61.579,453.39a.921.921,0,0,0-.854,0c-10.164,7.093-18,8.355-23.371,8.125-3.707-.158-8.991-1.144-16.363.607A25.885,25.885,0,0,0,12.978,465c-9.186,5.44-11.8,16.1-12.338,18.294A32.257,32.257,0,0,0,0,486.676a26.812,26.812,0,0,0,16.777,7.356,1.237,1.237,0,0,0,.7-.742,1.222,1.222,0,0,0-.3-1.215,28.94,28.94,0,0,1-7.991-6.782,21.382,21.382,0,0,1,4.919-5.221q1.6,4.1,3.348,8.312,1.106,2.658,2.226,5.24c-1.352,9.318-2.406,19.432-2.949,30.257-.317,6.317-.436,12.393-.4,18.2.006.031.138.651.6.807a1.173,1.173,0,0,0,1.349-.958q2.255-7.4,4.382-15.322,2.5-9.354,4.48-18.2a181.52,181.52,0,0,0,5.532,17.433c2.112,5.649,4.357,10.8,6.6,15.431a.937.937,0,0,0,1.2.656.869.869,0,0,0,.3-.908c-.414-7.17-1.112-14.843-2.2-22.945-.989-7.371-2.2-14.313-3.534-20.806l1.254-.1a34.1,34.1,0,0,1,.427-12.379c.137-.56.392-1.508.785-3.17q.965-4.079,1.655-7.894a27.078,27.078,0,0,0,13.617-5.655A27.621,27.621,0,0,0,61.992,454.3a.892.892,0,0,0-.414-.911" transform="translate(0 -371.757)" fill="#a854f3"/>
            <path id="Trazado_873014" data-name="Trazado 873014" d="M340.766,410.111c-.634.326-.78,1.207-.928,2.1a3.376,3.376,0,0,0-.084,1.163,3.009,3.009,0,0,0,2.211,2.16,3.127,3.127,0,0,0,2.912-.694,2.049,2.049,0,0,0,.754-1.465c-.008-.171-.04-.114-.562-1.3a1.879,1.879,0,0,0-.534-.851,1.352,1.352,0,0,0-.618-.255c.445-.794.842-1.4,1.117-1.806.551-.807.976-1.321.8-1.74a.566.566,0,0,0-.337-.312c-.39-.12-.84.331-1.063.553-.651.646-1.487,1.439-2.535,2.426a1.436,1.436,0,0,0-1.125.028" transform="translate(-278.629 -333.87)" fill="#ffd092"/>
            <path id="Trazado_873015" data-name="Trazado 873015" d="M78.82,960.392a9.421,9.421,0,0,0-1.97,2.061,2.981,2.981,0,0,0-.829,2.124,1.388,1.388,0,0,0,1.257-.379,14.8,14.8,0,0,0,2.128-1.946c.373-.414,1.131-1.286.828-1.912-.292-.6-1.018-.229-1.415.052" transform="translate(-62.334 -787.357)" fill="#4f6772"/>
            <path id="Trazado_873016" data-name="Trazado 873016" d="M224.89,953.483a9.428,9.428,0,0,1,1.97,2.061,2.981,2.981,0,0,1,.829,2.124,1.389,1.389,0,0,1-1.257-.379,14.791,14.791,0,0,1-2.128-1.946c-.373-.414-1.131-1.286-.828-1.912.292-.6,1.018-.229,1.415.052" transform="translate(-183.226 -781.69)" fill="#4f6772"/>
            <path id="Trazado_873017" data-name="Trazado 873017" d="M110.468,409.757a2.668,2.668,0,0,1,.072-.756,1.855,1.855,0,0,1,.958-1.072,3.716,3.716,0,0,1,1.428-.411c3.333-.247,3.473,0,5.887-.047a2.205,2.205,0,0,1,1.308.231c.415.258.763.751.987,2.14a11.914,11.914,0,0,1-.043,3.945,1.512,1.512,0,0,1-.222.624,1.9,1.9,0,0,1-.956.7,11.156,11.156,0,0,1-2.591.631c-1.157.183-2.317.357-3.484.464a7.7,7.7,0,0,1-2.236-.039c-.3-.061-.557-.087-.7-.338a3.806,3.806,0,0,1-.144-1.205,47.386,47.386,0,0,1-.264-4.863" transform="translate(-90.6 -334.135)" fill="#12263f"/>
            <path id="Trazado_873018" data-name="Trazado 873018" d="M113.825,419a9.99,9.99,0,0,1-3.35,2.916c-1.379.75-3.469,1.706-5.158,1.544v1a1.752,1.752,0,1,0-.353,3.471,1.713,1.713,0,0,0,.7-.15,4.936,4.936,0,0,0,9.545-1.82V422.45a4.992,4.992,0,0,0-1.384-3.45" transform="translate(-84.661 -343.642)" fill="#ffd092"/>
            <g id="Grupo_1098783" data-name="Grupo 1098783" transform="translate(18.566 73.378)" style="mix-blend-mode: multiply;isolation: isolate">
              <g id="Grupo_1098782" data-name="Grupo 1098782">
                <g id="Grupo_1098781" data-name="Grupo 1098781" clip-path="url(#clip-path-18)">
                  <path id="Trazado_873019" data-name="Trazado 873019" d="M108.492,420.927a3.535,3.535,0,0,1-.821-1.467,21.316,21.316,0,0,1-.827-4.756,11.29,11.29,0,0,0,1.615-.559,11.49,11.49,0,0,0,3.057-1.956,14.774,14.774,0,0,1-4.783,1.841,18.414,18.414,0,0,1-.185-4.855,1.892,1.892,0,0,1,.267-.937,1.044,1.044,0,0,1,.267-.248l-.1.007a3.717,3.717,0,0,0-1.428.411,1.856,1.856,0,0,0-.958,1.072,2.675,2.675,0,0,0-.072.756,47.283,47.283,0,0,0,.264,4.863c.009.086.012.195.015.312a1.75,1.75,0,0,0,.156,3.491,1.713,1.713,0,0,0,.7-.151,4.962,4.962,0,0,0,4.6,3.171,4.855,4.855,0,0,0,.679-.053,5.733,5.733,0,0,1-.7-.078,3.2,3.2,0,0,1-1.748-.864" transform="translate(-103.226 -407.991)" fill="#d3dee2"/>
                </g>
              </g>
            </g>
            <path id="Trazado_873020" data-name="Trazado 873020" d="M105.865,497.778c-.558.129-1.216.292-1.216.292-.4.1-.782.195-1.162.3q1.546,2.882,3.33,5.895c1.824,3.07,3.668,5.932,5.5,8.591,1.29-2.973,2.562-6.112,3.79-9.412q1.243-3.341,2.3-6.542a45,45,0,0,0-8.079.1c-1.7.2-3.731.616-4.458.784" transform="translate(-84.875 -407.416)" fill="#daf1fd"/>
            <path id="Trazado_873021" data-name="Trazado 873021" d="M145.138,522.781l-1.483-9.388.979-.62-1.713-1.6-1.282,1.762,1,.5q-.279,4.77-.559,9.54a1.812,1.812,0,0,0,1.482,1.976,1.831,1.831,0,0,0,1.58-2.173" transform="translate(-116.165 -419.239)" fill="#4f6772"/>
            <g id="Grupo_1098786" data-name="Grupo 1098786" transform="translate(0 89.411)" style="mix-blend-mode: multiply;isolation: isolate">
              <g id="Grupo_1098785" data-name="Grupo 1098785">
                <g id="Grupo_1098784" data-name="Grupo 1098784" clip-path="url(#clip-path-19)">
                  <path id="Trazado_873022" data-name="Trazado 873022" d="M27.353,497.138a37.4,37.4,0,0,0-6.363.951,25.883,25.883,0,0,0-8.012,2.884c-9.186,5.44-11.8,16.1-12.338,18.294A32.21,32.21,0,0,0,0,522.646a27.11,27.11,0,0,0,5.282,3.919A16.394,16.394,0,0,1,1.3,522.492a30.652,30.652,0,0,1,7.053-15.084,30.558,30.558,0,0,1,9.064-6.975,32.834,32.834,0,0,1,9.937-3.295" transform="translate(0 -497.138)" fill="#d3dee2"/>
                </g>
              </g>
            </g>
            <g id="Grupo_1098789" data-name="Grupo 1098789" transform="translate(14.106 107.335)" style="mix-blend-mode: multiply;isolation: isolate">
              <g id="Grupo_1098788" data-name="Grupo 1098788">
                <g id="Grupo_1098787" data-name="Grupo 1098787" clip-path="url(#clip-path-20)">
                  <path id="Trazado_873023" data-name="Trazado 873023" d="M85.462,611.419q-1.058-2.325-2.081-4.837c-1.377-3.394-2.533-6.668-3.507-9.781l-1.442.979q1.6,4.1,3.348,8.312,1.106,2.658,2.226,5.24c.476.033.964.061,1.456.086" transform="translate(-78.433 -596.801)" fill="#d3dee2"/>
                </g>
              </g>
            </g>
            <g id="Grupo_1098792" data-name="Grupo 1098792" transform="translate(39.159 82.647)" style="mix-blend-mode: multiply;isolation: isolate">
              <g id="Grupo_1098791" data-name="Grupo 1098791">
                <g id="Grupo_1098790" data-name="Grupo 1098790" clip-path="url(#clip-path-21)">
                  <path id="Trazado_873024" data-name="Trazado 873024" d="M235.317,467.618a25.4,25.4,0,0,1-12.53,8.148,23.3,23.3,0,0,1-4.589.776l-.468,2.317a27.071,27.071,0,0,0,13.617-5.655,27.605,27.605,0,0,0,9.185-13.674,53.851,53.851,0,0,1-5.216,8.088" transform="translate(-217.73 -459.53)" fill="#d3dee2"/>
                </g>
              </g>
            </g>
            <g id="Grupo_1098795" data-name="Grupo 1098795" transform="translate(61.101 76.119)" style="mix-blend-mode: multiply;isolation: isolate">
              <g id="Grupo_1098794" data-name="Grupo 1098794">
                <g id="Grupo_1098793" data-name="Grupo 1098793" clip-path="url(#clip-path-22)">
                  <path id="Trazado_873025" data-name="Trazado 873025" d="M342.789,428.883a3.362,3.362,0,0,1-2.009-1.623,3.41,3.41,0,0,1,.059-3.228.974.974,0,0,1,.245-.305c.188-.141.681-.194.795-.4a1.432,1.432,0,0,0-1.113.031c-.634.326-.78,1.207-.928,2.1a3.376,3.376,0,0,0-.084,1.163,3.008,3.008,0,0,0,2.211,2.159,3.158,3.158,0,0,0,.825.1" transform="translate(-339.73 -423.234)" fill="#d3dee2"/>
                </g>
              </g>
            </g>
            <g id="Grupo_1098798" data-name="Grupo 1098798" transform="translate(16.325 121.867)" style="mix-blend-mode: multiply;isolation: isolate">
              <g id="Grupo_1098797" data-name="Grupo 1098797">
                <g id="Grupo_1098796" data-name="Grupo 1098796" clip-path="url(#clip-path-23)">
                  <path id="Trazado_873026" data-name="Trazado 873026" d="M102.619,682.663l.26-3.42-1.039,2.295c-.847.09-1.759.153-2.728.173-.616.013-1.208.008-1.775-.011A10.907,10.907,0,0,0,97,680.1a3.022,3.022,0,0,0-.665-1.4,2.2,2.2,0,0,0-.554-.413q-.271-.159-.569-.318c-.246-.13-.486-.248-.718-.355-.123-.008-.251-.014-.374-.022-1.352,9.318-2.406,19.432-2.949,30.257-.317,6.317-.436,12.392-.4,18.2.006.031.138.651.6.807a.769.769,0,0,0,.4.018q.2-5.092.483-10.277Q93.211,699.2,95,682.88q2.042.026,4.243-.043,1.74-.057,3.377-.173" transform="translate(-90.769 -677.598)" fill="#d3dee2"/>
                </g>
              </g>
            </g>
            <path id="Trazado_873027" data-name="Trazado 873027" d="M99.615,673.24a.423.423,0,0,0,.365.487,32.061,32.061,0,0,0,4,1.07,12.125,12.125,0,0,0-.293-2.243,3.622,3.622,0,0,0-.863-2.063,2.523,2.523,0,0,0-1.545-.616l-.576-1.288a1.1,1.1,0,0,0-.481.232c-.322.275-.326.663-.43,1.358a17.011,17.011,0,0,0-.177,3.063" transform="translate(-81.692 -548.342)" fill="#ffd092"/>
            <g id="Grupo_1098801" data-name="Grupo 1098801" transform="translate(27.142 134.097)" style="mix-blend-mode: multiply;isolation: isolate">
              <g id="Grupo_1098800" data-name="Grupo 1098800">
                <g id="Grupo_1098799" data-name="Grupo 1098799" clip-path="url(#clip-path-24)">
                  <path id="Trazado_873028" data-name="Trazado 873028" d="M159.536,770.981a195.492,195.492,0,0,1-7.507-23.575q.084-.9.168-1.806l-.59,1.179-.692,1.382c.674,2.567,1.483,5.417,2.455,8.495,1.628,5.159,1.588,4.954,3.078,8.938,2.112,5.649,4.357,10.8,6.6,15.431a1,1,0,0,0,1.059.708c-1.562-3.39-3.095-6.974-4.568-10.752" transform="translate(-150.915 -745.6)" fill="#d3dee2"/>
                </g>
              </g>
            </g>
            <path id="Trazado_873029" data-name="Trazado 873029" d="M804.079,526.252a6.633,6.633,0,1,0-6.633,6.633,6.633,6.633,0,0,0,6.633-6.633" transform="translate(-648.584 -426.165)" fill="#fff"/>
            <g id="Grupo_1098804" data-name="Grupo 1098804" transform="translate(142.22 93.454)" opacity="0.29">
              <g id="Grupo_1098803" data-name="Grupo 1098803">
                <g id="Grupo_1098802" data-name="Grupo 1098802" clip-path="url(#clip-path-25)">
                  <path id="Trazado_873030" data-name="Trazado 873030" d="M797.471,533.03a6.705,6.705,0,1,0-6.705-6.705,6.713,6.713,0,0,0,6.705,6.705" transform="translate(-790.766 -519.619)" fill="#5893eb"/>
                </g>
              </g>
            </g>
            <g id="Grupo_1098807" data-name="Grupo 1098807" transform="translate(145.88 95.749)" opacity="0.29">
              <g id="Grupo_1098806" data-name="Grupo 1098806">
                <g id="Grupo_1098805" data-name="Grupo 1098805" clip-path="url(#clip-path-26)">
                  <path id="Trazado_873031" data-name="Trazado 873031" d="M813.975,538.1a2.859,2.859,0,1,0-2.859-2.859,2.863,2.863,0,0,0,2.859,2.859" transform="translate(-811.116 -532.378)" fill="#5893eb"/>
                </g>
              </g>
            </g>
            <g id="Grupo_1098810" data-name="Grupo 1098810" transform="translate(143.927 102.634)" opacity="0.29">
              <g id="Grupo_1098809" data-name="Grupo 1098809">
                <g id="Grupo_1098808" data-name="Grupo 1098808" clip-path="url(#clip-path-27)">
                  <path id="Trazado_873032" data-name="Trazado 873032" d="M800.256,572.647a6.692,6.692,0,0,0,9.9.11,7.012,7.012,0,0,0-9.9-.11" transform="translate(-800.256 -570.658)" fill="#5893eb"/>
                </g>
              </g>
            </g>
            <path id="Trazado_873033" data-name="Trazado 873033" d="M708.844,154.935a11.649,11.649,0,1,0-11.649,11.649,11.649,11.649,0,0,0,11.649-11.649" transform="translate(-562.25 -117.516)" fill="#fff"/>
            <g id="Grupo_1098813" data-name="Grupo 1098813" transform="translate(123.281 25.77)" opacity="0.29">
              <g id="Grupo_1098812" data-name="Grupo 1098812">
                <g id="Grupo_1098811" data-name="Grupo 1098811" clip-path="url(#clip-path-28)">
                  <path id="Trazado_873034" data-name="Trazado 873034" d="M697.238,166.838a11.776,11.776,0,1,0-11.776-11.776,11.789,11.789,0,0,0,11.776,11.776" transform="translate(-685.462 -143.286)" fill="#e3dfeb"/>
                </g>
              </g>
            </g>
            <g id="Grupo_1098816" data-name="Grupo 1098816" transform="translate(129.709 29.8)" opacity="0.29">
              <g id="Grupo_1098815" data-name="Grupo 1098815">
                <g id="Grupo_1098814" data-name="Grupo 1098814" clip-path="url(#clip-path-29)">
                  <path id="Trazado_873035" data-name="Trazado 873035" d="M726.222,175.737a5.022,5.022,0,1,0-5.022-5.022,5.027,5.027,0,0,0,5.022,5.022" transform="translate(-721.2 -165.694)" fill="#5893eb"/>
                </g>
              </g>
            </g>
            <g id="Grupo_1098819" data-name="Grupo 1098819" transform="translate(126.279 41.891)" opacity="0.29">
              <g id="Grupo_1098818" data-name="Grupo 1098818">
                <g id="Grupo_1098817" data-name="Grupo 1098817" clip-path="url(#clip-path-30)">
                  <path id="Trazado_873036" data-name="Trazado 873036" d="M702.13,236.416a11.752,11.752,0,0,0,17.379.193,12.314,12.314,0,0,0-17.379-.193" transform="translate(-702.13 -232.922)" fill="#5893eb"/>
                </g>
              </g>
            </g>
            <path id="Trazado_873037" data-name="Trazado 873037" d="M618.792,389.842a8.342,8.342,0,1,0-8.343,8.343,8.343,8.343,0,0,0,8.343-8.343" transform="translate(-493.817 -312.887)" fill="#fff"/>
            <g id="Grupo_1098822" data-name="Grupo 1098822" transform="translate(108.279 68.613)" opacity="0.29">
              <g id="Grupo_1098821" data-name="Grupo 1098821">
                <g id="Grupo_1098820" data-name="Grupo 1098820" clip-path="url(#clip-path-31)">
                  <path id="Trazado_873038" data-name="Trazado 873038" d="M610.481,398.367a8.434,8.434,0,1,0-8.434-8.434,8.443,8.443,0,0,0,8.434,8.434" transform="translate(-602.047 -381.499)" fill="#5893eb"/>
                </g>
              </g>
            </g>
            <g id="Grupo_1098825" data-name="Grupo 1098825" transform="translate(112.882 71.499)" opacity="0.29">
              <g id="Grupo_1098824" data-name="Grupo 1098824">
                <g id="Grupo_1098823" data-name="Grupo 1098823" clip-path="url(#clip-path-32)">
                  <path id="Trazado_873039" data-name="Trazado 873039" d="M631.238,404.741a3.6,3.6,0,1,0-3.6-3.6,3.6,3.6,0,0,0,3.6,3.6" transform="translate(-627.642 -397.548)" fill="#5893eb"/>
                </g>
              </g>
            </g>
            <g id="Grupo_1098828" data-name="Grupo 1098828" transform="translate(110.426 80.159)" opacity="0.29">
              <g id="Grupo_1098827" data-name="Grupo 1098827">
                <g id="Grupo_1098826" data-name="Grupo 1098826" clip-path="url(#clip-path-33)">
                  <path id="Trazado_873040" data-name="Trazado 873040" d="M613.984,448.2a8.417,8.417,0,0,0,12.447.138,8.819,8.819,0,0,0-12.447-.138" transform="translate(-613.984 -445.695)" fill="#5893eb"/>
                </g>
              </g>
            </g>
            <path id="Trazado_873041" data-name="Trazado 873041" d="M2312.3,865.139h0a2.4,2.4,0,0,0-2.4,2.4V878.46a2.4,2.4,0,0,0,4.8,0V867.538a2.4,2.4,0,0,0-2.4-2.4" transform="translate(-1894.459 -709.543)" fill="#00ffdf"/>
            <path id="Trazado_873042" data-name="Trazado 873042" d="M2355.78,835.491h0a2.4,2.4,0,0,0-2.4,2.4v16.254a2.4,2.4,0,0,0,4.8,0V837.891a2.4,2.4,0,0,0-2.4-2.4" transform="translate(-1930.122 -685.227)" fill="#00ffdf"/>
            <path id="Trazado_873043" data-name="Trazado 873043" d="M2399.265,865.139h0a2.4,2.4,0,0,0-2.4,2.4V878.46a2.4,2.4,0,0,0,4.8,0V867.538a2.4,2.4,0,0,0-2.4-2.4" transform="translate(-1965.786 -709.543)" fill="#00ffdf"/>
            <path id="Trazado_873044" data-name="Trazado 873044" d="M2442.749,793.983h0a2.4,2.4,0,0,0-2.4,2.4V820.1a2.4,2.4,0,0,0,4.8,0V796.383a2.4,2.4,0,0,0-2.4-2.4" transform="translate(-2001.449 -651.184)" fill="#00ffdf"/>
            <path id="Trazado_873045" data-name="Trazado 873045" d="M2486.233,805.843h0a2.4,2.4,0,0,0-2.4,2.4v21.586a2.4,2.4,0,1,0,4.8,0V808.242a2.4,2.4,0,0,0-2.4-2.4" transform="translate(-2037.114 -660.911)" fill="#00ffdf"/>
            <path id="Trazado_873046" data-name="Trazado 873046" d="M873.7,861.676H845.883l3.337,16.215c0,1.446,4.669,2.619,10.429,2.619s10.429-1.172,10.429-2.619l3.618-16.215" transform="translate(-693.75 -706.703)" fill="#f2e5fd"/>
            <path id="Trazado_873047" data-name="Trazado 873047" d="M873.7,849.735c0,1.446-6.226,2.619-13.907,2.619s-13.907-1.172-13.907-2.619,6.226-2.619,13.907-2.619,13.907,1.172,13.907,2.619" transform="translate(-693.75 -694.761)" fill="#f7eefe"/>
            <path id="Trazado_873048" data-name="Trazado 873048" d="M838.712,643.454c-.187-1-.98-4.429-3.635-5.7-3.487-1.674-8.169,1.173-10.177,2.984a39.957,39.957,0,0,0-9.892,13.79c-.1-3.7-.237-7.57-2.066-10.787s-5.934-5.465-9.312-3.954c-3.948,1.766-4.535,7.075-4.213,11.389a85.491,85.491,0,0,0,1.552,11.032,11.119,11.119,0,0,0-12.566-7.841,6.433,6.433,0,0,0-4.56,2.9,6.034,6.034,0,0,0-.134,4.914c2.4,6.547,10.615,10.027,16.261,13.212,2.135,1.2,3.943,2.137,5.194,2.763l2.161-.02,2.709-.025,2.917-.027a148.5,148.5,0,0,0,14.544-14.252c11.614-13.071,11.686-17.858,11.217-20.371" transform="translate(-642.384 -522.634)" fill="#f0c518"/>
            <path id="Trazado_873049" data-name="Trazado 873049" d="M859.3,691.587c-4.58,4.939-9.3,10.479-14,16.66q-3.889,5.116-7.2,10.04c-.009-2.824-.117-5.811-.359-8.941a121.461,121.461,0,0,0-2.373-16.277,112.648,112.648,0,0,1,1.29,16.816c.006,3.431-.147,6.665-.4,9.679-2.852-3.346-6.123-6.879-9.855-10.472-4.362-4.2-4.323-3.541-8.3-6.582-.183-.14,1.184.625,8.119,8.319,4.332,4.806,7.58,9.019,9.673,11.868l2.709-.025c1.8-3.357,4.587-8.3,8.359-14.057,6.806-10.391,12.5-17.2,12.341-17.028" transform="translate(-670.948 -567.202)" fill="#d7f0ff"/>
          </g>
        </g>
      </g>
    </g>
  </g>
</svg>
