<svg xmlns="http://www.w3.org/2000/svg" xmlns:xlink="http://www.w3.org/1999/xlink" width="302" height="469" viewBox="0 0 302 469">
  <defs>
    <clipPath id="clip-path">
      <rect id="Rectángulo_400989" data-name="Rectángulo 400989" width="31.621" height="54.708" fill="none"/>
    </clipPath>
    <clipPath id="clip-path-2">
      <rect id="Rectángulo_400992" data-name="Rectángulo 400992" width="45.89" height="46.957" fill="none"/>
    </clipPath>
    <clipPath id="clip-path-3">
      <rect id="Rectángulo_400993" data-name="Rectángulo 400993" width="47.296" height="45.165" fill="none"/>
    </clipPath>
    <clipPath id="clip-path-4">
      <rect id="Rectángulo_400994" data-name="Rectángulo 400994" width="20.123" height="39.277" fill="none"/>
    </clipPath>
  </defs>
  <g id="_9rp" data-name="9rp" transform="translate(6693 7638)">
    <path id="Trazado_873848" data-name="Trazado 873848" d="M0,0H295V62H0Z" transform="translate(-6693 -7638)" fill="#debefb"/>
    <path id="Trazado_873849" data-name="Trazado 873849" d="M9.945-3.789A4.025,4.025,0,0,1,8.59-.9,4.76,4.76,0,0,1,5.367.156,4.28,4.28,0,0,1,1.926-1.316,6.038,6.038,0,0,1,.672-5.359v-.7A6.819,6.819,0,0,1,1.25-8.945,4.332,4.332,0,0,1,2.9-10.863a4.629,4.629,0,0,1,2.5-.668A4.637,4.637,0,0,1,8.57-10.477,4.326,4.326,0,0,1,9.961-7.516H7.617A2.376,2.376,0,0,0,7-9.113a2.271,2.271,0,0,0-1.605-.5,1.991,1.991,0,0,0-1.754.84,4.707,4.707,0,0,0-.6,2.605V-5.3a5.038,5.038,0,0,0,.559,2.7,1.954,1.954,0,0,0,1.762.852,2.314,2.314,0,0,0,1.621-.5A2.241,2.241,0,0,0,7.6-3.789ZM10.984-4.3a5.013,5.013,0,0,1,.484-2.242A3.546,3.546,0,0,1,12.863-8.07a4.069,4.069,0,0,1,2.113-.539A3.849,3.849,0,0,1,17.77-7.562a4.2,4.2,0,0,1,1.207,2.844l.016.578A4.418,4.418,0,0,1,17.906-1.02,3.775,3.775,0,0,1,14.992.156a3.793,3.793,0,0,1-2.918-1.172A4.5,4.5,0,0,1,10.984-4.2Zm2.258.16A3.16,3.16,0,0,0,13.7-2.3a1.5,1.5,0,0,0,1.3.638,1.5,1.5,0,0,0,1.281-.63,3.457,3.457,0,0,0,.461-2.015,3.128,3.128,0,0,0-.461-1.831,1.5,1.5,0,0,0-1.3-.649,1.474,1.474,0,0,0-1.281.646A3.516,3.516,0,0,0,13.242-4.144ZM22.5-8.453l.07.945A2.971,2.971,0,0,1,25-8.609,2.255,2.255,0,0,1,27.242-7.32a2.9,2.9,0,0,1,2.539-1.289,2.521,2.521,0,0,1,2.047.8A3.681,3.681,0,0,1,32.5-5.4V0H30.234V-5.391a1.61,1.61,0,0,0-.281-1.051,1.246,1.246,0,0,0-.992-.332,1.409,1.409,0,0,0-1.406.969L27.563,0H25.3V-5.383a1.59,1.59,0,0,0-.289-1.062,1.259,1.259,0,0,0-.984-.328,1.463,1.463,0,0,0-1.391.8V0H20.383V-8.453Zm19.344,4.3a5.07,5.07,0,0,1-.887,3.129A2.843,2.843,0,0,1,38.563.156a2.633,2.633,0,0,1-2.07-.891V3.25H34.234v-11.7h2.094l.078.828a2.654,2.654,0,0,1,2.141-.984,2.862,2.862,0,0,1,2.43,1.156,5.207,5.207,0,0,1,.867,3.188Zm-2.258-.164a3.327,3.327,0,0,0-.418-1.82,1.361,1.361,0,0,0-1.215-.641,1.479,1.479,0,0,0-1.461.813V-2.5a1.5,1.5,0,0,0,1.477.836Q39.586-1.664,39.586-4.312ZM48.3-.859A2.831,2.831,0,0,1,45.992.156a2.67,2.67,0,0,1-2.074-.781,3.335,3.335,0,0,1-.73-2.289V-8.453h2.258v5.467q0,1.322,1.2,1.322a1.63,1.63,0,0,0,1.578-.8V-8.453h2.266V0H48.367ZM54.9-10.531v2.078h1.445V-6.8H54.9v4.219a1.007,1.007,0,0,0,.18.672.9.9,0,0,0,.688.2,3.6,3.6,0,0,0,.664-.055V-.047a4.648,4.648,0,0,1-1.367.2,2.156,2.156,0,0,1-2.422-2.4V-6.8H51.406V-8.453h1.234v-2.078ZM62.5,0a2.507,2.507,0,0,1-.227-.758,2.732,2.732,0,0,1-2.133.914,3,3,0,0,1-2.059-.719,2.312,2.312,0,0,1-.816-1.812,2.389,2.389,0,0,1,1-2.062,4.915,4.915,0,0,1,2.879-.727H62.18v-.484a1.393,1.393,0,0,0-.3-.937,1.183,1.183,0,0,0-.949-.352,1.345,1.345,0,0,0-.895.273.929.929,0,0,0-.324.75H57.453a2.268,2.268,0,0,1,.453-1.359,3,3,0,0,1,1.281-.98,4.669,4.669,0,0,1,1.859-.355,3.689,3.689,0,0,1,2.48.785,2.747,2.747,0,0,1,.918,2.207v3.664a4.041,4.041,0,0,0,.336,1.82V0ZM60.633-1.57a1.945,1.945,0,0,0,.922-.223,1.462,1.462,0,0,0,.625-.6V-3.844h-.844q-1.7,0-1.8,1.172l-.008.133a.9.9,0,0,0,.3.7A1.153,1.153,0,0,0,60.633-1.57Zm5.2-2.719a5.094,5.094,0,0,1,.887-3.148,2.877,2.877,0,0,1,2.426-1.172,2.589,2.589,0,0,1,2.039.922V-12h2.266V0H71.406L71.3-.9A2.657,2.657,0,0,1,69.125.156,2.869,2.869,0,0,1,66.73-1.02,5.258,5.258,0,0,1,65.828-4.289Zm2.258.168A3.337,3.337,0,0,0,68.5-2.3a1.349,1.349,0,0,0,1.2.634,1.511,1.511,0,0,0,1.477-.884V-5.889a1.489,1.489,0,0,0-1.461-.884Q68.086-6.773,68.086-4.121ZM74.844-4.3a5.013,5.013,0,0,1,.484-2.242A3.546,3.546,0,0,1,76.723-8.07a4.069,4.069,0,0,1,2.113-.539,3.849,3.849,0,0,1,2.793,1.047,4.2,4.2,0,0,1,1.207,2.844l.016.578A4.418,4.418,0,0,1,81.766-1.02,3.775,3.775,0,0,1,78.852.156a3.793,3.793,0,0,1-2.918-1.172A4.5,4.5,0,0,1,74.844-4.2Zm2.258.16A3.16,3.16,0,0,0,77.555-2.3a1.5,1.5,0,0,0,1.3.638,1.5,1.5,0,0,0,1.281-.63,3.457,3.457,0,0,0,.461-2.015,3.128,3.128,0,0,0-.461-1.831,1.5,1.5,0,0,0-1.3-.649,1.474,1.474,0,0,0-1.281.646A3.516,3.516,0,0,0,77.1-4.144ZM88.992-6.336A6.134,6.134,0,0,0,88.18-6.4a1.654,1.654,0,0,0-1.68.867V0H84.242V-8.453h2.133l.063,1.008A2.092,2.092,0,0,1,88.32-8.609a2.366,2.366,0,0,1,.7.1Zm4.719,2.047A5.094,5.094,0,0,1,94.6-7.437a2.877,2.877,0,0,1,2.426-1.172,2.589,2.589,0,0,1,2.039.922V-12h2.266V0H99.289L99.18-.9A2.657,2.657,0,0,1,97.008.156,2.869,2.869,0,0,1,94.613-1.02,5.258,5.258,0,0,1,93.711-4.289Zm2.258.168A3.337,3.337,0,0,0,96.383-2.3a1.349,1.349,0,0,0,1.2.634,1.511,1.511,0,0,0,1.477-.884V-5.889A1.489,1.489,0,0,0,97.6-6.773Q95.969-6.773,95.969-4.121Zm11,4.277a4.15,4.15,0,0,1-3.027-1.141,4.054,4.054,0,0,1-1.168-3.039v-.219a5.106,5.106,0,0,1,.492-2.277,3.612,3.612,0,0,1,1.395-1.547,3.914,3.914,0,0,1,2.059-.543,3.508,3.508,0,0,1,2.73,1.094,4.444,4.444,0,0,1,1,3.1v.922h-5.383a2.1,2.1,0,0,0,.66,1.328,2,2,0,0,0,1.395.5,2.437,2.437,0,0,0,2.039-.945l1.109,1.242a3.389,3.389,0,0,1-1.375,1.121A4.511,4.511,0,0,1,106.969.156Zm-.258-6.945a1.411,1.411,0,0,0-1.09.455,2.357,2.357,0,0,0-.535,1.3h3.141v-.181a1.681,1.681,0,0,0-.406-1.165A1.456,1.456,0,0,0,106.711-6.789ZM119.6.156a4.15,4.15,0,0,1-3.027-1.141,4.054,4.054,0,0,1-1.168-3.039v-.219A5.106,5.106,0,0,1,115.9-6.52a3.612,3.612,0,0,1,1.395-1.547,3.914,3.914,0,0,1,2.059-.543,3.508,3.508,0,0,1,2.73,1.094,4.444,4.444,0,0,1,1,3.1v.922H117.7a2.1,2.1,0,0,0,.66,1.328,2,2,0,0,0,1.395.5,2.437,2.437,0,0,0,2.039-.945L122.9-1.367a3.389,3.389,0,0,1-1.375,1.121A4.511,4.511,0,0,1,119.6.156Zm-.258-6.945a1.411,1.411,0,0,0-1.09.455,2.357,2.357,0,0,0-.535,1.3h3.141v-.181a1.681,1.681,0,0,0-.406-1.165A1.456,1.456,0,0,0,119.344-6.789Zm9.594,4.453a.727.727,0,0,0-.41-.652,4.659,4.659,0,0,0-1.316-.426Q124.2-4.047,124.2-5.977a2.323,2.323,0,0,1,.934-1.879,3.766,3.766,0,0,1,2.441-.754,4.053,4.053,0,0,1,2.574.758,2.388,2.388,0,0,1,.965,1.969h-2.258a1.092,1.092,0,0,0-.312-.8A1.322,1.322,0,0,0,127.563-7a1.351,1.351,0,0,0-.883.258.814.814,0,0,0-.312.656.7.7,0,0,0,.355.605,3.657,3.657,0,0,0,1.2.4,9.8,9.8,0,0,1,1.422.379,2.336,2.336,0,0,1,1.789,2.273,2.205,2.205,0,0,1-.992,1.871,4.28,4.28,0,0,1-2.562.715,4.47,4.47,0,0,1-1.887-.379A3.166,3.166,0,0,1,124.4-1.262a2.414,2.414,0,0,1-.469-1.426h2.141a1.179,1.179,0,0,0,.445.922,1.766,1.766,0,0,0,1.109.32,1.635,1.635,0,0,0,.98-.246A.766.766,0,0,0,128.938-2.336Zm7.164.672a1.481,1.481,0,0,0,1.016-.344,1.2,1.2,0,0,0,.406-.914h2.117a2.9,2.9,0,0,1-.469,1.574A3.093,3.093,0,0,1,137.91-.238a3.949,3.949,0,0,1-1.77.395A3.67,3.67,0,0,1,133.281-1a4.56,4.56,0,0,1-1.047-3.184v-.148a4.508,4.508,0,0,1,1.039-3.117,3.627,3.627,0,0,1,2.852-1.164,3.555,3.555,0,0,1,2.543.9,3.2,3.2,0,0,1,.973,2.4h-2.117a1.551,1.551,0,0,0-.406-1.072,1.355,1.355,0,0,0-1.031-.412,1.36,1.36,0,0,0-1.191.575,3.333,3.333,0,0,0-.4,1.866v.235a3.375,3.375,0,0,0,.4,1.878A1.377,1.377,0,0,0,136.1-1.664Zm9.578-4.672a6.134,6.134,0,0,0-.812-.062,1.654,1.654,0,0,0-1.68.867V0H140.93V-8.453h2.133l.063,1.008a2.092,2.092,0,0,1,1.883-1.164,2.366,2.366,0,0,1,.7.1ZM149.148,0h-2.266V-8.453h2.266Zm-2.4-10.641a1.112,1.112,0,0,1,.34-.836,1.277,1.277,0,0,1,.926-.328,1.28,1.28,0,0,1,.922.328,1.105,1.105,0,0,1,.344.836,1.109,1.109,0,0,1-.348.844,1.283,1.283,0,0,1-.918.328A1.283,1.283,0,0,1,147.1-9.8,1.109,1.109,0,0,1,146.75-10.641Zm6.961.109v2.078h1.445V-6.8h-1.445v4.219a1.007,1.007,0,0,0,.18.672.9.9,0,0,0,.688.2,3.6,3.6,0,0,0,.664-.055V-.047a4.648,4.648,0,0,1-1.367.2,2.156,2.156,0,0,1-2.422-2.4V-6.8h-1.234V-8.453h1.234v-2.078ZM155.828-4.3a5.013,5.013,0,0,1,.484-2.242,3.546,3.546,0,0,1,1.395-1.523,4.069,4.069,0,0,1,2.113-.539,3.849,3.849,0,0,1,2.793,1.047,4.2,4.2,0,0,1,1.207,2.844l.016.578A4.418,4.418,0,0,1,162.75-1.02,3.775,3.775,0,0,1,159.836.156a3.793,3.793,0,0,1-2.918-1.172,4.5,4.5,0,0,1-1.09-3.187Zm2.258.16a3.16,3.16,0,0,0,.453,1.843,1.5,1.5,0,0,0,1.3.638,1.5,1.5,0,0,0,1.281-.63,3.457,3.457,0,0,0,.461-2.015,3.128,3.128,0,0,0-.461-1.831,1.5,1.5,0,0,0-1.3-.649,1.474,1.474,0,0,0-1.281.646A3.516,3.516,0,0,0,158.086-4.144Zm11.891-2.192a6.134,6.134,0,0,0-.812-.062,1.654,1.654,0,0,0-1.68.867V0h-2.258V-8.453h2.133l.063,1.008A2.092,2.092,0,0,1,169.3-8.609a2.366,2.366,0,0,1,.7.1ZM173.445,0H171.18V-8.453h2.266Zm-2.4-10.641a1.112,1.112,0,0,1,.34-.836,1.277,1.277,0,0,1,.926-.328,1.28,1.28,0,0,1,.922.328,1.105,1.105,0,0,1,.344.836,1.109,1.109,0,0,1-.348.844,1.283,1.283,0,0,1-.918.328,1.283,1.283,0,0,1-.918-.328A1.109,1.109,0,0,1,171.047-10.641ZM174.953-4.3a5.013,5.013,0,0,1,.484-2.242,3.546,3.546,0,0,1,1.395-1.523,4.069,4.069,0,0,1,2.113-.539,3.849,3.849,0,0,1,2.793,1.047,4.2,4.2,0,0,1,1.207,2.844l.016.578a4.418,4.418,0,0,1-1.086,3.121A3.775,3.775,0,0,1,178.961.156a3.793,3.793,0,0,1-2.918-1.172,4.5,4.5,0,0,1-1.09-3.187Zm2.258.16a3.16,3.16,0,0,0,.453,1.843,1.5,1.5,0,0,0,1.3.638,1.5,1.5,0,0,0,1.281-.63,3.457,3.457,0,0,0,.461-2.015,3.128,3.128,0,0,0-.461-1.831,1.5,1.5,0,0,0-1.3-.649,1.474,1.474,0,0,0-1.281.646A3.516,3.516,0,0,0,177.211-4.144Z" transform="translate(-6637 -7603)" fill="#12263f"/>
    <path id="Trazado_873124" data-name="Trazado 873124" d="M-7566-7530v354.5h39.332" transform="translate(909 -46)" fill="none" stroke="#000" stroke-width="0.5"/>
    <path id="Trazado_873850" data-name="Trazado 873850" d="M0,0H173V46H0Z" transform="translate(-6625 -7533)" fill="#00ffdf"/>
    <path id="Trazado_873851" data-name="Trazado 873851" d="M4.078-11.375,7-3.125l2.906-8.25h3.078V0H10.633V-3.109l.234-5.367L7.8,0H6.188L3.125-8.469l.234,5.359V0H1.016V-11.375ZM14.531-4.3a5.013,5.013,0,0,1,.484-2.242A3.546,3.546,0,0,1,16.41-8.07a4.069,4.069,0,0,1,2.113-.539,3.849,3.849,0,0,1,2.793,1.047,4.2,4.2,0,0,1,1.207,2.844l.016.578A4.418,4.418,0,0,1,21.453-1.02,3.775,3.775,0,0,1,18.539.156a3.793,3.793,0,0,1-2.918-1.172A4.5,4.5,0,0,1,14.531-4.2Zm2.258.16A3.16,3.16,0,0,0,17.242-2.3a1.5,1.5,0,0,0,1.3.638,1.5,1.5,0,0,0,1.281-.63,3.457,3.457,0,0,0,.461-2.015A3.128,3.128,0,0,0,19.82-6.14a1.5,1.5,0,0,0-1.3-.649,1.474,1.474,0,0,0-1.281.646A3.516,3.516,0,0,0,16.789-4.144Zm9.219-4.309.07.977a2.951,2.951,0,0,1,2.43-1.133,2.453,2.453,0,0,1,2,.789,3.682,3.682,0,0,1,.672,2.359V0H28.922V-5.406a1.465,1.465,0,0,0-.312-1.043,1.4,1.4,0,0,0-1.039-.324,1.553,1.553,0,0,0-1.43.813V0H23.883V-8.453ZM35.273,0H33.008V-8.453h2.266Zm-2.4-10.641a1.112,1.112,0,0,1,.34-.836,1.277,1.277,0,0,1,.926-.328,1.28,1.28,0,0,1,.922.328,1.105,1.105,0,0,1,.344.836,1.108,1.108,0,0,1-.348.844,1.283,1.283,0,0,1-.918.328,1.283,1.283,0,0,1-.918-.328A1.108,1.108,0,0,1,32.875-10.641Zm6.961.109v2.078h1.445V-6.8H39.836v4.219a1.007,1.007,0,0,0,.18.672.9.9,0,0,0,.688.2,3.6,3.6,0,0,0,.664-.055V-.047A4.648,4.648,0,0,1,40,.156a2.156,2.156,0,0,1-2.422-2.4V-6.8H36.344V-8.453h1.234v-2.078ZM41.953-4.3a5.013,5.013,0,0,1,.484-2.242A3.546,3.546,0,0,1,43.832-8.07a4.069,4.069,0,0,1,2.113-.539,3.849,3.849,0,0,1,2.793,1.047,4.2,4.2,0,0,1,1.207,2.844l.016.578A4.418,4.418,0,0,1,48.875-1.02,3.775,3.775,0,0,1,45.961.156a3.793,3.793,0,0,1-2.918-1.172A4.5,4.5,0,0,1,41.953-4.2Zm2.258.16A3.16,3.16,0,0,0,44.664-2.3a1.5,1.5,0,0,0,1.3.638,1.5,1.5,0,0,0,1.281-.63A3.457,3.457,0,0,0,47.7-4.309a3.128,3.128,0,0,0-.461-1.831,1.5,1.5,0,0,0-1.3-.649,1.474,1.474,0,0,0-1.281.646A3.516,3.516,0,0,0,44.211-4.144ZM56.1-6.336a6.134,6.134,0,0,0-.812-.062,1.654,1.654,0,0,0-1.68.867V0H51.352V-8.453h2.133l.063,1.008A2.092,2.092,0,0,1,55.43-8.609a2.366,2.366,0,0,1,.7.1Z" transform="translate(-6566 -7504)" fill="#12263f"/>
    <path id="Trazado_873852" data-name="Trazado 873852" d="M0,0H173V46H0Z" transform="translate(-6625 -7434.064)" fill="#00ffdf"/>
    <path id="Trazado_873853" data-name="Trazado 873853" d="M9.578-9.477H6.094V0H3.75V-9.477H.313v-1.9H9.578ZM14.656.156A4.15,4.15,0,0,1,11.629-.984a4.054,4.054,0,0,1-1.168-3.039v-.219a5.106,5.106,0,0,1,.492-2.277,3.612,3.612,0,0,1,1.395-1.547,3.914,3.914,0,0,1,2.059-.543,3.508,3.508,0,0,1,2.73,1.094,4.444,4.444,0,0,1,1,3.1v.922H12.75a2.1,2.1,0,0,0,.66,1.328,2,2,0,0,0,1.395.5,2.437,2.437,0,0,0,2.039-.945l1.109,1.242A3.389,3.389,0,0,1,16.578-.246,4.511,4.511,0,0,1,14.656.156ZM14.4-6.789a1.411,1.411,0,0,0-1.09.455,2.357,2.357,0,0,0-.535,1.3h3.141v-.181a1.681,1.681,0,0,0-.406-1.165A1.456,1.456,0,0,0,14.4-6.789ZM22.93-1.664a1.481,1.481,0,0,0,1.016-.344,1.2,1.2,0,0,0,.406-.914h2.117A2.9,2.9,0,0,1,26-1.348,3.093,3.093,0,0,1,24.738-.238a3.949,3.949,0,0,1-1.77.395A3.67,3.67,0,0,1,20.109-1,4.56,4.56,0,0,1,19.063-4.18v-.148A4.508,4.508,0,0,1,20.1-7.445a3.627,3.627,0,0,1,2.852-1.164,3.555,3.555,0,0,1,2.543.9,3.2,3.2,0,0,1,.973,2.4H24.352a1.551,1.551,0,0,0-.406-1.072,1.354,1.354,0,0,0-1.031-.412,1.36,1.36,0,0,0-1.191.575,3.333,3.333,0,0,0-.4,1.866v.235a3.375,3.375,0,0,0,.4,1.878A1.377,1.377,0,0,0,22.93-1.664ZM30.141,0H27.875V-12h2.266ZM36.9,0a2.507,2.507,0,0,1-.227-.758,2.732,2.732,0,0,1-2.133.914A3,3,0,0,1,32.48-.562a2.312,2.312,0,0,1-.816-1.812,2.389,2.389,0,0,1,1-2.062,4.915,4.915,0,0,1,2.879-.727h1.039v-.484a1.393,1.393,0,0,0-.3-.937,1.183,1.183,0,0,0-.949-.352,1.345,1.345,0,0,0-.895.273.929.929,0,0,0-.324.75H31.852A2.268,2.268,0,0,1,32.3-7.273a3,3,0,0,1,1.281-.98,4.669,4.669,0,0,1,1.859-.355,3.689,3.689,0,0,1,2.48.785,2.747,2.747,0,0,1,.918,2.207v3.664a4.041,4.041,0,0,0,.336,1.82V0ZM35.031-1.57a1.945,1.945,0,0,0,.922-.223,1.462,1.462,0,0,0,.625-.6V-3.844h-.844q-1.7,0-1.8,1.172l-.008.133a.9.9,0,0,0,.3.7A1.153,1.153,0,0,0,35.031-1.57Zm5.2-2.719a5.094,5.094,0,0,1,.887-3.148,2.877,2.877,0,0,1,2.426-1.172,2.589,2.589,0,0,1,2.039.922V-12h2.266V0H45.8L45.7-.9A2.657,2.657,0,0,1,43.523.156,2.869,2.869,0,0,1,41.129-1.02,5.258,5.258,0,0,1,40.227-4.289Zm2.258.168A3.337,3.337,0,0,0,42.9-2.3a1.349,1.349,0,0,0,1.2.634,1.511,1.511,0,0,0,1.477-.884V-5.889a1.489,1.489,0,0,0-1.461-.884Q42.484-6.773,42.484-4.121ZM49.242-4.3a5.013,5.013,0,0,1,.484-2.242A3.546,3.546,0,0,1,51.121-8.07a4.069,4.069,0,0,1,2.113-.539,3.849,3.849,0,0,1,2.793,1.047,4.2,4.2,0,0,1,1.207,2.844l.016.578A4.418,4.418,0,0,1,56.164-1.02,3.775,3.775,0,0,1,53.25.156a3.793,3.793,0,0,1-2.918-1.172A4.5,4.5,0,0,1,49.242-4.2Zm2.258.16A3.16,3.16,0,0,0,51.953-2.3a1.5,1.5,0,0,0,1.3.638,1.5,1.5,0,0,0,1.281-.63,3.457,3.457,0,0,0,.461-2.015,3.128,3.128,0,0,0-.461-1.831,1.5,1.5,0,0,0-1.3-.649,1.474,1.474,0,0,0-1.281.646A3.516,3.516,0,0,0,51.5-4.144Z" transform="translate(-6567 -7405.064)" fill="#12263f"/>
    <path id="Trazado_873854" data-name="Trazado 873854" d="M0,0H173V46H0Z" transform="translate(-6624 -7340)" fill="#00ffdf"/>
    <path id="Trazado_873855" data-name="Trazado 873855" d="M4.078-11.375,7-3.125l2.906-8.25h3.078V0H10.633V-3.109l.234-5.367L7.8,0H6.188L3.125-8.469l.234,5.359V0H1.016V-11.375ZM14.531-4.3a5.013,5.013,0,0,1,.484-2.242A3.546,3.546,0,0,1,16.41-8.07a4.069,4.069,0,0,1,2.113-.539,3.849,3.849,0,0,1,2.793,1.047,4.2,4.2,0,0,1,1.207,2.844l.016.578A4.418,4.418,0,0,1,21.453-1.02,3.775,3.775,0,0,1,18.539.156a3.793,3.793,0,0,1-2.918-1.172A4.5,4.5,0,0,1,14.531-4.2Zm2.258.16A3.16,3.16,0,0,0,17.242-2.3a1.5,1.5,0,0,0,1.3.638,1.5,1.5,0,0,0,1.281-.63,3.457,3.457,0,0,0,.461-2.015A3.128,3.128,0,0,0,19.82-6.14a1.5,1.5,0,0,0-1.3-.649,1.474,1.474,0,0,0-1.281.646A3.516,3.516,0,0,0,16.789-4.144Zm12.2,3.285A2.831,2.831,0,0,1,26.68.156a2.67,2.67,0,0,1-2.074-.781,3.335,3.335,0,0,1-.73-2.289V-8.453h2.258v5.467q0,1.322,1.2,1.322a1.63,1.63,0,0,0,1.578-.8V-8.453H31.18V0H29.055Zm8.469-1.477a.727.727,0,0,0-.41-.652,4.659,4.659,0,0,0-1.316-.426q-3.016-.633-3.016-2.562a2.323,2.323,0,0,1,.934-1.879,3.766,3.766,0,0,1,2.441-.754,4.053,4.053,0,0,1,2.574.758,2.388,2.388,0,0,1,.965,1.969H37.375a1.092,1.092,0,0,0-.312-.8A1.322,1.322,0,0,0,36.086-7a1.351,1.351,0,0,0-.883.258.814.814,0,0,0-.312.656.7.7,0,0,0,.355.605,3.657,3.657,0,0,0,1.2.4,9.8,9.8,0,0,1,1.422.379A2.336,2.336,0,0,1,39.656-2.43a2.2,2.2,0,0,1-.992,1.871A4.28,4.28,0,0,1,36.1.156a4.47,4.47,0,0,1-1.887-.379,3.166,3.166,0,0,1-1.293-1.039,2.414,2.414,0,0,1-.469-1.426h2.141a1.179,1.179,0,0,0,.445.922,1.766,1.766,0,0,0,1.109.32,1.635,1.635,0,0,0,.98-.246A.766.766,0,0,0,37.461-2.336ZM45,.156A4.15,4.15,0,0,1,41.973-.984,4.054,4.054,0,0,1,40.8-4.023v-.219A5.106,5.106,0,0,1,41.3-6.52a3.612,3.612,0,0,1,1.395-1.547,3.914,3.914,0,0,1,2.059-.543,3.508,3.508,0,0,1,2.73,1.094,4.444,4.444,0,0,1,1,3.1v.922H43.094a2.1,2.1,0,0,0,.66,1.328,2,2,0,0,0,1.395.5,2.437,2.437,0,0,0,2.039-.945L48.3-1.367A3.389,3.389,0,0,1,46.922-.246,4.511,4.511,0,0,1,45,.156Zm-.258-6.945a1.411,1.411,0,0,0-1.09.455,2.357,2.357,0,0,0-.535,1.3h3.141v-.181a1.681,1.681,0,0,0-.406-1.165A1.456,1.456,0,0,0,44.742-6.789Z" transform="translate(-6566 -7311)" fill="#12263f"/>
    <path id="Trazado_873856" data-name="Trazado 873856" d="M0,0H173V46H0Z" transform="translate(-6624 -7245)" fill="#00ffdf"/>
    <path id="Trazado_873857" data-name="Trazado 873857" d="M9.578-9.477H6.094V0H3.75V-9.477H.313v-1.9H9.578ZM8.789-4.3a5.013,5.013,0,0,1,.484-2.242A3.546,3.546,0,0,1,10.668-8.07a4.069,4.069,0,0,1,2.113-.539,3.849,3.849,0,0,1,2.793,1.047,4.2,4.2,0,0,1,1.207,2.844l.016.578A4.418,4.418,0,0,1,15.711-1.02,3.775,3.775,0,0,1,12.8.156,3.793,3.793,0,0,1,9.879-1.016,4.5,4.5,0,0,1,8.789-4.2Zm2.258.16A3.16,3.16,0,0,0,11.5-2.3a1.5,1.5,0,0,0,1.3.638,1.5,1.5,0,0,0,1.281-.63,3.457,3.457,0,0,0,.461-2.015,3.128,3.128,0,0,0-.461-1.831,1.5,1.5,0,0,0-1.3-.649,1.474,1.474,0,0,0-1.281.646A3.516,3.516,0,0,0,11.047-4.144ZM22.938-6.336a6.134,6.134,0,0,0-.812-.062,1.654,1.654,0,0,0-1.68.867V0H18.188V-8.453H20.32l.063,1.008a2.092,2.092,0,0,1,1.883-1.164,2.366,2.366,0,0,1,.7.1Zm5.836,0a6.134,6.134,0,0,0-.812-.062,1.654,1.654,0,0,0-1.68.867V0H24.023V-8.453h2.133l.063,1.008A2.092,2.092,0,0,1,28.1-8.609a2.366,2.366,0,0,1,.7.1ZM33.75.156A4.15,4.15,0,0,1,30.723-.984a4.054,4.054,0,0,1-1.168-3.039v-.219a5.106,5.106,0,0,1,.492-2.277,3.612,3.612,0,0,1,1.395-1.547A3.914,3.914,0,0,1,33.5-8.609a3.508,3.508,0,0,1,2.73,1.094,4.444,4.444,0,0,1,1,3.1v.922H31.844a2.1,2.1,0,0,0,.66,1.328,2,2,0,0,0,1.395.5,2.437,2.437,0,0,0,2.039-.945l1.109,1.242A3.389,3.389,0,0,1,35.672-.246,4.511,4.511,0,0,1,33.75.156Zm-.258-6.945a1.411,1.411,0,0,0-1.09.455,2.357,2.357,0,0,0-.535,1.3h3.141v-.181A1.681,1.681,0,0,0,34.6-6.377,1.456,1.456,0,0,0,33.492-6.789Z" transform="translate(-6556 -7216)" fill="#12263f"/>
    <g id="Grupo_1098895" data-name="Grupo 1098895" transform="translate(-7644 -11563)">
      <circle id="Elipse_11448" data-name="Elipse 11448" cx="43" cy="43" r="43" transform="translate(1167 4308)" fill="#fff"/>
      <g id="Grupo_1098885" data-name="Grupo 1098885" transform="translate(1194 4324)">
        <g id="Grupo_1098884" data-name="Grupo 1098884" clip-path="url(#clip-path)">
          <path id="Trazado_873177" data-name="Trazado 873177" d="M32.757,3.077V54.763a1.08,1.08,0,0,1-1.079,1.079H3.077A1.08,1.08,0,0,1,2,54.763V3.077A1.08,1.08,0,0,1,3.077,2h28.6a1.08,1.08,0,0,1,1.079,1.079" transform="translate(-1.567 -1.567)" fill="#3a1d71"/>
          <path id="Trazado_873178" data-name="Trazado 873178" d="M41.774,3.077V54.763a1.08,1.08,0,0,1-1.079,1.079H14.577A1.08,1.08,0,0,1,13.5,54.763V3.077A1.08,1.08,0,0,1,14.577,2H40.694a1.08,1.08,0,0,1,1.079,1.079" transform="translate(-10.584 -1.567)" fill="#debefb"/>
          <path id="Trazado_873179" data-name="Trazado 873179" d="M32.757,3.077V19.093L28.7,24.039l-.488.6a2.26,2.26,0,0,1-1.753.831H8.3a2.26,2.26,0,0,1-1.753-.831L2,19.093V3.077A1.08,1.08,0,0,1,3.077,2h28.6a1.08,1.08,0,0,1,1.079,1.079" transform="translate(-1.567 -1.567)" fill="#debefb"/>
          <path id="Trazado_873180" data-name="Trazado 873180" d="M41.774,3.077V19.093l-4.056,4.946H19.8a2.26,2.26,0,0,1-1.753-.831L13.5,17.667V2h27.2a1.08,1.08,0,0,1,1.079,1.079" transform="translate(-10.584 -1.567)" fill="#f2e5fd"/>
          <path id="Trazado_873181" data-name="Trazado 873181" d="M44.019,29v2.159a1.08,1.08,0,0,1-1.079,1.079H22.9a1.08,1.08,0,0,1-1.079-1.079V29A1.08,1.08,0,0,1,22.9,27.918H42.94A1.08,1.08,0,0,1,44.019,29" transform="translate(-17.108 -21.891)" fill="#d8d6d7"/>
          <path id="Trazado_873182" data-name="Trazado 873182" d="M44.019,29a1.08,1.08,0,0,1-1.079,1.079H22.9a1.079,1.079,0,0,1,0-2.159H42.94A1.08,1.08,0,0,1,44.019,29" transform="translate(-17.108 -21.891)" fill="#fff"/>
          <path id="Trazado_873183" data-name="Trazado 873183" d="M49.028,169.177a6.665,6.665,0,1,1-6.665,6.665,6.665,6.665,0,0,1,6.665-6.665" transform="translate(-33.218 -132.655)" fill="#fff"/>
          <path id="Trazado_873184" data-name="Trazado 873184" d="M62.248,184.883a4.175,4.175,0,1,1-4.175-4.175,4.087,4.087,0,0,1,1.1.147,4.173,4.173,0,0,1,3.078,4.028" transform="translate(-42.263 -141.697)" fill="#1c868e"/>
          <path id="Trazado_873185" data-name="Trazado 873185" d="M70.207,185.416a4.176,4.176,0,0,1-3.078,4.03,4.175,4.175,0,0,1,0-8.059,4.173,4.173,0,0,1,3.078,4.028" transform="translate(-50.221 -142.23)" fill="#40c4df"/>
          <path id="Trazado_873186" data-name="Trazado 873186" d="M30.11,0H1.511A1.513,1.513,0,0,0,0,1.511V53.2a1.513,1.513,0,0,0,1.511,1.511h28.6A1.513,1.513,0,0,0,31.621,53.2V1.511A1.513,1.513,0,0,0,30.11,0m.648,53.2a.648.648,0,0,1-.648.648H1.511A.648.648,0,0,1,.864,53.2V18.735l3.778,4.607a2.682,2.682,0,0,0,2.088.99H24.893a2.682,2.682,0,0,0,2.087-.989l3.778-4.608V53.2Zm0-35.823L26.311,22.8a1.823,1.823,0,0,1-1.418.672H6.729a1.823,1.823,0,0,1-1.419-.673L.864,17.373V1.511A.648.648,0,0,1,1.511.864h28.6a.648.648,0,0,1,.648.648V17.373Z" fill="#491352"/>
          <path id="Trazado_873187" data-name="Trazado 873187" d="M41.373,25.916H21.332a1.513,1.513,0,0,0-1.511,1.511v2.159A1.513,1.513,0,0,0,21.332,31.1H41.373a1.513,1.513,0,0,0,1.511-1.511V27.427a1.513,1.513,0,0,0-1.511-1.511m.648,3.67a.648.648,0,0,1-.648.648H21.332a.648.648,0,0,1-.648-.648V27.427a.648.648,0,0,1,.648-.648H41.373a.648.648,0,0,1,.648.648v2.159Z" transform="translate(-15.542 -20.321)" fill="#491352"/>
          <path id="Trazado_873188" data-name="Trazado 873188" d="M103.637,35.916h-1.871a.432.432,0,0,0,0,.864h1.871a.432.432,0,0,0,0-.864" transform="translate(-79.461 -28.162)" fill="#491352"/>
          <path id="Trazado_873189" data-name="Trazado 873189" d="M47.46,167.177a7.1,7.1,0,1,0,7.1,7.1,7.105,7.105,0,0,0-7.1-7.1m0,13.331a6.234,6.234,0,1,1,6.234-6.234,6.241,6.241,0,0,1-6.234,6.234" transform="translate(-31.649 -131.087)" fill="#491352"/>
          <path id="Trazado_873190" data-name="Trazado 873190" d="M56.5,178.708a4.608,4.608,0,1,0,4.608,4.608,4.613,4.613,0,0,0-4.608-4.608m0,8.352a3.744,3.744,0,1,1,3.744-3.744A3.748,3.748,0,0,1,56.5,187.06" transform="translate(-40.691 -140.129)" fill="#491352"/>
          <path id="Trazado_873191" data-name="Trazado 873191" d="M51.676,124.708h-15.2a.432.432,0,0,0,0,.864h15.2a.432.432,0,0,0,0-.864" transform="translate(-28.265 -97.786)" fill="#491352"/>
          <path id="Trazado_873192" data-name="Trazado 873192" d="M51.676,140.708h-15.2a.432.432,0,0,0,0,.864h15.2a.432.432,0,0,0,0-.864" transform="translate(-28.265 -110.332)" fill="#491352"/>
        </g>
      </g>
    </g>
    <g id="Grupo_1098893" data-name="Grupo 1098893" transform="translate(-6822 -11861)">
      <circle id="Elipse_11445" data-name="Elipse 11445" cx="43" cy="43" r="43" transform="translate(345 4308)" fill="#fff"/>
      <g id="Grupo_1098887" data-name="Grupo 1098887" transform="translate(364.555 4328.74)">
        <g id="Grupo_1098886" data-name="Grupo 1098886" clip-path="url(#clip-path-2)">
          <path id="Trazado_873193" data-name="Trazado 873193" d="M84.185,232v2.153a.923.923,0,0,1-.923.923H61.613a.923.923,0,0,1-.923-.923V232a.923.923,0,0,1,.923-.923h21.65a.923.923,0,0,1,.923.923" transform="translate(-49.492 -188.444)" fill="#d8d6d7"/>
          <rect id="Rectángulo_400990" data-name="Rectángulo 400990" width="5.103" height="15.528" transform="translate(20.394 27.108)" fill="#d8d6d7"/>
          <path id="Trazado_873194" data-name="Trazado 873194" d="M46.23,32.306H2.923A.923.923,0,0,1,2,31.383V3.173a.923.923,0,0,1,.923-.923H46.23a.923.923,0,0,1,.923.923v28.21a.923.923,0,0,1-.923.923" transform="translate(-1.631 -1.835)" fill="#d8d6d7"/>
          <path id="Trazado_873195" data-name="Trazado 873195" d="M55.355,16.173V39.586a.923.923,0,0,1-.923.923H15.923A.923.923,0,0,1,15,39.586V16.173a.923.923,0,0,1,.923-.923h38.51a.923.923,0,0,1,.923.923" transform="translate(-12.232 -12.436)" fill="#56c1b3"/>
          <path id="Trazado_873196" data-name="Trazado 873196" d="M73.092,16.173V39.586a.923.923,0,0,1-.923.923h-34.5a.923.923,0,0,1-.923-.923V16.173a.923.923,0,0,1,.923-.923h34.5a.923.923,0,0,1,.923.923" transform="translate(-29.969 -12.436)" fill="#7befe4"/>
          <path id="Trazado_873197" data-name="Trazado 873197" d="M97.233,232v2.153a.923.923,0,0,1-.923.923h-18.7a.923.923,0,0,1-.923-.923V232a.923.923,0,0,1,.923-.923h18.7a.923.923,0,0,1,.923.923" transform="translate(-62.54 -188.444)" fill="#fff"/>
          <path id="Trazado_873198" data-name="Trazado 873198" d="M115.683,114.633h-2.69a.923.923,0,0,1-.923-.923v-2.052h4.535v2.052a.923.923,0,0,1-.923.923" transform="translate(-91.392 -91.057)" fill="#1c868e"/>
          <path id="Trazado_873199" data-name="Trazado 873199" d="M100.8,62.453l-4.226,7.319a.923.923,0,0,0,.8,1.384h8.451a.923.923,0,0,0,.8-1.384L102.4,62.453a.923.923,0,0,0-1.6,0" transform="translate(-78.655 -50.554)" fill="#40c4df"/>
          <rect id="Rectángulo_400991" data-name="Rectángulo 400991" width="1.982" height="12.165" transform="translate(23.515 30.471)" fill="#fff"/>
          <path id="Trazado_873200" data-name="Trazado 873200" d="M44.6,0H1.292A1.293,1.293,0,0,0,0,1.292V29.5a1.293,1.293,0,0,0,1.292,1.292H20.024V42.22h-7.9a1.293,1.293,0,0,0-1.292,1.292v2.153a1.293,1.293,0,0,0,1.292,1.292H33.769a1.293,1.293,0,0,0,1.292-1.292V43.512a1.293,1.293,0,0,0-1.292-1.292h-7.9V30.793H44.6A1.293,1.293,0,0,0,45.89,29.5V1.292A1.293,1.293,0,0,0,44.6,0M33.77,42.958a.554.554,0,0,1,.554.554v2.153a.554.554,0,0,1-.554.554H12.121a.554.554,0,0,1-.554-.554V43.512a.554.554,0,0,1,.554-.554ZM20.762,42.22V30.794h4.367V42.22ZM45.152,29.5a.554.554,0,0,1-.554.554H1.292A.554.554,0,0,1,.738,29.5V1.292A.554.554,0,0,1,1.292.738H44.6a.554.554,0,0,1,.554.554Z" fill="#491352"/>
          <path id="Trazado_873201" data-name="Trazado 873201" d="M52.8,13H14.292A1.293,1.293,0,0,0,13,14.292V37.7A1.293,1.293,0,0,0,14.292,39H52.8A1.293,1.293,0,0,0,54.093,37.7V14.292A1.293,1.293,0,0,0,52.8,13m.554,24.7a.554.554,0,0,1-.554.554H14.292a.554.554,0,0,1-.554-.554V14.292a.554.554,0,0,1,.554-.554H52.8a.554.554,0,0,1,.554.554Z" transform="translate(-10.601 -10.601)" fill="#491352"/>
          <path id="Trazado_873202" data-name="Trazado 873202" d="M101.084,60.637a1.291,1.291,0,0,0-2.237,0l-4.225,7.319a1.291,1.291,0,0,0,1.118,1.937h1.589v1.683a1.293,1.293,0,0,0,1.292,1.292h2.69a1.293,1.293,0,0,0,1.292-1.292V69.893c1.525,0,2.24.163,2.707-.646a1.278,1.278,0,0,0,0-1.292Zm.78,10.939a.554.554,0,0,1-.554.554h-2.69a.554.554,0,0,1-.554-.554V69.893h3.8Zm2.806-2.7c-.216.374.074.277-7.342.277-1.645,0-1.861.082-2.068-.277a.548.548,0,0,1,0-.554c4.552-7.885,4.255-7.6,4.7-7.6a.548.548,0,0,1,.479.277c4.553,7.886,4.451,7.483,4.226,7.872" transform="translate(-77.021 -48.922)" fill="#491352"/>
          <path id="Trazado_873203" data-name="Trazado 873203" d="M123.1,39.714V37.5a.369.369,0,0,0-.738,0v2.214a.369.369,0,0,0,.738,0" transform="translate(-99.784 -30.283)" fill="#491352"/>
          <path id="Trazado_873204" data-name="Trazado 873204" d="M97.759,47.116a.369.369,0,0,0,.319-.554l-1.107-1.918a.369.369,0,1,0-.639.369c1.172,2.03,1.139,2.1,1.427,2.1" transform="translate(-78.518 -36.257)" fill="#491352"/>
          <path id="Trazado_873205" data-name="Trazado 873205" d="M79.843,65.017,77.925,63.91a.369.369,0,0,0-.369.639l1.917,1.107a.369.369,0,0,0,.369-.639" transform="translate(-63.096 -52.078)" fill="#491352"/>
          <path id="Trazado_873206" data-name="Trazado 873206" d="M142.8,47.107c.289,0,.256-.074,1.427-2.1a.369.369,0,0,0-.639-.369l-1.107,1.918a.369.369,0,0,0,.319.554" transform="translate(-116.154 -36.248)" fill="#491352"/>
          <path id="Trazado_873207" data-name="Trazado 873207" d="M159.048,63.909l-1.918,1.107a.369.369,0,0,0,.369.639l1.918-1.107a.369.369,0,0,0-.369-.639" transform="translate(-127.987 -52.077)" fill="#491352"/>
        </g>
      </g>
    </g>
    <g id="Grupo_1098892" data-name="Grupo 1098892" transform="translate(-7089 -11762)">
      <circle id="Elipse_11446" data-name="Elipse 11446" cx="43" cy="43" r="43" transform="translate(612 4308)" fill="#fff"/>
      <g id="Grupo_1098889" data-name="Grupo 1098889" transform="translate(631 4328)">
        <g id="Grupo_1098888" data-name="Grupo 1098888" clip-path="url(#clip-path-3)">
          <path id="Trazado_873208" data-name="Trazado 873208" d="M99.7,163.954v7.99a4.594,4.594,0,0,1-9.188,0v-7.99a.959.959,0,0,1,.958-.958h7.272a.959.959,0,0,1,.958.958" transform="translate(-73.161 -131.756)" fill="#1c868e"/>
          <path id="Trazado_873209" data-name="Trazado 873209" d="M108.531,163.954v7.99a4.573,4.573,0,0,1-.6,2.263,4.544,4.544,0,0,1-1.9.414,4.6,4.6,0,0,1-4.594-4.594V163h6.135a.959.959,0,0,1,.958.958" transform="translate(-81.997 -131.756)" fill="#40c4df"/>
          <path id="Trazado_873210" data-name="Trazado 873210" d="M43.277,23.4H2.958A.958.958,0,0,1,2,22.442V2.958A.958.958,0,0,1,2.958,2H43.277a.958.958,0,0,1,.958.958V22.442a.958.958,0,0,1-.958.958" transform="translate(-1.617 -1.617)" fill="#40c4df"/>
          <path id="Trazado_873211" data-name="Trazado 873211" d="M18.892,37.309v1.733a.72.72,0,0,1-.721.721H16.439a.721.721,0,0,1-.723-.721V37.309a.723.723,0,0,1,.723-.723h1.733a.721.721,0,0,1,.721.723" transform="translate(-12.704 -29.574)" fill="#d8d6d7"/>
          <path id="Trazado_873212" data-name="Trazado 873212" d="M44.092,37.309v1.733a.721.721,0,0,1-.723.721H41.637a.72.72,0,0,1-.721-.721V37.309a.721.721,0,0,1,.721-.723h1.733a.723.723,0,0,1,.723.723" transform="translate(-33.074 -29.574)" fill="#d8d6d7"/>
          <path id="Trazado_873213" data-name="Trazado 873213" d="M69.282,37.309v1.733a.72.72,0,0,1-.721.721H66.829a.721.721,0,0,1-.723-.721V37.309a.723.723,0,0,1,.723-.723h1.733a.721.721,0,0,1,.721.723" transform="translate(-53.436 -29.574)" fill="#d8d6d7"/>
          <path id="Trazado_873214" data-name="Trazado 873214" d="M94.474,37.309v1.733a.721.721,0,0,1-.723.721H92.019a.721.721,0,0,1-.723-.721V37.309a.723.723,0,0,1,.723-.723h1.733a.723.723,0,0,1,.723.723" transform="translate(-73.798 -29.574)" fill="#d8d6d7"/>
          <path id="Trazado_873215" data-name="Trazado 873215" d="M18.892,11.257v1.733a.721.721,0,0,1-.721.723H16.439a.723.723,0,0,1-.723-.723V11.257a.721.721,0,0,1,.723-.721h1.733a.72.72,0,0,1,.721.721" transform="translate(-12.704 -8.517)" fill="#d8d6d7"/>
          <path id="Trazado_873216" data-name="Trazado 873216" d="M44.092,11.257v1.733a.723.723,0,0,1-.723.723H41.637a.721.721,0,0,1-.721-.723V11.257a.72.72,0,0,1,.721-.721h1.733a.721.721,0,0,1,.723.721" transform="translate(-33.074 -8.517)" fill="#d8d6d7"/>
          <path id="Trazado_873217" data-name="Trazado 873217" d="M69.282,11.257v1.733a.721.721,0,0,1-.721.723H66.829a.723.723,0,0,1-.723-.723V11.257a.721.721,0,0,1,.723-.721h1.733a.72.72,0,0,1,.721.721" transform="translate(-53.436 -8.517)" fill="#d8d6d7"/>
          <path id="Trazado_873218" data-name="Trazado 873218" d="M94.474,11.257v1.733a.723.723,0,0,1-.723.723H92.019a.723.723,0,0,1-.723-.723V11.257a.721.721,0,0,1,.723-.721h1.733a.721.721,0,0,1,.723.721" transform="translate(-73.798 -8.517)" fill="#d8d6d7"/>
          <path id="Trazado_873219" data-name="Trazado 873219" d="M119.672,11.257v1.733a.723.723,0,0,1-.723.723h-1.733a.721.721,0,0,1-.721-.723V11.257a.72.72,0,0,1,.721-.721h1.733a.721.721,0,0,1,.723.721" transform="translate(-94.169 -8.517)" fill="#d8d6d7"/>
          <path id="Trazado_873220" data-name="Trazado 873220" d="M144.862,11.257v1.733a.721.721,0,0,1-.721.723h-1.733a.723.723,0,0,1-.723-.723V11.257a.721.721,0,0,1,.723-.721h1.733a.72.72,0,0,1,.721.721" transform="translate(-114.531 -8.517)" fill="#d8d6d7"/>
          <path id="Trazado_873221" data-name="Trazado 873221" d="M170.054,11.257v1.733a.723.723,0,0,1-.723.723H167.6a.723.723,0,0,1-.723-.723V11.257a.721.721,0,0,1,.723-.721h1.733a.721.721,0,0,1,.723.721" transform="translate(-134.893 -8.517)" fill="#d8d6d7"/>
          <path id="Trazado_873222" data-name="Trazado 873222" d="M170.054,11.257v1.733a.723.723,0,0,1-.723.723H167.6a.723.723,0,0,1-.723-.723V11.257a.721.721,0,0,1,.723-.721h1.733a.721.721,0,0,1,.723.721" transform="translate(-134.893 -8.517)" fill="#d8d6d7"/>
          <path id="Trazado_873223" data-name="Trazado 873223" d="M195.252,11.257v1.733a.723.723,0,0,1-.723.723H192.8a.722.722,0,0,1-.723-.723V11.257a.72.72,0,0,1,.723-.721h1.731a.721.721,0,0,1,.723.721" transform="translate(-155.263 -8.517)" fill="#d8d6d7"/>
          <path id="Trazado_873224" data-name="Trazado 873224" d="M18.892,63.3v1.733a.721.721,0,0,1-.721.723H16.439a.723.723,0,0,1-.723-.723V63.3a.721.721,0,0,1,.723-.721h1.733a.72.72,0,0,1,.721.721" transform="translate(-12.704 -50.583)" fill="#d8d6d7"/>
          <path id="Trazado_873225" data-name="Trazado 873225" d="M44.092,63.3v1.733a.723.723,0,0,1-.723.723H41.637a.721.721,0,0,1-.721-.723V63.3a.72.72,0,0,1,.721-.721h1.733a.721.721,0,0,1,.723.721" transform="translate(-33.074 -50.583)" fill="#d8d6d7"/>
          <path id="Trazado_873226" data-name="Trazado 873226" d="M69.282,63.3v1.733a.721.721,0,0,1-.721.723H66.829a.723.723,0,0,1-.723-.723V63.3a.721.721,0,0,1,.723-.721h1.733a.72.72,0,0,1,.721.721" transform="translate(-53.436 -50.583)" fill="#d8d6d7"/>
          <path id="Trazado_873227" data-name="Trazado 873227" d="M99.3,37.309V44.02a.723.723,0,0,1-.723.723h-6.56a.723.723,0,0,1-.723-.723V42.288a.721.721,0,0,1,.723-.721H95.4a.723.723,0,0,0,.723-.723V37.309a.721.721,0,0,1,.721-.723h1.733a.723.723,0,0,1,.723.723" transform="translate(-73.798 -29.574)" fill="#d8d6d7"/>
          <path id="Trazado_873228" data-name="Trazado 873228" d="M144.862,63.3v1.733a.721.721,0,0,1-.721.723h-1.733a.723.723,0,0,1-.723-.723V63.3a.721.721,0,0,1,.723-.721h1.733a.72.72,0,0,1,.721.721" transform="translate(-114.531 -50.583)" fill="#d8d6d7"/>
          <path id="Trazado_873229" data-name="Trazado 873229" d="M18.892,89.279v1.733a.72.72,0,0,1-.721.721H16.439a.721.721,0,0,1-.723-.721V89.279a.723.723,0,0,1,.723-.723h1.733a.721.721,0,0,1,.721.723" transform="translate(-12.704 -71.584)" fill="#d8d6d7"/>
          <path id="Trazado_873230" data-name="Trazado 873230" d="M53.749,89.392V90.9a.836.836,0,0,1-.836.834H41.731a.814.814,0,0,1-.815-.815V89.372a.815.815,0,0,1,.815-.816H52.914a.836.836,0,0,1,.836.836" transform="translate(-33.074 -71.584)" fill="#d8d6d7"/>
          <path id="Trazado_873231" data-name="Trazado 873231" d="M119.672,89.279v1.733a.721.721,0,0,1-.723.721h-1.733a.72.72,0,0,1-.721-.721V89.279a.721.721,0,0,1,.721-.723h1.733a.723.723,0,0,1,.723.723" transform="translate(-94.169 -71.584)" fill="#d8d6d7"/>
          <path id="Trazado_873232" data-name="Trazado 873232" d="M144.862,89.279v1.733a.72.72,0,0,1-.721.721h-1.733a.721.721,0,0,1-.723-.721V89.279a.723.723,0,0,1,.723-.723h1.733a.721.721,0,0,1,.721.723" transform="translate(-114.531 -71.584)" fill="#d8d6d7"/>
          <path id="Trazado_873233" data-name="Trazado 873233" d="M149.692,37.309v1.733a.721.721,0,0,1-.723.721h-6.56a.721.721,0,0,1-.723-.721V37.309a.723.723,0,0,1,.723-.723h6.56a.723.723,0,0,1,.723.723" transform="translate(-114.531 -29.574)" fill="#d8d6d7"/>
          <path id="Trazado_873234" data-name="Trazado 873234" d="M170.054,63.3v1.733a.723.723,0,0,1-.723.723H167.6a.723.723,0,0,1-.723-.723V63.3a.721.721,0,0,1,.723-.721h1.733a.721.721,0,0,1,.723.721" transform="translate(-134.893 -50.583)" fill="#d8d6d7"/>
          <path id="Trazado_873235" data-name="Trazado 873235" d="M170.054,89.279v1.733a.721.721,0,0,1-.723.721H167.6a.721.721,0,0,1-.723-.721V89.279a.723.723,0,0,1,.723-.723h1.733a.723.723,0,0,1,.723.723" transform="translate(-134.893 -71.584)" fill="#d8d6d7"/>
          <path id="Trazado_873236" data-name="Trazado 873236" d="M195.252,37.309v1.733a.721.721,0,0,1-.723.721H192.8a.72.72,0,0,1-.723-.721V37.309a.722.722,0,0,1,.723-.723h1.731a.723.723,0,0,1,.723.723" transform="translate(-155.263 -29.574)" fill="#d8d6d7"/>
          <path id="Trazado_873237" data-name="Trazado 873237" d="M195.252,63.3v1.733a.723.723,0,0,1-.723.723H192.8a.722.722,0,0,1-.723-.723V63.3a.72.72,0,0,1,.723-.721h1.731a.721.721,0,0,1,.723.721" transform="translate(-155.263 -50.583)" fill="#d8d6d7"/>
          <path id="Trazado_873238" data-name="Trazado 873238" d="M195.252,89.279v1.733a.721.721,0,0,1-.723.721H192.8a.72.72,0,0,1-.723-.721V89.279a.722.722,0,0,1,.723-.723h1.731a.723.723,0,0,1,.723.723" transform="translate(-155.263 -71.584)" fill="#d8d6d7"/>
          <path id="Trazado_873239" data-name="Trazado 873239" d="M18.892,37.309V37.7a.721.721,0,0,1-.721.723H16.439a.723.723,0,0,1-.723-.723v-.387a.723.723,0,0,1,.723-.723h1.733a.721.721,0,0,1,.721.723" transform="translate(-12.704 -29.574)" fill="#fff"/>
          <path id="Trazado_873240" data-name="Trazado 873240" d="M44.092,37.309V37.7a.723.723,0,0,1-.723.723H41.637a.721.721,0,0,1-.721-.723v-.387a.721.721,0,0,1,.721-.723h1.733a.723.723,0,0,1,.723.723" transform="translate(-33.074 -29.574)" fill="#fff"/>
          <path id="Trazado_873241" data-name="Trazado 873241" d="M69.282,37.309V37.7a.721.721,0,0,1-.721.723H66.829a.723.723,0,0,1-.723-.723v-.387a.723.723,0,0,1,.723-.723h1.733a.721.721,0,0,1,.721.723" transform="translate(-53.436 -29.574)" fill="#fff"/>
          <path id="Trazado_873242" data-name="Trazado 873242" d="M94.474,37.309V37.7a.723.723,0,0,1-.723.723H92.019A.723.723,0,0,1,91.3,37.7v-.387a.723.723,0,0,1,.723-.723h1.733a.723.723,0,0,1,.723.723" transform="translate(-73.798 -29.574)" fill="#fff"/>
          <path id="Trazado_873243" data-name="Trazado 873243" d="M18.892,11.257v.389a.72.72,0,0,1-.721.721H16.439a.721.721,0,0,1-.723-.721v-.389a.721.721,0,0,1,.723-.721h1.733a.72.72,0,0,1,.721.721" transform="translate(-12.704 -8.517)" fill="#fff"/>
          <path id="Trazado_873244" data-name="Trazado 873244" d="M44.092,11.257v.389a.721.721,0,0,1-.723.721H41.637a.72.72,0,0,1-.721-.721v-.389a.72.72,0,0,1,.721-.721h1.733a.721.721,0,0,1,.723.721" transform="translate(-33.074 -8.517)" fill="#fff"/>
          <path id="Trazado_873245" data-name="Trazado 873245" d="M69.282,11.257v.389a.72.72,0,0,1-.721.721H66.829a.721.721,0,0,1-.723-.721v-.389a.721.721,0,0,1,.723-.721h1.733a.72.72,0,0,1,.721.721" transform="translate(-53.436 -8.517)" fill="#fff"/>
          <path id="Trazado_873246" data-name="Trazado 873246" d="M94.474,11.257v.389a.721.721,0,0,1-.723.721H92.019a.721.721,0,0,1-.723-.721v-.389a.721.721,0,0,1,.723-.721h1.733a.721.721,0,0,1,.723.721" transform="translate(-73.798 -8.517)" fill="#fff"/>
          <path id="Trazado_873247" data-name="Trazado 873247" d="M119.672,11.257v.389a.721.721,0,0,1-.723.721h-1.733a.72.72,0,0,1-.721-.721v-.389a.72.72,0,0,1,.721-.721h1.733a.721.721,0,0,1,.723.721" transform="translate(-94.169 -8.517)" fill="#fff"/>
          <path id="Trazado_873248" data-name="Trazado 873248" d="M144.862,11.257v.389a.72.72,0,0,1-.721.721h-1.733a.721.721,0,0,1-.723-.721v-.389a.721.721,0,0,1,.723-.721h1.733a.72.72,0,0,1,.721.721" transform="translate(-114.531 -8.517)" fill="#fff"/>
          <path id="Trazado_873249" data-name="Trazado 873249" d="M170.054,11.257v.389a.721.721,0,0,1-.723.721H167.6a.721.721,0,0,1-.723-.721v-.389a.721.721,0,0,1,.723-.721h1.733a.721.721,0,0,1,.723.721" transform="translate(-134.893 -8.517)" fill="#fff"/>
          <path id="Trazado_873250" data-name="Trazado 873250" d="M170.054,11.257v.389a.721.721,0,0,1-.723.721H167.6a.721.721,0,0,1-.723-.721v-.389a.721.721,0,0,1,.723-.721h1.733a.721.721,0,0,1,.723.721" transform="translate(-134.893 -8.517)" fill="#fff"/>
          <path id="Trazado_873251" data-name="Trazado 873251" d="M195.252,11.257v.389a.721.721,0,0,1-.723.721H192.8a.72.72,0,0,1-.723-.721v-.389a.72.72,0,0,1,.723-.721h1.731a.721.721,0,0,1,.723.721" transform="translate(-155.263 -8.517)" fill="#fff"/>
          <path id="Trazado_873252" data-name="Trazado 873252" d="M18.892,63.3v.389a.72.72,0,0,1-.721.721H16.439a.721.721,0,0,1-.723-.721V63.3a.721.721,0,0,1,.723-.721h1.733a.72.72,0,0,1,.721.721" transform="translate(-12.704 -50.583)" fill="#fff"/>
          <path id="Trazado_873253" data-name="Trazado 873253" d="M44.092,63.3v.389a.721.721,0,0,1-.723.721H41.637a.72.72,0,0,1-.721-.721V63.3a.72.72,0,0,1,.721-.721h1.733a.721.721,0,0,1,.723.721" transform="translate(-33.074 -50.583)" fill="#fff"/>
          <path id="Trazado_873254" data-name="Trazado 873254" d="M69.282,63.3v.389a.72.72,0,0,1-.721.721H66.829a.721.721,0,0,1-.723-.721V63.3a.721.721,0,0,1,.723-.721h1.733a.72.72,0,0,1,.721.721" transform="translate(-53.436 -50.583)" fill="#fff"/>
          <path id="Trazado_873255" data-name="Trazado 873255" d="M99.3,37.309v5.368a.721.721,0,0,1-.723.721h-6.56a.721.721,0,0,1-.723-.721v-.389a.721.721,0,0,1,.723-.721H95.4a.723.723,0,0,0,.723-.723V37.309a.721.721,0,0,1,.721-.723h1.733a.723.723,0,0,1,.723.723" transform="translate(-73.798 -29.574)" fill="#fff"/>
          <path id="Trazado_873256" data-name="Trazado 873256" d="M144.862,63.3v.389a.72.72,0,0,1-.721.721h-1.733a.721.721,0,0,1-.723-.721V63.3a.721.721,0,0,1,.723-.721h1.733a.72.72,0,0,1,.721.721" transform="translate(-114.531 -50.583)" fill="#fff"/>
          <path id="Trazado_873257" data-name="Trazado 873257" d="M18.892,89.279v.387a.72.72,0,0,1-.721.723H16.439a.722.722,0,0,1-.723-.723v-.387a.723.723,0,0,1,.723-.723h1.733a.721.721,0,0,1,.721.723" transform="translate(-12.704 -71.584)" fill="#fff"/>
          <path id="Trazado_873258" data-name="Trazado 873258" d="M53.749,89.392v.161a.836.836,0,0,1-.836.836H41.731a.814.814,0,0,1-.815-.815v-.2a.815.815,0,0,1,.815-.816H52.914a.836.836,0,0,1,.836.836" transform="translate(-33.074 -71.584)" fill="#fff"/>
          <path id="Trazado_873259" data-name="Trazado 873259" d="M119.672,89.279v.387a.722.722,0,0,1-.723.723h-1.733a.72.72,0,0,1-.721-.723v-.387a.721.721,0,0,1,.721-.723h1.733a.723.723,0,0,1,.723.723" transform="translate(-94.169 -71.584)" fill="#fff"/>
          <path id="Trazado_873260" data-name="Trazado 873260" d="M144.862,89.279v.387a.72.72,0,0,1-.721.723h-1.733a.722.722,0,0,1-.723-.723v-.387a.723.723,0,0,1,.723-.723h1.733a.721.721,0,0,1,.721.723" transform="translate(-114.531 -71.584)" fill="#fff"/>
          <path id="Trazado_873261" data-name="Trazado 873261" d="M149.692,37.309V37.7a.723.723,0,0,1-.723.723h-6.56a.723.723,0,0,1-.723-.723v-.387a.723.723,0,0,1,.723-.723h6.56a.723.723,0,0,1,.723.723" transform="translate(-114.531 -29.574)" fill="#fff"/>
          <path id="Trazado_873262" data-name="Trazado 873262" d="M170.054,63.3v.389a.721.721,0,0,1-.723.721H167.6a.721.721,0,0,1-.723-.721V63.3a.721.721,0,0,1,.723-.721h1.733a.721.721,0,0,1,.723.721" transform="translate(-134.893 -50.583)" fill="#fff"/>
          <path id="Trazado_873263" data-name="Trazado 873263" d="M170.054,89.279v.387a.722.722,0,0,1-.723.723H167.6a.722.722,0,0,1-.723-.723v-.387a.723.723,0,0,1,.723-.723h1.733a.723.723,0,0,1,.723.723" transform="translate(-134.893 -71.584)" fill="#fff"/>
          <path id="Trazado_873264" data-name="Trazado 873264" d="M195.252,37.309V37.7a.723.723,0,0,1-.723.723H192.8a.722.722,0,0,1-.723-.723v-.387a.722.722,0,0,1,.723-.723h1.731a.723.723,0,0,1,.723.723" transform="translate(-155.263 -29.574)" fill="#fff"/>
          <path id="Trazado_873265" data-name="Trazado 873265" d="M195.252,63.3v.389a.721.721,0,0,1-.723.721H192.8a.72.72,0,0,1-.723-.721V63.3a.72.72,0,0,1,.723-.721h1.731a.721.721,0,0,1,.723.721" transform="translate(-155.263 -50.583)" fill="#fff"/>
          <path id="Trazado_873266" data-name="Trazado 873266" d="M195.252,89.279v.387a.722.722,0,0,1-.723.723H192.8a.721.721,0,0,1-.723-.723v-.387a.722.722,0,0,1,.723-.723h1.731a.723.723,0,0,1,.723.723" transform="translate(-155.263 -71.584)" fill="#fff"/>
          <path id="Trazado_873267" data-name="Trazado 873267" d="M43.079,10.7H43V1.342A1.343,1.343,0,0,0,41.66,0H1.342A1.343,1.343,0,0,0,0,1.342V20.826a1.343,1.343,0,0,0,1.342,1.342H41.66A1.343,1.343,0,0,0,43,20.826V11.467h.078a3.454,3.454,0,0,1,3.45,3.45v7.172a3.454,3.454,0,0,1-3.45,3.45H25.773a4.221,4.221,0,0,0-4.216,4.216v1.1H18.3A1.343,1.343,0,0,0,16.963,32.2v7.989a4.977,4.977,0,0,0,9.954,0V32.2a1.343,1.343,0,0,0-1.342-1.342H22.323v-1.1a3.454,3.454,0,0,1,3.45-3.45H43.079A4.221,4.221,0,0,0,47.3,22.089V14.917A4.221,4.221,0,0,0,43.079,10.7m-.845,10.125a.576.576,0,0,1-.575.575H1.342a.576.576,0,0,1-.575-.575V1.342A.576.576,0,0,1,1.342.767H41.66a.576.576,0,0,1,.575.575ZM26.151,32.2v7.989a4.211,4.211,0,0,1-8.421,0V32.2a.576.576,0,0,1,.575-.575h7.271a.576.576,0,0,1,.575.575" transform="translate(0 0)" fill="#491352"/>
          <path id="Trazado_873268" data-name="Trazado 873268" d="M112.858,172.89a.383.383,0,0,0,.383-.383v-2.623a.383.383,0,0,0-.767,0v2.623a.383.383,0,0,0,.383.383" transform="translate(-90.918 -137.014)" fill="#491352"/>
          <path id="Trazado_873269" data-name="Trazado 873269" d="M16.556,34.585H14.823a1.106,1.106,0,0,0-1.105,1.105v1.733a1.107,1.107,0,0,0,1.105,1.105h1.733a1.107,1.107,0,0,0,1.105-1.105V35.69a1.107,1.107,0,0,0-1.105-1.105m.338,2.838a.339.339,0,0,1-.339.339H14.823a.339.339,0,0,1-.339-.339V35.69a.339.339,0,0,1,.339-.338h1.733a.339.339,0,0,1,.339.338Z" transform="translate(-11.089 -27.956)" fill="#491352"/>
          <path id="Trazado_873270" data-name="Trazado 873270" d="M40.017,38.528H41.75a1.107,1.107,0,0,0,1.105-1.105V35.69a1.106,1.106,0,0,0-1.105-1.105H40.017a1.106,1.106,0,0,0-1.105,1.105v1.733a1.107,1.107,0,0,0,1.105,1.105m-.339-2.838a.339.339,0,0,1,.339-.338H41.75a.339.339,0,0,1,.339.338v1.733a.339.339,0,0,1-.339.339H40.017a.339.339,0,0,1-.339-.339Z" transform="translate(-31.454 -27.956)" fill="#491352"/>
          <path id="Trazado_873271" data-name="Trazado 873271" d="M65.21,38.528h1.733a1.106,1.106,0,0,0,1.105-1.105V35.69a1.106,1.106,0,0,0-1.105-1.105H65.21a1.106,1.106,0,0,0-1.105,1.105v1.733a1.107,1.107,0,0,0,1.105,1.105m-.338-2.838a.339.339,0,0,1,.339-.338h1.733a.339.339,0,0,1,.338.338v1.733a.339.339,0,0,1-.338.339H65.21a.339.339,0,0,1-.339-.339Z" transform="translate(-51.819 -27.956)" fill="#491352"/>
          <path id="Trazado_873272" data-name="Trazado 873272" d="M90.405,38.528h1.732a1.107,1.107,0,0,0,1.105-1.105V35.69a1.106,1.106,0,0,0-1.105-1.105H90.405A1.106,1.106,0,0,0,89.3,35.69v1.733a1.107,1.107,0,0,0,1.105,1.105m-.339-2.838a.339.339,0,0,1,.339-.338h1.732a.339.339,0,0,1,.339.338v1.733a.339.339,0,0,1-.339.339H90.405a.339.339,0,0,1-.339-.339Z" transform="translate(-72.185 -27.956)" fill="#491352"/>
          <path id="Trazado_873273" data-name="Trazado 873273" d="M16.556,8.531H14.823a1.107,1.107,0,0,0-1.105,1.105v1.733a1.107,1.107,0,0,0,1.105,1.105h1.733a1.107,1.107,0,0,0,1.105-1.105V9.636a1.107,1.107,0,0,0-1.105-1.105m.338,2.838a.339.339,0,0,1-.339.339H14.823a.339.339,0,0,1-.339-.339V9.636a.339.339,0,0,1,.339-.339h1.733a.339.339,0,0,1,.339.339Z" transform="translate(-11.089 -6.896)" fill="#491352"/>
          <path id="Trazado_873274" data-name="Trazado 873274" d="M40.017,12.473H41.75a1.107,1.107,0,0,0,1.105-1.105V9.635A1.107,1.107,0,0,0,41.75,8.53H40.017a1.107,1.107,0,0,0-1.105,1.105v1.733a1.107,1.107,0,0,0,1.105,1.105m-.339-2.838a.339.339,0,0,1,.339-.339H41.75a.339.339,0,0,1,.339.339v1.733a.339.339,0,0,1-.339.339H40.017a.339.339,0,0,1-.339-.339Z" transform="translate(-31.454 -6.895)" fill="#491352"/>
          <path id="Trazado_873275" data-name="Trazado 873275" d="M65.21,12.473h1.733a1.106,1.106,0,0,0,1.105-1.105V9.635A1.106,1.106,0,0,0,66.943,8.53H65.21a1.107,1.107,0,0,0-1.105,1.105v1.733a1.107,1.107,0,0,0,1.105,1.105m-.338-2.838A.339.339,0,0,1,65.21,9.3h1.733a.339.339,0,0,1,.338.339v1.733a.339.339,0,0,1-.338.339H65.21a.339.339,0,0,1-.339-.339Z" transform="translate(-51.819 -6.895)" fill="#491352"/>
          <path id="Trazado_873276" data-name="Trazado 873276" d="M90.405,12.473h1.732a1.107,1.107,0,0,0,1.105-1.105V9.635A1.107,1.107,0,0,0,92.138,8.53H90.405A1.107,1.107,0,0,0,89.3,9.635v1.733a1.107,1.107,0,0,0,1.105,1.105m-.339-2.838a.339.339,0,0,1,.339-.339h1.732a.339.339,0,0,1,.339.339v1.733a.339.339,0,0,1-.339.339H90.405a.339.339,0,0,1-.339-.339Z" transform="translate(-72.185 -6.895)" fill="#491352"/>
          <path id="Trazado_873277" data-name="Trazado 873277" d="M117.331,8.531H115.6a1.107,1.107,0,0,0-1.105,1.105v1.733a1.107,1.107,0,0,0,1.105,1.105h1.732a1.107,1.107,0,0,0,1.105-1.105V9.636a1.107,1.107,0,0,0-1.105-1.105m.339,2.838a.339.339,0,0,1-.339.339H115.6a.339.339,0,0,1-.339-.339V9.636A.339.339,0,0,1,115.6,9.3h1.732a.339.339,0,0,1,.339.339Z" transform="translate(-92.549 -6.896)" fill="#491352"/>
          <path id="Trazado_873278" data-name="Trazado 873278" d="M140.791,12.473h1.733a1.107,1.107,0,0,0,1.105-1.105V9.635a1.107,1.107,0,0,0-1.105-1.105h-1.733a1.107,1.107,0,0,0-1.105,1.105v1.733a1.107,1.107,0,0,0,1.105,1.105m-.338-2.838a.339.339,0,0,1,.339-.339h1.733a.339.339,0,0,1,.339.339v1.733a.339.339,0,0,1-.339.339h-1.733a.339.339,0,0,1-.339-.339Z" transform="translate(-112.914 -6.895)" fill="#491352"/>
          <path id="Trazado_873279" data-name="Trazado 873279" d="M167.719,8.531h-1.732a1.107,1.107,0,0,0-1.105,1.105v1.733a1.107,1.107,0,0,0,1.105,1.105h1.732a1.107,1.107,0,0,0,1.105-1.105V9.636a1.107,1.107,0,0,0-1.105-1.105m.338,2.838a.339.339,0,0,1-.339.339h-1.732a.339.339,0,0,1-.339-.339V9.636a.339.339,0,0,1,.339-.339h1.732a.339.339,0,0,1,.339.339Z" transform="translate(-133.28 -6.896)" fill="#491352"/>
          <path id="Trazado_873280" data-name="Trazado 873280" d="M192.912,8.531h-1.733a1.107,1.107,0,0,0-1.105,1.105v1.733a1.107,1.107,0,0,0,1.105,1.105h1.733a1.106,1.106,0,0,0,1.105-1.105V9.636a1.106,1.106,0,0,0-1.105-1.105m.338,2.838a.339.339,0,0,1-.338.339h-1.733a.339.339,0,0,1-.339-.339V9.636a.339.339,0,0,1,.339-.339h1.733a.339.339,0,0,1,.338.339Z" transform="translate(-153.645 -6.896)" fill="#491352"/>
          <path id="Trazado_873281" data-name="Trazado 873281" d="M16.556,60.572H14.823a1.107,1.107,0,0,0-1.105,1.105V63.41a1.107,1.107,0,0,0,1.105,1.105h1.733a1.107,1.107,0,0,0,1.105-1.105V61.677a1.107,1.107,0,0,0-1.105-1.105m.338,2.838a.339.339,0,0,1-.339.339H14.823a.339.339,0,0,1-.339-.339V61.677a.339.339,0,0,1,.339-.339h1.733a.339.339,0,0,1,.339.339Z" transform="translate(-11.089 -48.963)" fill="#491352"/>
          <path id="Trazado_873282" data-name="Trazado 873282" d="M40.017,64.513H41.75a1.107,1.107,0,0,0,1.105-1.105V61.675A1.107,1.107,0,0,0,41.75,60.57H40.017a1.107,1.107,0,0,0-1.105,1.105v1.733a1.107,1.107,0,0,0,1.105,1.105m-.339-2.838a.339.339,0,0,1,.339-.339H41.75a.339.339,0,0,1,.339.339v1.733a.339.339,0,0,1-.339.339H40.017a.339.339,0,0,1-.339-.339Z" transform="translate(-31.454 -48.961)" fill="#491352"/>
          <path id="Trazado_873283" data-name="Trazado 873283" d="M65.21,64.513h1.733a1.106,1.106,0,0,0,1.105-1.105V61.675a1.106,1.106,0,0,0-1.105-1.105H65.21a1.107,1.107,0,0,0-1.105,1.105v1.733a1.107,1.107,0,0,0,1.105,1.105m-.338-2.838a.339.339,0,0,1,.339-.339h1.733a.339.339,0,0,1,.338.339v1.733a.339.339,0,0,1-.338.339H65.21a.339.339,0,0,1-.339-.339Z" transform="translate(-51.819 -48.961)" fill="#491352"/>
          <path id="Trazado_873284" data-name="Trazado 873284" d="M96.965,34.585H95.233a1.106,1.106,0,0,0-1.105,1.105v3.537a.339.339,0,0,1-.339.339H90.4A1.107,1.107,0,0,0,89.3,40.671V42.4A1.107,1.107,0,0,0,90.4,43.509h6.561A1.107,1.107,0,0,0,98.07,42.4V35.69a1.106,1.106,0,0,0-1.105-1.105M97.3,42.4a.339.339,0,0,1-.339.339H90.4a.339.339,0,0,1-.339-.339V40.671a.339.339,0,0,1,.339-.339h3.385a1.107,1.107,0,0,0,1.105-1.105V35.69a.339.339,0,0,1,.339-.338h1.732a.339.339,0,0,1,.339.338V42.4Z" transform="translate(-72.184 -27.956)" fill="#491352"/>
          <path id="Trazado_873285" data-name="Trazado 873285" d="M142.524,60.572h-1.733a1.107,1.107,0,0,0-1.105,1.105V63.41a1.107,1.107,0,0,0,1.105,1.105h1.733a1.107,1.107,0,0,0,1.105-1.105V61.677a1.107,1.107,0,0,0-1.105-1.105m.339,2.838a.339.339,0,0,1-.339.339h-1.733a.339.339,0,0,1-.339-.339V61.677a.339.339,0,0,1,.339-.339h1.733a.339.339,0,0,1,.339.339Z" transform="translate(-112.914 -48.963)" fill="#491352"/>
          <path id="Trazado_873286" data-name="Trazado 873286" d="M16.556,86.558H14.823a1.107,1.107,0,0,0-1.105,1.105V89.4A1.107,1.107,0,0,0,14.823,90.5h1.733A1.107,1.107,0,0,0,17.661,89.4V87.663a1.107,1.107,0,0,0-1.105-1.105m.338,2.838a.339.339,0,0,1-.339.339H14.823a.339.339,0,0,1-.339-.339V87.663a.339.339,0,0,1,.339-.339h1.733a.339.339,0,0,1,.339.339Z" transform="translate(-11.089 -69.968)" fill="#491352"/>
          <path id="Trazado_873287" data-name="Trazado 873287" d="M51.293,86.558H40.111a1.2,1.2,0,0,0-1.2,1.2V89.3a1.2,1.2,0,0,0,1.2,1.2H51.293a1.22,1.22,0,0,0,1.219-1.219V87.777a1.22,1.22,0,0,0-1.219-1.219m.452,2.724a.453.453,0,0,1-.452.452H40.111a.433.433,0,0,1-.432-.432V87.757a.433.433,0,0,1,.432-.432H51.293a.453.453,0,0,1,.452.452Z" transform="translate(-31.454 -69.968)" fill="#491352"/>
          <path id="Trazado_873288" data-name="Trazado 873288" d="M117.331,86.558H115.6a1.107,1.107,0,0,0-1.105,1.105V89.4A1.107,1.107,0,0,0,115.6,90.5h1.732a1.107,1.107,0,0,0,1.105-1.105V87.663a1.107,1.107,0,0,0-1.105-1.105m.339,2.838a.339.339,0,0,1-.339.339H115.6a.339.339,0,0,1-.339-.339V87.663a.339.339,0,0,1,.339-.339h1.732a.339.339,0,0,1,.339.339Z" transform="translate(-92.549 -69.968)" fill="#491352"/>
          <path id="Trazado_873289" data-name="Trazado 873289" d="M142.524,86.558h-1.733a1.107,1.107,0,0,0-1.105,1.105V89.4a1.107,1.107,0,0,0,1.105,1.105h1.733a1.107,1.107,0,0,0,1.105-1.105V87.663a1.107,1.107,0,0,0-1.105-1.105m.339,2.838a.339.339,0,0,1-.339.339h-1.733a.339.339,0,0,1-.339-.339V87.663a.339.339,0,0,1,.339-.339h1.733a.339.339,0,0,1,.339.339Z" transform="translate(-112.914 -69.968)" fill="#491352"/>
          <path id="Trazado_873290" data-name="Trazado 873290" d="M147.353,34.585h-6.561a1.106,1.106,0,0,0-1.105,1.105v1.733a1.107,1.107,0,0,0,1.105,1.105h6.561a1.107,1.107,0,0,0,1.105-1.105V35.69a1.107,1.107,0,0,0-1.105-1.105m.338,2.838a.339.339,0,0,1-.339.339h-6.561a.339.339,0,0,1-.339-.339V35.69a.339.339,0,0,1,.339-.338h6.561a.339.339,0,0,1,.339.338Z" transform="translate(-112.915 -27.956)" fill="#491352"/>
          <path id="Trazado_873291" data-name="Trazado 873291" d="M167.719,60.572h-1.732a1.107,1.107,0,0,0-1.105,1.105V63.41a1.107,1.107,0,0,0,1.105,1.105h1.732a1.107,1.107,0,0,0,1.105-1.105V61.677a1.107,1.107,0,0,0-1.105-1.105m.338,2.838a.339.339,0,0,1-.339.339h-1.732a.339.339,0,0,1-.339-.339V61.677a.339.339,0,0,1,.339-.339h1.732a.339.339,0,0,1,.339.339Z" transform="translate(-133.28 -48.963)" fill="#491352"/>
          <path id="Trazado_873292" data-name="Trazado 873292" d="M167.719,86.558h-1.732a1.107,1.107,0,0,0-1.105,1.105V89.4a1.107,1.107,0,0,0,1.105,1.105h1.732a1.107,1.107,0,0,0,1.105-1.105V87.663a1.107,1.107,0,0,0-1.105-1.105m.338,2.838a.339.339,0,0,1-.339.339h-1.732a.339.339,0,0,1-.339-.339V87.663a.339.339,0,0,1,.339-.339h1.732a.339.339,0,0,1,.339.339Z" transform="translate(-133.28 -69.968)" fill="#491352"/>
          <path id="Trazado_873293" data-name="Trazado 873293" d="M192.912,34.585h-1.733a1.106,1.106,0,0,0-1.105,1.105v1.733a1.107,1.107,0,0,0,1.105,1.105h1.733a1.106,1.106,0,0,0,1.105-1.105V35.69a1.106,1.106,0,0,0-1.105-1.105m.338,2.838a.339.339,0,0,1-.338.339h-1.733a.339.339,0,0,1-.339-.339V35.69a.339.339,0,0,1,.339-.338h1.733a.339.339,0,0,1,.338.338Z" transform="translate(-153.645 -27.956)" fill="#491352"/>
          <path id="Trazado_873294" data-name="Trazado 873294" d="M192.912,60.572h-1.733a1.107,1.107,0,0,0-1.105,1.105V63.41a1.107,1.107,0,0,0,1.105,1.105h1.733a1.107,1.107,0,0,0,1.105-1.105V61.677a1.106,1.106,0,0,0-1.105-1.105m.338,2.838a.339.339,0,0,1-.338.339h-1.733a.339.339,0,0,1-.339-.339V61.677a.339.339,0,0,1,.339-.339h1.733a.339.339,0,0,1,.338.339Z" transform="translate(-153.645 -48.963)" fill="#491352"/>
          <path id="Trazado_873295" data-name="Trazado 873295" d="M192.912,86.558h-1.733a1.107,1.107,0,0,0-1.105,1.105V89.4a1.107,1.107,0,0,0,1.105,1.105h1.733a1.107,1.107,0,0,0,1.105-1.105V87.663a1.106,1.106,0,0,0-1.105-1.105m.338,2.838a.339.339,0,0,1-.338.339h-1.733a.339.339,0,0,1-.339-.339V87.663a.339.339,0,0,1,.339-.339h1.733a.339.339,0,0,1,.338.339Z" transform="translate(-153.645 -69.968)" fill="#491352"/>
        </g>
      </g>
    </g>
    <g id="Grupo_1098894" data-name="Grupo 1098894" transform="translate(-7388 -11663)">
      <circle id="Elipse_11447" data-name="Elipse 11447" cx="43" cy="43" r="43" transform="translate(911 4308)" fill="#fff"/>
      <g id="Grupo_1098891" data-name="Grupo 1098891" transform="translate(944 4331)">
        <g id="Grupo_1098890" data-name="Grupo 1098890" clip-path="url(#clip-path-4)">
          <path id="Trazado_873296" data-name="Trazado 873296" d="M12.406,83.646h0A9.406,9.406,0,0,1,3,74.24V67.014a9.406,9.406,0,0,1,18.812,0V74.24a9.406,9.406,0,0,1-9.406,9.406" transform="translate(-2.345 -45.024)" fill="#fd919e"/>
          <path id="Trazado_873297" data-name="Trazado 873297" d="M40.443,57.609h0a9.438,9.438,0,0,0-1.57.133,9.407,9.407,0,0,1,7.836,9.273v7.226a9.407,9.407,0,0,1-7.836,9.273,9.4,9.4,0,0,0,10.976-9.273V67.015a9.406,9.406,0,0,0-9.406-9.406" transform="translate(-30.382 -45.025)" fill="#e8677d"/>
          <path id="Trazado_873298" data-name="Trazado 873298" d="M40.071,85.342h0A1.674,1.674,0,0,1,38.4,83.668V79.512a1.674,1.674,0,1,1,3.348,0v4.156a1.674,1.674,0,0,1-1.674,1.674" transform="translate(-30.01 -60.835)" fill="#7bacf1"/>
          <path id="Trazado_873299" data-name="Trazado 873299" d="M10.061,81.956A10.073,10.073,0,0,1,0,71.9V64.669a10.061,10.061,0,0,1,20.123,0V71.9A10.073,10.073,0,0,1,10.061,81.956m0-26.037a8.761,8.761,0,0,0-8.751,8.751V71.9a8.751,8.751,0,1,0,17.5,0V64.669a8.761,8.761,0,0,0-8.751-8.751" transform="translate(0 -42.68)" fill="#4c4372"/>
          <path id="Trazado_873300" data-name="Trazado 873300" d="M37.726,83.653A2.332,2.332,0,0,1,35.4,81.323V77.167a2.329,2.329,0,0,1,4.658,0v4.156a2.332,2.332,0,0,1-2.329,2.329m0-7.5a1.02,1.02,0,0,0-1.019,1.019v4.156a1.019,1.019,0,1,0,2.037,0V77.167a1.02,1.02,0,0,0-1.019-1.019" transform="translate(-27.665 -58.49)" fill="#4c4372"/>
          <path id="Trazado_873301" data-name="Trazado 873301" d="M14.724,13.239a.655.655,0,0,1-.655-.655v-2a3.022,3.022,0,0,1,3.019-3.019h3.646a1.708,1.708,0,1,0,0-3.416H8.985A3.022,3.022,0,0,1,5.966,1.128V.655a.655.655,0,1,1,1.311,0v.473A1.71,1.71,0,0,0,8.985,2.836H20.733a3.018,3.018,0,1,1,0,6.037H17.087a1.71,1.71,0,0,0-1.708,1.708v2a.655.655,0,0,1-.655.655" transform="translate(-4.663)" fill="#4c4372"/>
        </g>
      </g>
    </g>
    <path id="Trazado_873818" data-name="Trazado 873818" d="M-6560-7625h32.13" transform="translate(-97 115)" fill="none" stroke="#707070" stroke-width="1"/>
    <path id="Trazado_873819" data-name="Trazado 873819" d="M-6560-7625h32.13" transform="translate(-97 213.936)" fill="none" stroke="#707070" stroke-width="1"/>
    <path id="Trazado_873820" data-name="Trazado 873820" d="M-6560-7625h32.13" transform="translate(-97 308.5)" fill="none" stroke="#707070" stroke-width="1"/>
  </g>
</svg>
