<svg id="a1" xmlns="http://www.w3.org/2000/svg" width="106.32" height="90.518" viewBox="0 0 106.32 90.518">
  <path id="Trazado_873804" data-name="Trazado 873804" d="M35.107,36.644l-.121,42.793L75.874,55.574l.119-42.791Z" transform="translate(30.326 11.08)" fill="#d5900e"/>
  <path id="Trazado_873805" data-name="Trazado 873805" d="M12.94,55.576,54.1,79.437l.119-42.793L13.062,12.783Z" transform="translate(11.217 11.08)" fill="#ffc400"/>
  <path id="Trazado_873806" data-name="Trazado 873806" d="M53.892,0,13.005,23.863l41.154,23.86,40.887-23.86Z" transform="translate(11.273 0)" fill="#ffde38"/>
  <path id="Trazado_873807" data-name="Trazado 873807" d="M33.263,23.082,33.2,45.657,11.63,58.245l.063-22.575Z" transform="translate(10.081 20.007)" fill="#291069"/>
  <path id="Trazado_873808" data-name="Trazado 873808" d="M0,45.657,21.711,58.245l.063-22.575L.063,23.082Z" transform="translate(0 20.008)" fill="#442397"/>
  <path id="Trazado_873809" data-name="Trazado 873809" d="M.034,28.926,21.745,41.514,43.314,28.926,21.6,16.338Z" transform="translate(0.03 14.162)" fill="#5430af"/>
</svg>
