<svg id="_1" data-name="1" xmlns="http://www.w3.org/2000/svg" xmlns:xlink="http://www.w3.org/1999/xlink" width="229.936" height="184.812" viewBox="0 0 229.936 184.812">
  <defs>
    <clipPath id="clip-path">
      <rect id="Rectángulo_401089" data-name="Rectángulo 401089" width="229.936" height="184.812" fill="none"/>
    </clipPath>
    <clipPath id="clip-path-3">
      <rect id="Rectángulo_401084" data-name="Rectángulo 401084" width="85.56" height="45.192" fill="none"/>
    </clipPath>
    <clipPath id="clip-path-4">
      <rect id="Rectángulo_401085" data-name="Rectángulo 401085" width="3.554" height="3.199" fill="none"/>
    </clipPath>
  </defs>
  <g id="Grupo_1099283" data-name="Grupo 1099283" clip-path="url(#clip-path)">
    <g id="Grupo_1099282" data-name="Grupo 1099282" transform="translate(0 0)">
      <g id="Grupo_1099281" data-name="Grupo 1099281" clip-path="url(#clip-path)">
        <path id="Trazado_873732" data-name="Trazado 873732" d="M227.738,667.4a35.567,35.567,0,0,0-19.658-17.283c-9.036-3.293-19.412-2.095-28.93-3.2-8.266-.958-14.23-4.279-19.166-10.184-4.729-5.657-8.97-11.923-16.7-14.54-6.11-2.068-13.056-1.495-19.129.66-11.19,3.971-19.641,12.413-26.759,20.823-6.5,7.679-11.8,16.087-23.819,16.362s-23.479-5.9-35.589-4.264C21.98,657.935,8.65,669.926,5.857,684.2c-2.618,13.379,3.951,26.355,15.237,33.98H215.072c14.22-13.576,21.682-32.33,12.666-50.786" transform="translate(-4.459 -533.72)" fill="#f2e5fd"/>
        <path id="Trazado_873733" data-name="Trazado 873733" d="M275.983,931.5h.534a36.2,36.2,0,0,0,8.454-13.051,31.079,31.079,0,0,0-.354-23.615,66.235,66.235,0,0,0-6.241-10.363,64.693,64.693,0,0,1-6.3-10.5,21.619,21.619,0,0,1-1.458-4.854c-.134-.016-.268-.029-.4-.043a21.9,21.9,0,0,0,1.5,5.026,64.938,64.938,0,0,0,6.328,10.561,65.952,65.952,0,0,1,6.21,10.308,30.761,30.761,0,0,1,.347,23.373,35.854,35.854,0,0,1-8.618,13.163" transform="translate(-228.058 -747.039)" fill="#fff"/>
        <path id="Trazado_873734" data-name="Trazado 873734" d="M603.814,719.482c4,.766,7.848,1.454,11.573,1.886.064-.111.126-.222.189-.333-3.756-.43-7.643-1.122-11.68-1.9-6.147-1.179-12.8-2.455-19.4-2.455a37.919,37.919,0,0,0-12.061,1.793,25.839,25.839,0,0,0-4.268,1.867c-3.531-1.354-7.08-2.833-10.6-4.456q3.827-2.595,7.736-5.061c19.344-12.156,37.2-19.048,54.444-21-.034-.114-.071-.227-.107-.341-17.293,1.972-35.185,8.881-54.561,21.057q-3.992,2.509-7.9,5.171c-3.954-1.839-7.861-3.859-11.643-6.089A99.072,99.072,0,0,1,523.4,692.135c27.609-2.787,55.718-6.3,78.673-20.106.872-.524,1.837-1.142,2.838-1.844-.111-.071-.222-.14-.334-.21-.959.668-1.883,1.258-2.72,1.762-22.949,13.8-51.11,17.288-78.755,20.075a67.159,67.159,0,0,1-12.659-19.369c-4.87-11.608-4.612-23,.705-31.253.231-.358.475-.711.726-1.061-.222.092-.442.187-.662.282-.137.2-.271.4-.4.6-5.377,8.346-5.644,19.846-.733,31.553a67.388,67.388,0,0,0,12.561,19.291q-2.4.242-4.8.479c-5.757.572-11.71,1.163-17.49,1.833-2.11.244-4.255.53-6.39.887-4.577-8.693-9.6-17.173-16.1-24.446-.093.083-.188.164-.281.247,6.443,7.218,11.439,15.635,15.988,24.267-9.312,1.6-18.354,4.6-23.182,11.6-4.509,6.531-4.5,15.558.012,26.831q.234.584.48,1.156h.418c-.179-.418-.357-.84-.531-1.275-4.474-11.167-4.49-20.092-.048-26.527,4.771-6.91,13.763-9.874,23.023-11.453,1.616,3.076,3.176,6.177,4.728,9.259l.169.335c5.387,10.7,10.959,21.031,18.255,29.661h.487c-7.362-8.647-12.965-19.037-18.386-29.806l-.169-.335c-1.538-3.056-3.086-6.131-4.687-9.18,2.094-.348,4.2-.627,6.268-.867,5.777-.669,11.727-1.261,17.483-1.832q2.521-.25,5.051-.5a99.284,99.284,0,0,0,22.391,17.733c3.74,2.205,7.6,4.207,11.512,6.03-6.635,4.516-13.09,9.268-19.392,13.908q-3.273,2.41-6.614,4.853h.619q3.148-2.3,6.242-4.581c6.346-4.672,12.846-9.458,19.529-14,3.5,1.619,7.026,3.095,10.538,4.447a26.985,26.985,0,0,0-11.087,12.178c-.3.647-.555,1.3-.795,1.957h.411c.226-.611.469-1.22.745-1.823A26.614,26.614,0,0,1,568.2,720.738a277.556,277.556,0,0,0,27.755,8.747l.312.083a57.518,57.518,0,0,1,10.228,3.413l.265-.272a57.338,57.338,0,0,0-10.382-3.477l-.312-.083a278.142,278.142,0,0,1-27.455-8.635,25.438,25.438,0,0,1,3.961-1.708c10.12-3.375,21.343-1.223,31.245.676" transform="translate(-394.139 -550.245)" fill="#fff"/>
        <path id="Trazado_873735" data-name="Trazado 873735" d="M55.639,967.213a25.57,25.57,0,0,1-2.109,18.8,33.064,33.064,0,0,1-8.473,9.848c.071.1.144.2.216.3a33.437,33.437,0,0,0,8.607-9.989,25.894,25.894,0,0,0,2.138-19.043,23.751,23.751,0,0,0-7.888-12.349l-.252.269a23.41,23.41,0,0,1,7.761,12.163" transform="translate(-38.027 -820.715)" fill="#fff"/>
        <path id="Trazado_873736" data-name="Trazado 873736" d="M545.97,453.68a12.17,12.17,0,0,1,3.048,13.243c-1.814,4.7-5.791,8.593-10.569,11.1-3.844,2.014-8.859,3.124-12.64,1.016a8.981,8.981,0,0,1-4.372-7.658,18.336,18.336,0,0,1,2.417-8.626c1.947-3.835,4.567-7.555,8.471-9.887,5.381-3.215,10.38-2.188,13.646.816" transform="translate(-440.074 -387.577)" fill="#f7eefe"/>
        <path id="Trazado_873737" data-name="Trazado 873737" d="M237.8,11.31H209.666V0H237.8Zm-27.553-.527h26.968V.524H210.251Z" transform="translate(-176.952 0.003)" fill="#e9ddca"/>
        <path id="Trazado_873738" data-name="Trazado 873738" d="M120.484,88.354H92.346V77.042h28.138Zm-27.553-.527H119.9V77.569H92.931Z" transform="translate(-77.937 -66.224)" fill="#e9ddca"/>
        <path id="Trazado_873739" data-name="Trazado 873739" d="M794.289,54.545a38.377,38.377,0,0,0-9.614-15.034q-6.9-6.864-18.808-11.342T735.6,23.687a130.865,130.865,0,0,0-29.851,3.555A94.129,94.129,0,0,0,679.331,37.4l9.717,24.008-5.208,3.8,7.553,2a118.081,118.081,0,0,1,20.377-7.65,77.814,77.814,0,0,1,19.518-2.37q10.329,0,15.64,4.482a13.7,13.7,0,0,1,5.307,10.818,19.545,19.545,0,0,1-5.447,13.583q-5.466,5.937-12.062,12-4.583,4.211-8.895,8.7a62.97,62.97,0,0,0-7.605,9.634,49.8,49.8,0,0,0-5.307,11.076,41.228,41.228,0,0,0-2.009,13.317c0,1.588.037,3.477.14,5.675.017.406.041.8.068,1.191h-7.141l7.792,4.742h37.886a20.426,20.426,0,0,1-.29-3.692v-3.168a20.944,20.944,0,0,1,2.009-8.835,44.506,44.506,0,0,1,5.026-8.311,63.127,63.127,0,0,1,6.746-7.513q3.728-3.568,7.176-6.732,4.583-4.211,9.465-8.964a71.954,71.954,0,0,0,8.614-10.02,54.11,54.11,0,0,0,6.166-11.48A36.76,36.76,0,0,0,797.017,70.1a49.349,49.349,0,0,0-2.728-15.558" transform="translate(-573.336 -20.361)" fill="#3a1d71"/>
        <path id="Trazado_873740" data-name="Trazado 873740" d="M683.178,51.858a78.442,78.442,0,0,0-19.289,2.293,118.277,118.277,0,0,0-20.138,7.4L631.83,32.713a94.22,94.22,0,0,1,26.1-9.83,131.939,131.939,0,0,1,29.5-3.44q18.144,0,29.916,4.338t18.587,10.977a37.057,37.057,0,0,1,9.5,14.55,46.873,46.873,0,0,1,2.7,15.057,34.923,34.923,0,0,1-2.419,13.146,52.029,52.029,0,0,1-6.094,11.11,70.063,70.063,0,0,1-8.513,9.7q-4.82,4.6-9.354,8.675-3.407,3.066-7.091,6.515A61.506,61.506,0,0,0,708,120.778a42.892,42.892,0,0,0-4.968,8.044,19.923,19.923,0,0,0-1.985,8.55v3.066a19.377,19.377,0,0,0,.286,3.573H663.889a32.3,32.3,0,0,1-.711-5.742c-.1-2.127-.139-3.955-.139-5.493a39.139,39.139,0,0,1,1.985-12.888,47.755,47.755,0,0,1,5.245-10.719,61.136,61.136,0,0,1,7.516-9.323q4.252-4.338,8.79-8.418,6.523-5.871,11.92-11.617a18.707,18.707,0,0,0,5.383-13.146,13.16,13.16,0,0,0-5.245-10.47q-5.249-4.338-15.457-4.338" transform="translate(-533.246 -16.713)" fill="#00ffdf"/>
        <path id="Trazado_873741" data-name="Trazado 873741" d="M912.618,1059.5q0,9.221-6.634,14.236a24.925,24.925,0,0,1-30.01,0q-6.623-5.019-6.626-14.236t6.626-14.236a25.132,25.132,0,0,1,24.849-2.693c7.072,3.22,11.8,9.758,11.8,16.93" transform="translate(-733.704 -894.36)" fill="#3a1d71"/>
        <path id="Trazado_873742" data-name="Trazado 873742" d="M865.117,1058.151q0,9.22-6.634,14.236a24.926,24.926,0,0,1-30.011,0q-6.622-5.019-6.626-14.236t6.626-14.236a24.926,24.926,0,0,1,30.011,0q6.634,5.029,6.634,14.236" transform="translate(-693.615 -893.015)" fill="#00ffdf"/>
        <path id="Trazado_873743" data-name="Trazado 873743" d="M335.917,526.056a3.449,3.449,0,0,1-1.063,5.1,4.371,4.371,0,0,1-5.671-.957,3.449,3.449,0,0,1,1.063-5.1,4.371,4.371,0,0,1,5.671.957" transform="translate(-277.219 -450.815)" fill="#d3dfff"/>
        <path id="Trazado_873744" data-name="Trazado 873744" d="M368.026,589.552a2.3,2.3,0,0,1-2.694,1.647,2.1,2.1,0,0,1-1.849-2.413,2.3,2.3,0,0,1,2.694-1.647,2.1,2.1,0,0,1,1.849,2.413" transform="translate(-306.736 -504.665)" fill="#d3dfff"/>
        <path id="Trazado_873745" data-name="Trazado 873745" d="M218.97,333.088c-1.635,7.848-10.029,13.017-18.749,11.547s-14.465-9.025-12.83-16.873,10.029-13.017,18.75-11.546,14.465,9.025,12.83,16.873" transform="translate(-157.917 -271.598)" fill="#d3dfff"/>
        <path id="Trazado_873746" data-name="Trazado 873746" d="M241.633,407.793a2.035,2.035,0,1,1-2.024-1.821,1.931,1.931,0,0,1,2.024,1.821" transform="translate(-200.515 -348.967)" fill="#fff"/>
        <path id="Trazado_873747" data-name="Trazado 873747" d="M281.168,407.793a2.035,2.035,0,1,1-2.024-1.821,1.931,1.931,0,0,1,2.024,1.821" transform="translate(-233.881 -348.967)" fill="#fff"/>
        <path id="Trazado_873748" data-name="Trazado 873748" d="M320.7,407.793a2.035,2.035,0,1,1-2.024-1.821,1.931,1.931,0,0,1,2.024,1.821" transform="translate(-267.247 -348.967)" fill="#fff"/>
        <path id="Trazado_873749" data-name="Trazado 873749" d="M215.8,1227.725l1.5,5.207a3.311,3.311,0,0,0,3.465,2.177c4.922-.3,15.147-1.386,21.016-5.279l-1.668-7.505c-8.069-.41-15.616-.006-22.151,1.973a2.849,2.849,0,0,0-2.163,3.426" transform="translate(-182.044 -1050.568)" fill="#102048"/>
        <path id="Trazado_873750" data-name="Trazado 873750" d="M264.657,1249.282a.193.193,0,0,1-.188-.128l-2.015-6.494a.174.174,0,0,1,.135-.216.2.2,0,0,1,.24.122l2.015,6.494a.174.174,0,0,1-.135.216.223.223,0,0,1-.053.006" transform="translate(-221.497 -1067.98)" fill="#fff"/>
        <path id="Trazado_873751" data-name="Trazado 873751" d="M292.574,1243.031a.193.193,0,0,1-.188-.128l-2.015-6.494a.174.174,0,0,1,.135-.216.2.2,0,0,1,.24.122l2.015,6.494a.174.174,0,0,1-.135.216.217.217,0,0,1-.053.006" transform="translate(-245.059 -1062.606)" fill="#fff"/>
        <path id="Trazado_873752" data-name="Trazado 873752" d="M235.5,1054.616l-18.755,5.009,13.928,17.175,20,1.431,27.581-10.5-10.481-14.193Z" transform="translate(-182.93 -905.608)" fill="#fbc343"/>
        <path id="Trazado_873753" data-name="Trazado 873753" d="M363.8,1064.518c41.188-10.973,47.807,21.786-16.457,27.75a27.36,27.36,0,0,1-5.976-9.621l33.937-14.114Z" transform="translate(-288.108 -913.125)" fill="#f0c518"/>
        <path id="Trazado_873754" data-name="Trazado 873754" d="M440.148,1235.268a18.657,18.657,0,0,1-3.772-1.652l-6.62,1.869,1.517,6.48,6.877,1.257a12.2,12.2,0,0,0,2-7.954" transform="translate(-362.702 -1060.397)" fill="#f9b384"/>
        <path id="Trazado_873755" data-name="Trazado 873755" d="M340.724,1112.933l-.294-.455c7.08-3.7,25.215-12.6,40.665-15.222l.108.517c-15.362,2.608-33.426,11.471-40.48,15.16" transform="translate(-287.313 -943.183)" fill="#e49b31"/>
        <path id="Trazado_873756" data-name="Trazado 873756" d="M171.916,1055.954c-38.338-6.56-48.267,26.6,16,32.56a20.513,20.513,0,0,0,5.1-8.349,302.5,302.5,0,0,0-33.006-16.976Z" transform="translate(-119.342 -906.947)" fill="#f0c518"/>
        <path id="Trazado_873757" data-name="Trazado 873757" d="M271,1112.073c-1.824-1.045-3.724-2.149-5.736-3.318-10.1-5.868-21.546-12.519-31.271-16.312l.233-.483c9.77,3.81,21.238,10.474,31.356,16.353,2.011,1.169,3.911,2.272,5.733,3.316Z" transform="translate(-197.483 -938.632)" fill="#e49b31"/>
        <path id="Trazado_873758" data-name="Trazado 873758" d="M153.906,1147.937l-.512-.254a10.68,10.68,0,0,1,6.851-4.7l.156.507a9.993,9.993,0,0,0-6.495,4.447" transform="translate(-129.46 -982.49)" fill="#e49b31"/>
        <path id="Trazado_873759" data-name="Trazado 873759" d="M634.378,1133.721a9.994,9.994,0,0,0-6.495-4.447l.156-.507a10.681,10.681,0,0,1,6.851,4.7Z" transform="translate(-529.915 -970.27)" fill="#e49b31"/>
        <path id="Trazado_873760" data-name="Trazado 873760" d="M414.157,1230.4l-.428-.359a19.213,19.213,0,0,0,5.758-9.54l.573.108a19.709,19.709,0,0,1-5.9,9.791" transform="translate(-349.175 -1049.125)" fill="#e49b31"/>
        <path id="Trazado_873761" data-name="Trazado 873761" d="M504.669,1226.443c-4.912-2.731-14.434,1.988-16.824,2.226a6.347,6.347,0,0,1-2.3-.3,12.2,12.2,0,0,1-2,7.954l1.168.214a37.981,37.981,0,0,0,16.641,1.113c7.907-1.431,7.171-9.064,3.31-11.211" transform="translate(-408.103 -1053.502)" fill="#102048"/>
        <path id="Trazado_873762" data-name="Trazado 873762" d="M570.186,1248.509a.222.222,0,0,1-.059-.008.173.173,0,0,1-.127-.22c.583-1.663.838-4.935-.852-7.131a.165.165,0,0,1,.049-.244.209.209,0,0,1,.271.044c1.77,2.3,1.51,5.708.9,7.437a.194.194,0,0,1-.186.123" transform="translate(-480.315 -1066.635)" fill="#fff"/>
        <path id="Trazado_873763" data-name="Trazado 873763" d="M545.5,1253.2a.212.212,0,0,1-.059-.008.173.173,0,0,1-.127-.22c.583-1.663.838-4.934-.852-7.131a.165.165,0,0,1,.049-.244.209.209,0,0,1,.271.044c1.77,2.3,1.51,5.708.9,7.437a.194.194,0,0,1-.186.123" transform="translate(-459.48 -1070.666)" fill="#fff"/>
        <path id="Trazado_873764" data-name="Trazado 873764" d="M231.811,661.7s9.655-7.389,9.3-8.793c-.256-1-2.991.468-2.991.468s3.836-4.1,3.641-4.593c-.349-.889-3,.768-3,.768s1.793-2.323.936-2.7-2.726,1.053-2.726,1.053,1.092-1.289.579-1.628-2.726,1.053-2.726,1.053.794-1.626-.893-1.01-13.517,10.387-13.517,10.387Z" transform="translate(-186.02 -555.446)" fill="#f9b384"/>
        <path id="Trazado_873765" data-name="Trazado 873765" d="M294.537,678.463a.207.207,0,0,1-.132-.046,9.134,9.134,0,0,0-4.216-2.2.173.173,0,0,1-.129-.219.2.2,0,0,1,.244-.116,9.454,9.454,0,0,1,4.365,2.276.163.163,0,0,1,.012.248.2.2,0,0,1-.144.057" transform="translate(-244.795 -580.97)" fill="#e28b6d"/>
        <path id="Trazado_873766" data-name="Trazado 873766" d="M299.1,706.1l-.027,0a.18.18,0,0,1-.166-.2,2.876,2.876,0,0,1,1.307-2.334,2.783,2.783,0,0,1,2.279.091.169.169,0,0,1,.1.231.2.2,0,0,1-.256.091,2.393,2.393,0,0,0-1.934-.107,2.607,2.607,0,0,0-1.112,2.077.189.189,0,0,1-.193.151" transform="translate(-252.268 -604.599)" fill="#e28b6d"/>
        <path id="Trazado_873767" data-name="Trazado 873767" d="M296.184,655.52a.205.205,0,0,1-.142-.055.163.163,0,0,1,.008-.248l2.423-2.055a.21.21,0,0,1,.276.007.163.163,0,0,1-.008.248l-2.423,2.055a.206.206,0,0,1-.134.048" transform="translate(-249.806 -561.406)" fill="#e28b6d"/>
        <path id="Trazado_873768" data-name="Trazado 873768" d="M310.559,659.741a.206.206,0,0,1-.135-.049.163.163,0,0,1-.006-.248l2.327-2.182a.21.21,0,0,1,.276-.005.163.163,0,0,1,.006.248l-2.327,2.182a.206.206,0,0,1-.141.054" transform="translate(-261.938 -564.926)" fill="#e28b6d"/>
        <path id="Trazado_873769" data-name="Trazado 873769" d="M325.246,671.061a.206.206,0,0,1-.133-.047.163.163,0,0,1-.01-.248L326.929,669a.211.211,0,0,1,.276-.009.163.163,0,0,1,.01.248L325.389,671a.206.206,0,0,1-.143.056" transform="translate(-274.334 -575.016)" fill="#e28b6d"/>
        <path id="Trazado_873770" data-name="Trazado 873770" d="M315.191,852.248l-35.3,1.229-3.9-28.961s11.818-10.088,16.365-13.8l7.676-.354c23.815,9.742,19.915,21.909,15.161,41.889" transform="translate(-232.927 -696.572)" fill="#3a6bea"/>
        <path id="Trazado_873771" data-name="Trazado 873771" d="M430.068,810.359s27.246,2.1,35.835,18.9c8.4,16.438-26.135,22.291-26.135,22.291Z" transform="translate(-362.965 -696.572)" fill="#3a1d71"/>
        <path id="Trazado_873772" data-name="Trazado 873772" d="M104.407,725.362l11.259-12.33-10.529-5.742a134.016,134.016,0,0,0-20.082,16.022,13.133,13.133,0,0,0-3.455,5.374,10.451,10.451,0,0,0-.33,5.046c.781,4.3,4.544,7.626,9.566,8.155,4.289.452,20.674-.7,33.936-4.212l3.9-13.549c-2-1.024-16.9-1.2-24.266,1.236" transform="translate(-68.448 -607.975)" fill="#3a1d71"/>
        <g id="Grupo_1099277" data-name="Grupo 1099277" transform="translate(18.409 103.393)" opacity="0.8">
          <g id="Grupo_1099276" data-name="Grupo 1099276">
            <g id="Grupo_1099275" data-name="Grupo 1099275" clip-path="url(#clip-path-3)">
              <path id="Trazado_873773" data-name="Trazado 873773" d="M503.639,828.225l.176-.036c-.123-.066-.247-.129-.37-.194-2,.414-4.057.836-6.088,1.057-1.22.132-5.3.375-6.49-2.07a3.514,3.514,0,0,1,.526-3.519l-.292-.075a3.724,3.724,0,0,0-.5,3.7c1.272,2.612,5.521,2.364,6.793,2.226,2.089-.227,4.2-.664,6.246-1.088" transform="translate(-432.207 -811.164)" fill="#fff"/>
              <path id="Trazado_873774" data-name="Trazado 873774" d="M609.7,987.752a9.892,9.892,0,0,0-4.06-.8,5.345,5.345,0,0,0-4.73,4.919,7.254,7.254,0,0,0,2.016,5.065l.249-.141a7.02,7.02,0,0,1-1.973-4.912,5.061,5.061,0,0,1,4.465-4.67A9.553,9.553,0,0,1,609.6,988c.474.165.956.331,1.446.472.025-.085.05-.17.073-.256-.477-.138-.949-.3-1.413-.462" transform="translate(-525.554 -951.744)" fill="#fff"/>
              <path id="Trazado_873775" data-name="Trazado 873775" d="M143.035,925.367c-1.7-1.266-4.344-1.6-7.25-.928a12.842,12.842,0,0,0-6.339,3.377c.1.029.2.062.3.089a12.618,12.618,0,0,1,6.112-3.211c2.814-.655,5.363-.335,6.991.876a5.783,5.783,0,0,1,1.719,2.13l.3-.031a6.081,6.081,0,0,0-1.835-2.3" transform="translate(-127.657 -897.732)" fill="#fff"/>
              <path id="Trazado_873776" data-name="Trazado 873776" d="M117.982,746.555a37.744,37.744,0,0,0,9.166-3.2,9.882,9.882,0,0,0,3.169-2.33,3.692,3.692,0,0,0,.814-3.564,2.768,2.768,0,0,0-.794-1.127l-.225.166a2.528,2.528,0,0,1,.741,1.043,3.451,3.451,0,0,1-.771,3.326A9.624,9.624,0,0,1,127,743.126a36.911,36.911,0,0,1-8.639,3.074l-.381.356" transform="translate(-117.982 -736.333)" fill="#fff"/>
            </g>
          </g>
        </g>
        <path id="Trazado_873777" data-name="Trazado 873777" d="M392.763,761.78l0,.449-.079,6.983-.01.757A4.136,4.136,0,0,1,391.245,773a5.11,5.11,0,0,1-3.378,1.268,4.619,4.619,0,0,1-4.861-4.308l-.094-8.63Z" transform="translate(-323.167 -654.432)" fill="#f9b384"/>
        <path id="Trazado_873778" data-name="Trazado 873778" d="M412.66,767.706l-.079,6.983a11.506,11.506,0,0,1-6.088-5.781Z" transform="translate(-343.068 -659.908)" fill="#102048"/>
        <path id="Trazado_873779" data-name="Trazado 873779" d="M389.074,677.178c1.545,1.669,6.058,11.126,1.484,14.353-5.148,3.631-12.982-2.336-12.982-2.336l-1.051-11.015,6.8-1.613Z" transform="translate(-317.776 -581.565)" fill="#f9b384"/>
        <path id="Trazado_873780" data-name="Trazado 873780" d="M313.151,676.6s-15.083,7.079-2.785,27.486a6.514,6.514,0,0,0,8.071,2.486,5.26,5.26,0,0,0,2.683-7.689c-2.012-3.216-3.953-7.357-3.124-10.439Z" transform="translate(-257.866 -581.598)" fill="#102048"/>
        <path id="Trazado_873781" data-name="Trazado 873781" d="M345.462,677.992a4.1,4.1,0,1,1-4.08-3.672,3.892,3.892,0,0,1,4.08,3.672" transform="translate(-284.673 -579.635)" fill="#fbc343"/>
        <path id="Trazado_873782" data-name="Trazado 873782" d="M354.841,656.319c-.441-2.291-.709-3.862,1.863-5.042,0,0,9.067,1.484,10.8-1.595s-.907-7.937-6.429-4.562c-14.136-2.485-16.031,9.42-11.745,13.389l4.23-.584a1.411,1.411,0,0,0,1.283-1.606" transform="translate(-293.114 -553.55)" fill="#102048"/>
        <path id="Trazado_873783" data-name="Trazado 873783" d="M437.952,728.614a.606.606,0,1,1-.6-.542.575.575,0,0,1,.6.542" transform="translate(-368.601 -625.838)" fill="#102048"/>
        <path id="Trazado_873784" data-name="Trazado 873784" d="M464.1,715.737a.606.606,0,1,1-.6-.542.575.575,0,0,1,.6.542" transform="translate(-390.67 -614.771)" fill="#102048"/>
        <path id="Trazado_873785" data-name="Trazado 873785" d="M456.974,728.491a.18.18,0,0,1-.117-.042.143.143,0,0,1-.006-.217c.242-.229.507-.551.4-.784s-.6-.347-.828-.347c-.481,0-.712-.77-.753-.924a.154.154,0,0,1,.126-.185.172.172,0,0,1,.206.113c.088.325.287.689.421.689.23,0,.934.1,1.141.533.148.311-.007.687-.461,1.117a.179.179,0,0,1-.124.048" transform="translate(-384.563 -624.046)" fill="#102048"/>
        <path id="Trazado_873786" data-name="Trazado 873786" d="M449.983,754.352a.184.184,0,0,1-.1-.026,2.5,2.5,0,0,0-2.292-.105.181.181,0,0,1-.233-.057.146.146,0,0,1,.063-.21,2.843,2.843,0,0,1,2.653.117.144.144,0,0,1,.046.213.177.177,0,0,1-.142.068" transform="translate(-377.542 -647.849)" fill="#102048"/>
        <path id="Trazado_873787" data-name="Trazado 873787" d="M425.018,713.649c.343.581-.255.7-.955,1.032s-1.417.457-1.58.18.271-.773.971-1.108,1.3-.554,1.564-.1" transform="translate(-356.534 -613.224)" fill="#102048"/>
        <path id="Trazado_873788" data-name="Trazado 873788" d="M455.187,702.917c.151.518.58.291,1.205.144s1.13-.43,1.058-.677-.637-.328-1.262-.181-1.118.313-1,.714" transform="translate(-384.15 -603.54)" fill="#102048"/>
        <g id="Grupo_1099280" data-name="Grupo 1099280" transform="translate(64.189 103.707)" opacity="0.4">
          <g id="Grupo_1099279" data-name="Grupo 1099279">
            <g id="Grupo_1099278" data-name="Grupo 1099278" clip-path="url(#clip-path-4)">
              <path id="Trazado_873789" data-name="Trazado 873789" d="M414.945,740.17a1.787,1.787,0,1,1-1.777-1.6,1.7,1.7,0,0,1,1.777,1.6" transform="translate(-411.39 -738.57)" fill="#eb5d60"/>
            </g>
          </g>
        </g>
        <path id="Trazado_873790" data-name="Trazado 873790" d="M366.834,734.324a2.185,2.185,0,0,1,.695,3.219,2.791,2.791,0,0,1-3.636.211,2.185,2.185,0,0,1-.695-3.219,2.791,2.791,0,0,1,3.636-.211" transform="translate(-306.147 -630.727)" fill="#f9b384"/>
        <path id="Trazado_873791" data-name="Trazado 873791" d="M374.486,744.782a.163.163,0,0,1-.171-.154,1.367,1.367,0,0,0-1.778-1.256.178.178,0,0,1-.222-.084.149.149,0,0,1,.094-.2,1.69,1.69,0,0,1,1.441.164,1.613,1.613,0,0,1,.808,1.376.163.163,0,0,1-.171.154" transform="translate(-314.212 -638.667)" fill="#102048"/>
        <path id="Trazado_873795" data-name="Trazado 873795" d="M0,0,8.583.453,8.6.825.019.372Z" transform="translate(29.657 123.263) rotate(-47.253)" fill="#102048"/>
        <path id="Trazado_873792" data-name="Trazado 873792" d="M506.988,972.88l-.114-.336c4.483-1.23,8.834-2.7,12.777-7.138l.3.219c-4.012,4.516-8.424,6.008-12.968,7.255" transform="translate(-427.787 -829.848)" fill="#102048"/>
        <path id="Trazado_873793" data-name="Trazado 873793" d="M305.359,921.82H267.222a2.451,2.451,0,0,0-2.483,2.418v24.5a2.451,2.451,0,0,0,2.483,2.418h38.136a2.451,2.451,0,0,0,2.483-2.418v-24.5a2.451,2.451,0,0,0-2.483-2.418" transform="translate(-223.432 -792.382)" fill="#d3dfff"/>
        <path id="Trazado_873794" data-name="Trazado 873794" d="M388.35,1010.964a.259.259,0,0,1,.262.255v2.587a.259.259,0,0,1-.262.255h-4.026a.259.259,0,0,1-.262-.255v-2.587a.259.259,0,0,1,.262-.255Zm0-.7h-4.026a1,1,0,0,0-1.042.957v2.587a1,1,0,0,0,1.042.957h4.026a1,1,0,0,0,1.042-.957v-2.587a1,1,0,0,0-1.042-.957" transform="translate(-323.478 -868.406)" fill="#1f3c88"/>
        <rect id="Rectángulo_401087" data-name="Rectángulo 401087" width="229.936" height="0.702" transform="translate(0 184.11)" fill="#102048"/>
      </g>
    </g>
  </g>
</svg>
