<svg xmlns="http://www.w3.org/2000/svg" xmlns:xlink="http://www.w3.org/1999/xlink" width="505" height="275" viewBox="0 0 505 275">
  <defs>
    <clipPath id="clip-path">
      <rect id="Rect치ngulo_401002" data-name="Rect치ngulo 401002" width="71.87" height="81.443" fill="none"/>
    </clipPath>
    <clipPath id="clip-path-4">
      <rect id="Rect치ngulo_401003" data-name="Rect치ngulo 401003" width="74.161" height="83.151" fill="#fff"/>
    </clipPath>
  </defs>
  <g id="_11" data-name="11" transform="translate(-915 -396)">
    <path id="Trazado_873868" data-name="Trazado 873868" d="M8,0H497a8,8,0,0,1,8,8V267a8,8,0,0,1-8,8H8a8,8,0,0,1-8-8V8A8,8,0,0,1,8,0Z" transform="translate(915 396)" fill="#8722e2"/>
    <path id="Trazado_873304" data-name="Trazado 873304" d="M42.563,8.1,8.1,27.244,42.563,46.392,77.029,27.244Z" transform="translate(973.372 542.932)" fill="#00ffdf"/>
    <path id="Trazado_873305" data-name="Trazado 873305" d="M232.554,113.647l-34.466,19.148v40.21l34.466-19.148Z" transform="translate(817.847 456.528)" fill="#f0c518"/>
    <path id="Trazado_873306" data-name="Trazado 873306" d="M8.1,113.647l34.466,19.148v40.21L8.1,153.857Z" transform="translate(973.372 456.528)" fill="#debefb"/>
    <g id="Grupo_1098902" data-name="Grupo 1098902" transform="translate(980 549.559)">
      <g id="Grupo_1098901" data-name="Grupo 1098901" clip-path="url(#clip-path)">
        <path id="Trazado_873307" data-name="Trazado 873307" d="M8.1,113.647v10.27l7.294,4.052A37.6,37.6,0,0,1,34.73,160.837v7.817l7.833,4.352v-40.21Z" transform="translate(-6.628 -93.03)" fill="#c49de6"/>
        <path id="Trazado_873308" data-name="Trazado 873308" d="M71.87,60.827V20.616a1.468,1.468,0,0,0-.756-1.284L36.648.185a1.468,1.468,0,0,0-1.426,0L.756,19.332A1.469,1.469,0,0,0,0,20.616v40.21A1.468,1.468,0,0,0,.756,62.11L35.222,81.258a1.468,1.468,0,0,0,1.426,0L71.114,62.11a1.468,1.468,0,0,0,.755-1.284M37.4,77.478V40.628l3.944-2.191a1.469,1.469,0,1,0-1.426-2.568l-3.986,2.215L13.149,25.425a1.469,1.469,0,0,0-1.426,2.568L34.466,40.628v36.85L2.938,59.962V23.112l3.639,2.022A1.469,1.469,0,1,0,8,22.566l-3.51-1.95L35.935,3.149,67.377,20.616,53.394,28.384a1.469,1.469,0,1,0,1.426,2.568l14.112-7.84v36.85Z" transform="translate(0 0)"/>
        <path id="Trazado_873309" data-name="Trazado 873309" d="M248.88,172.9l-2.428,1.349a1.469,1.469,0,1,0,1.426,2.568l2.428-1.349a1.469,1.469,0,1,0-1.426-2.568" transform="translate(-201.125 -141.385)"/>
      </g>
    </g>
    <path id="Trazado_873304-2" data-name="Trazado 873304" d="M42.563,8.1,8.1,27.244,42.563,46.392,77.029,27.244Z" transform="translate(1131.502 542.932)" fill="#00ffdf"/>
    <path id="Trazado_873305-2" data-name="Trazado 873305" d="M232.554,113.647l-34.466,19.148v40.21l34.466-19.148Z" transform="translate(975.978 456.528)" fill="#f0c518"/>
    <path id="Trazado_873306-2" data-name="Trazado 873306" d="M8.1,113.647l34.466,19.148v40.21L8.1,153.857Z" transform="translate(1131.502 456.528)" fill="#debefb"/>
    <g id="Grupo_1098902-2" data-name="Grupo 1098902" transform="translate(1138.13 549.559)">
      <g id="Grupo_1098901-2" data-name="Grupo 1098901" clip-path="url(#clip-path)">
        <path id="Trazado_873307-2" data-name="Trazado 873307" d="M8.1,113.647v10.27l7.294,4.052A37.6,37.6,0,0,1,34.73,160.837v7.817l7.833,4.352v-40.21Z" transform="translate(-6.628 -93.03)" fill="#c49de6"/>
        <path id="Trazado_873308-2" data-name="Trazado 873308" d="M71.87,60.827V20.616a1.468,1.468,0,0,0-.756-1.284L36.648.185a1.468,1.468,0,0,0-1.426,0L.756,19.332A1.469,1.469,0,0,0,0,20.616v40.21A1.468,1.468,0,0,0,.756,62.11L35.222,81.258a1.468,1.468,0,0,0,1.426,0L71.114,62.11a1.468,1.468,0,0,0,.755-1.284M37.4,77.478V40.628l3.944-2.191a1.469,1.469,0,1,0-1.426-2.568l-3.986,2.215L13.149,25.425a1.469,1.469,0,0,0-1.426,2.568L34.466,40.628v36.85L2.938,59.962V23.112l3.639,2.022A1.469,1.469,0,1,0,8,22.566l-3.51-1.95L35.935,3.149,67.377,20.616,53.394,28.384a1.469,1.469,0,1,0,1.426,2.568l14.112-7.84v36.85Z" transform="translate(0 0)"/>
        <path id="Trazado_873309-2" data-name="Trazado 873309" d="M248.88,172.9l-2.428,1.349a1.469,1.469,0,1,0,1.426,2.568l2.428-1.349a1.469,1.469,0,1,0-1.426-2.568" transform="translate(-201.125 -141.385)"/>
      </g>
    </g>
    <path id="Trazado_873304-3" data-name="Trazado 873304" d="M42.563,8.1,8.1,27.244,42.563,46.392,77.029,27.244Z" transform="translate(1289.633 542.932)" fill="#00ffdf"/>
    <path id="Trazado_873305-3" data-name="Trazado 873305" d="M232.554,113.647l-34.466,19.148v40.21l34.466-19.148Z" transform="translate(1134.108 456.528)" fill="#f0c518"/>
    <path id="Trazado_873306-3" data-name="Trazado 873306" d="M8.1,113.647l34.466,19.148v40.21L8.1,153.857Z" transform="translate(1289.633 456.528)" fill="#debefb"/>
    <g id="Grupo_1098902-3" data-name="Grupo 1098902" transform="translate(1296.261 549.559)">
      <g id="Grupo_1098901-3" data-name="Grupo 1098901" clip-path="url(#clip-path)">
        <path id="Trazado_873307-3" data-name="Trazado 873307" d="M8.1,113.647v10.27l7.294,4.052A37.6,37.6,0,0,1,34.73,160.837v7.817l7.833,4.352v-40.21Z" transform="translate(-6.628 -93.03)" fill="#c49de6"/>
        <path id="Trazado_873308-3" data-name="Trazado 873308" d="M71.87,60.827V20.616a1.468,1.468,0,0,0-.756-1.284L36.648.185a1.468,1.468,0,0,0-1.426,0L.756,19.332A1.469,1.469,0,0,0,0,20.616v40.21A1.468,1.468,0,0,0,.756,62.11L35.222,81.258a1.468,1.468,0,0,0,1.426,0L71.114,62.11a1.468,1.468,0,0,0,.755-1.284M37.4,77.478V40.628l3.944-2.191a1.469,1.469,0,1,0-1.426-2.568l-3.986,2.215L13.149,25.425a1.469,1.469,0,0,0-1.426,2.568L34.466,40.628v36.85L2.938,59.962V23.112l3.639,2.022A1.469,1.469,0,1,0,8,22.566l-3.51-1.95L35.935,3.149,67.377,20.616,53.394,28.384a1.469,1.469,0,1,0,1.426,2.568l14.112-7.84v36.85Z" transform="translate(0 0)"/>
        <path id="Trazado_873309-3" data-name="Trazado 873309" d="M248.88,172.9l-2.428,1.349a1.469,1.469,0,1,0,1.426,2.568l2.428-1.349a1.469,1.469,0,1,0-1.426-2.568" transform="translate(-201.125 -141.385)"/>
      </g>
    </g>
    <g id="Grupo_1098906" data-name="Grupo 1098906" transform="translate(1135.839 409.424)" clip-path="url(#clip-path-4)">
      <path id="Trazado_873310" data-name="Trazado 873310" d="M74.148,19.17,37.468,0,0,19.17V62.045L39.086,83.151,74.161,62V19.183ZM34.937,76.195,4.15,59.569V25.891L34.937,41.3Zm2.157-38.464L4.606,21.48,37.441,4.647,69.57,21.466Zm32.918,21.88L39.086,78.31V41.354L70.012,25.891v33.72" fill="#fff"/>
    </g>
    <path id="Trazado_873311" data-name="Trazado 873311" d="M-5522-11136.156s18.547-77.362,93.488-83.363" transform="translate(6553.512 11685.715)" fill="none" stroke="#fff" stroke-width="2" stroke-dasharray="6"/>
    <path id="Trazado_873312" data-name="Trazado 873312" d="M-5428.512-11136.156s-18.547-77.362-93.488-83.363" transform="translate(6743.512 11685.715)" fill="none" stroke="#fff" stroke-width="2" stroke-dasharray="6"/>
    <path id="Trazado_873313" data-name="Trazado 873313" d="M-5367.935-11166.5v41.281" transform="translate(6542 11686.859)" fill="none" stroke="#fff" stroke-width="2" stroke-dasharray="6"/>
    <path id="Trazado_873869" data-name="Trazado 873869" d="M9.688-3.609A4.185,4.185,0,0,1,8.355-.824a4.365,4.365,0,0,1-2.98.98,4.008,4.008,0,0,1-3.23-1.445A5.815,5.815,0,0,1,.93-5.156V-6.25A6.481,6.481,0,0,1,1.5-9.039,4.231,4.231,0,0,1,3.1-10.887a4.47,4.47,0,0,1,2.406-.645A4.11,4.11,0,0,1,8.414-10.52a4.235,4.235,0,0,1,1.273,2.8H8.18a3.268,3.268,0,0,0-.848-1.975A2.565,2.565,0,0,0,5.508-10.3,2.684,2.684,0,0,0,3.254-9.241a4.882,4.882,0,0,0-.816,3.026v1.1a5.018,5.018,0,0,0,.773,2.948A2.5,2.5,0,0,0,5.375-1.07a2.887,2.887,0,0,0,1.918-.566A3.143,3.143,0,0,0,8.18-3.609ZM13.078,0H11.633V-12h1.445Zm7.531,0a3.036,3.036,0,0,1-.2-.891A3.225,3.225,0,0,1,18,.156a2.984,2.984,0,0,1-2.051-.707,2.287,2.287,0,0,1-.8-1.793,2.39,2.39,0,0,1,1-2.051,4.733,4.733,0,0,1,2.824-.73h1.406v-.664A1.623,1.623,0,0,0,19.93-7a1.821,1.821,0,0,0-1.336-.449,2.108,2.108,0,0,0-1.3.391,1.151,1.151,0,0,0-.523.945H15.32a2,2,0,0,1,.449-1.223,3.066,3.066,0,0,1,1.219-.934,4.1,4.1,0,0,1,1.691-.344,3.342,3.342,0,0,1,2.289.73,2.635,2.635,0,0,1,.859,2.012v3.891a4.757,4.757,0,0,0,.3,1.852V0Zm-2.4-1.1A2.54,2.54,0,0,0,19.5-1.453a2.127,2.127,0,0,0,.883-.914V-4.1H19.25q-2.656,0-2.656,1.555a1.316,1.316,0,0,0,.453,1.063A1.742,1.742,0,0,0,18.211-1.1Zm10.8-1.141a1.064,1.064,0,0,0-.441-.91,4.249,4.249,0,0,0-1.539-.559,7.277,7.277,0,0,1-1.742-.562,2.479,2.479,0,0,1-.953-.781,1.869,1.869,0,0,1-.309-1.078,2.193,2.193,0,0,1,.879-1.758,3.432,3.432,0,0,1,2.246-.719,3.532,3.532,0,0,1,2.332.742,2.357,2.357,0,0,1,.895,1.9H28.93a1.3,1.3,0,0,0-.5-1.023,1.888,1.888,0,0,0-1.27-.43,1.976,1.976,0,0,0-1.234.344,1.082,1.082,0,0,0-.445.9.877.877,0,0,0,.414.789,5.1,5.1,0,0,0,1.5.508,7.8,7.8,0,0,1,1.754.578,2.558,2.558,0,0,1,1,.809,1.988,1.988,0,0,1,.324,1.152,2.163,2.163,0,0,1-.906,1.816A3.8,3.8,0,0,1,27.2.156a4.257,4.257,0,0,1-1.8-.359,2.922,2.922,0,0,1-1.223-1A2.42,2.42,0,0,1,23.742-2.6h1.445a1.5,1.5,0,0,0,.582,1.152,2.258,2.258,0,0,0,1.434.426,2.331,2.331,0,0,0,1.316-.332A1.02,1.02,0,0,0,29.016-2.242Zm6.836,2.4a3.693,3.693,0,0,1-2.8-1.129,4.19,4.19,0,0,1-1.078-3.02v-.266a5.073,5.073,0,0,1,.48-2.246A3.748,3.748,0,0,1,33.8-8.051a3.378,3.378,0,0,1,1.871-.559,3.166,3.166,0,0,1,2.563,1.086,4.7,4.7,0,0,1,.914,3.109v.6H33.422a3,3,0,0,0,.73,2.02,2.3,2.3,0,0,0,1.777.77,2.517,2.517,0,0,0,1.3-.312,3.259,3.259,0,0,0,.93-.828l.883.688A3.55,3.55,0,0,1,35.852.156Zm-.18-7.578a1.928,1.928,0,0,0-1.469.637A3.1,3.1,0,0,0,33.469-5H37.7v-.109a2.753,2.753,0,0,0-.594-1.707A1.815,1.815,0,0,0,35.672-7.422Z" transform="translate(1154 508)" fill="#fff"/>
    <path id="Trazado_873870" data-name="Trazado 873870" d="M10.07-5.32A7.037,7.037,0,0,1,9.508-2.4,4.261,4.261,0,0,1,7.914-.5,4.385,4.385,0,0,1,5.508.156,4.347,4.347,0,0,1,3.125-.5,4.363,4.363,0,0,1,1.512-2.387a6.752,6.752,0,0,1-.59-2.832v-.82a6.953,6.953,0,0,1,.57-2.9,4.347,4.347,0,0,1,1.613-1.926,4.329,4.329,0,0,1,2.387-.668,4.41,4.41,0,0,1,2.41.66A4.253,4.253,0,0,1,9.508-8.957a7.071,7.071,0,0,1,.563,2.918ZM8.578-6.055A5.1,5.1,0,0,0,7.766-9.16a2.68,2.68,0,0,0-2.273-1.082A2.651,2.651,0,0,0,3.254-9.16a5,5,0,0,0-.84,3v.836a5.107,5.107,0,0,0,.824,3.082,2.662,2.662,0,0,0,2.27,1.121,2.652,2.652,0,0,0,2.25-1.059,5.079,5.079,0,0,0,.82-3.035ZM19.25-4.133a5.026,5.026,0,0,1-.891,3.113A2.846,2.846,0,0,1,15.969.156,2.947,2.947,0,0,1,13.492-.977L13.422,0H12.094V-12h1.445v4.477a2.93,2.93,0,0,1,2.414-1.086,2.863,2.863,0,0,1,2.418,1.164,5.177,5.177,0,0,1,.879,3.188ZM17.8-4.3a3.906,3.906,0,0,0-.57-2.281,1.888,1.888,0,0,0-1.641-.8,2.122,2.122,0,0,0-2.055,1.328V-2.4a2.181,2.181,0,0,0,2.07,1.328,1.878,1.878,0,0,0,1.617-.8A4.153,4.153,0,0,0,17.8-4.3Zm4.758-4.156V.977q0,2.437-2.211,2.438a2.7,2.7,0,0,1-.883-.14V2.125a2.794,2.794,0,0,0,.656.063.982.982,0,0,0,.738-.262,1.3,1.3,0,0,0,.254-.911V-8.453ZM20.969-10.7a.867.867,0,0,1,.215-.59.79.79,0,0,1,.629-.246.819.819,0,0,1,.641.242.854.854,0,0,1,.219.594.826.826,0,0,1-.219.586.834.834,0,0,1-.641.234.808.808,0,0,1-.633-.234A.843.843,0,0,1,20.969-10.7ZM28.4.156A3.693,3.693,0,0,1,25.6-.973a4.19,4.19,0,0,1-1.078-3.02v-.266A5.073,5.073,0,0,1,25-6.5a3.748,3.748,0,0,1,1.344-1.547,3.378,3.378,0,0,1,1.871-.559,3.166,3.166,0,0,1,2.563,1.086A4.7,4.7,0,0,1,31.7-4.414v.6H25.969a3,3,0,0,0,.73,2.02,2.3,2.3,0,0,0,1.777.77,2.517,2.517,0,0,0,1.3-.312,3.259,3.259,0,0,0,.93-.828l.883.688A3.55,3.55,0,0,1,28.4.156Zm-.18-7.578a1.928,1.928,0,0,0-1.469.637A3.1,3.1,0,0,0,26.016-5H30.25v-.109a2.753,2.753,0,0,0-.594-1.707A1.815,1.815,0,0,0,28.219-7.422ZM35.328-10.5v2.047h1.578v1.117H35.328v5.249a1.173,1.173,0,0,0,.211.763.888.888,0,0,0,.719.254,3.5,3.5,0,0,0,.688-.094V0a4.215,4.215,0,0,1-1.109.155A1.8,1.8,0,0,1,34.375-.43a2.517,2.517,0,0,1-.492-1.664V-7.336H32.344V-8.453h1.539V-10.5Zm2.727,6.2a4.993,4.993,0,0,1,.488-2.234A3.643,3.643,0,0,1,39.9-8.07a3.7,3.7,0,0,1,1.988-.539,3.565,3.565,0,0,1,2.793,1.2,4.6,4.6,0,0,1,1.066,3.18v.1a5.036,5.036,0,0,1-.473,2.215A3.589,3.589,0,0,1,43.926-.391a3.743,3.743,0,0,1-2.02.547,3.556,3.556,0,0,1-2.785-1.2A4.575,4.575,0,0,1,38.055-4.2Zm1.453.172a3.616,3.616,0,0,0,.652,2.258,2.088,2.088,0,0,0,1.746.852,2.075,2.075,0,0,0,1.75-.863A3.955,3.955,0,0,0,44.3-4.3a3.61,3.61,0,0,0-.66-2.254,2.1,2.1,0,0,0-1.754-.863,2.075,2.075,0,0,0-1.727.852A3.925,3.925,0,0,0,39.508-4.133Z" transform="translate(992 646)" fill="#fff"/>
    <path id="Trazado_873871" data-name="Trazado 873871" d="M10.07-5.32A7.037,7.037,0,0,1,9.508-2.4,4.261,4.261,0,0,1,7.914-.5,4.385,4.385,0,0,1,5.508.156,4.347,4.347,0,0,1,3.125-.5,4.363,4.363,0,0,1,1.512-2.387a6.752,6.752,0,0,1-.59-2.832v-.82a6.953,6.953,0,0,1,.57-2.9,4.347,4.347,0,0,1,1.613-1.926,4.329,4.329,0,0,1,2.387-.668,4.41,4.41,0,0,1,2.41.66A4.253,4.253,0,0,1,9.508-8.957a7.071,7.071,0,0,1,.563,2.918ZM8.578-6.055A5.1,5.1,0,0,0,7.766-9.16a2.68,2.68,0,0,0-2.273-1.082A2.651,2.651,0,0,0,3.254-9.16a5,5,0,0,0-.84,3v.836a5.107,5.107,0,0,0,.824,3.082,2.662,2.662,0,0,0,2.27,1.121,2.652,2.652,0,0,0,2.25-1.059,5.079,5.079,0,0,0,.82-3.035ZM19.25-4.133a5.026,5.026,0,0,1-.891,3.113A2.846,2.846,0,0,1,15.969.156,2.947,2.947,0,0,1,13.492-.977L13.422,0H12.094V-12h1.445v4.477a2.93,2.93,0,0,1,2.414-1.086,2.863,2.863,0,0,1,2.418,1.164,5.177,5.177,0,0,1,.879,3.188ZM17.8-4.3a3.906,3.906,0,0,0-.57-2.281,1.888,1.888,0,0,0-1.641-.8,2.122,2.122,0,0,0-2.055,1.328V-2.4a2.181,2.181,0,0,0,2.07,1.328,1.878,1.878,0,0,0,1.617-.8A4.153,4.153,0,0,0,17.8-4.3Zm4.758-4.156V.977q0,2.437-2.211,2.438a2.7,2.7,0,0,1-.883-.14V2.125a2.794,2.794,0,0,0,.656.063.982.982,0,0,0,.738-.262,1.3,1.3,0,0,0,.254-.911V-8.453ZM20.969-10.7a.867.867,0,0,1,.215-.59.79.79,0,0,1,.629-.246.819.819,0,0,1,.641.242.854.854,0,0,1,.219.594.826.826,0,0,1-.219.586.834.834,0,0,1-.641.234.808.808,0,0,1-.633-.234A.843.843,0,0,1,20.969-10.7ZM28.4.156A3.693,3.693,0,0,1,25.6-.973a4.19,4.19,0,0,1-1.078-3.02v-.266A5.073,5.073,0,0,1,25-6.5a3.748,3.748,0,0,1,1.344-1.547,3.378,3.378,0,0,1,1.871-.559,3.166,3.166,0,0,1,2.563,1.086A4.7,4.7,0,0,1,31.7-4.414v.6H25.969a3,3,0,0,0,.73,2.02,2.3,2.3,0,0,0,1.777.77,2.517,2.517,0,0,0,1.3-.312,3.259,3.259,0,0,0,.93-.828l.883.688A3.55,3.55,0,0,1,28.4.156Zm-.18-7.578a1.928,1.928,0,0,0-1.469.637A3.1,3.1,0,0,0,26.016-5H30.25v-.109a2.753,2.753,0,0,0-.594-1.707A1.815,1.815,0,0,0,28.219-7.422ZM35.328-10.5v2.047h1.578v1.117H35.328v5.249a1.173,1.173,0,0,0,.211.763.888.888,0,0,0,.719.254,3.5,3.5,0,0,0,.688-.094V0a4.215,4.215,0,0,1-1.109.155A1.8,1.8,0,0,1,34.375-.43a2.517,2.517,0,0,1-.492-1.664V-7.336H32.344V-8.453h1.539V-10.5Zm2.727,6.2a4.993,4.993,0,0,1,.488-2.234A3.643,3.643,0,0,1,39.9-8.07a3.7,3.7,0,0,1,1.988-.539,3.565,3.565,0,0,1,2.793,1.2,4.6,4.6,0,0,1,1.066,3.18v.1a5.036,5.036,0,0,1-.473,2.215A3.589,3.589,0,0,1,43.926-.391a3.743,3.743,0,0,1-2.02.547,3.556,3.556,0,0,1-2.785-1.2A4.575,4.575,0,0,1,38.055-4.2Zm1.453.172a3.616,3.616,0,0,0,.652,2.258,2.088,2.088,0,0,0,1.746.852,2.075,2.075,0,0,0,1.75-.863A3.955,3.955,0,0,0,44.3-4.3a3.61,3.61,0,0,0-.66-2.254,2.1,2.1,0,0,0-1.754-.863,2.075,2.075,0,0,0-1.727.852A3.925,3.925,0,0,0,39.508-4.133Z" transform="translate(1151 646)" fill="#fff"/>
    <path id="Trazado_873872" data-name="Trazado 873872" d="M10.07-5.32A7.037,7.037,0,0,1,9.508-2.4,4.261,4.261,0,0,1,7.914-.5,4.385,4.385,0,0,1,5.508.156,4.347,4.347,0,0,1,3.125-.5,4.363,4.363,0,0,1,1.512-2.387a6.752,6.752,0,0,1-.59-2.832v-.82a6.953,6.953,0,0,1,.57-2.9,4.347,4.347,0,0,1,1.613-1.926,4.329,4.329,0,0,1,2.387-.668,4.41,4.41,0,0,1,2.41.66A4.253,4.253,0,0,1,9.508-8.957a7.071,7.071,0,0,1,.563,2.918ZM8.578-6.055A5.1,5.1,0,0,0,7.766-9.16a2.68,2.68,0,0,0-2.273-1.082A2.651,2.651,0,0,0,3.254-9.16a5,5,0,0,0-.84,3v.836a5.107,5.107,0,0,0,.824,3.082,2.662,2.662,0,0,0,2.27,1.121,2.652,2.652,0,0,0,2.25-1.059,5.079,5.079,0,0,0,.82-3.035ZM19.25-4.133a5.026,5.026,0,0,1-.891,3.113A2.846,2.846,0,0,1,15.969.156,2.947,2.947,0,0,1,13.492-.977L13.422,0H12.094V-12h1.445v4.477a2.93,2.93,0,0,1,2.414-1.086,2.863,2.863,0,0,1,2.418,1.164,5.177,5.177,0,0,1,.879,3.188ZM17.8-4.3a3.906,3.906,0,0,0-.57-2.281,1.888,1.888,0,0,0-1.641-.8,2.122,2.122,0,0,0-2.055,1.328V-2.4a2.181,2.181,0,0,0,2.07,1.328,1.878,1.878,0,0,0,1.617-.8A4.153,4.153,0,0,0,17.8-4.3Zm4.758-4.156V.977q0,2.437-2.211,2.438a2.7,2.7,0,0,1-.883-.14V2.125a2.794,2.794,0,0,0,.656.063.982.982,0,0,0,.738-.262,1.3,1.3,0,0,0,.254-.911V-8.453ZM20.969-10.7a.867.867,0,0,1,.215-.59.79.79,0,0,1,.629-.246.819.819,0,0,1,.641.242.854.854,0,0,1,.219.594.826.826,0,0,1-.219.586.834.834,0,0,1-.641.234.808.808,0,0,1-.633-.234A.843.843,0,0,1,20.969-10.7ZM28.4.156A3.693,3.693,0,0,1,25.6-.973a4.19,4.19,0,0,1-1.078-3.02v-.266A5.073,5.073,0,0,1,25-6.5a3.748,3.748,0,0,1,1.344-1.547,3.378,3.378,0,0,1,1.871-.559,3.166,3.166,0,0,1,2.563,1.086A4.7,4.7,0,0,1,31.7-4.414v.6H25.969a3,3,0,0,0,.73,2.02,2.3,2.3,0,0,0,1.777.77,2.517,2.517,0,0,0,1.3-.312,3.259,3.259,0,0,0,.93-.828l.883.688A3.55,3.55,0,0,1,28.4.156Zm-.18-7.578a1.928,1.928,0,0,0-1.469.637A3.1,3.1,0,0,0,26.016-5H30.25v-.109a2.753,2.753,0,0,0-.594-1.707A1.815,1.815,0,0,0,28.219-7.422ZM35.328-10.5v2.047h1.578v1.117H35.328v5.249a1.173,1.173,0,0,0,.211.763.888.888,0,0,0,.719.254,3.5,3.5,0,0,0,.688-.094V0a4.215,4.215,0,0,1-1.109.155A1.8,1.8,0,0,1,34.375-.43a2.517,2.517,0,0,1-.492-1.664V-7.336H32.344V-8.453h1.539V-10.5Zm2.727,6.2a4.993,4.993,0,0,1,.488-2.234A3.643,3.643,0,0,1,39.9-8.07a3.7,3.7,0,0,1,1.988-.539,3.565,3.565,0,0,1,2.793,1.2,4.6,4.6,0,0,1,1.066,3.18v.1a5.036,5.036,0,0,1-.473,2.215A3.589,3.589,0,0,1,43.926-.391a3.743,3.743,0,0,1-2.02.547,3.556,3.556,0,0,1-2.785-1.2A4.575,4.575,0,0,1,38.055-4.2Zm1.453.172a3.616,3.616,0,0,0,.652,2.258,2.088,2.088,0,0,0,1.746.852,2.075,2.075,0,0,0,1.75-.863A3.955,3.955,0,0,0,44.3-4.3a3.61,3.61,0,0,0-.66-2.254,2.1,2.1,0,0,0-1.754-.863,2.075,2.075,0,0,0-1.727.852A3.925,3.925,0,0,0,39.508-4.133Z" transform="translate(1309 646)" fill="#fff"/>
  </g>
</svg>
