<svg xmlns="http://www.w3.org/2000/svg" xmlns:xlink="http://www.w3.org/1999/xlink" width="1328" height="892" viewBox="0 0 1328 892">
  <defs>
    <linearGradient id="linear-gradient" x1="0.5" x2="0.5" y2="1" gradientUnits="objectBoundingBox">
      <stop offset="0" stop-color="#f7eefe" stop-opacity="0.149"/>
      <stop offset="0.07" stop-color="#f7eefe"/>
      <stop offset="1" stop-color="#f7eefe"/>
    </linearGradient>
    <linearGradient id="linear-gradient-2" x1="0.5" x2="0.5" y2="1" gradientUnits="objectBoundingBox">
      <stop offset="0" stop-color="#f7eefe" stop-opacity="0"/>
      <stop offset="0.07" stop-color="#faf5ff"/>
      <stop offset="1" stop-color="#f7eefe"/>
    </linearGradient>
    <clipPath id="clip-path">
      <path id="Background" d="M0,0H1328a0,0,0,0,1,0,0V867a25,25,0,0,1-25,25H25A25,25,0,0,1,0,867V0A0,0,0,0,1,0,0Z" fill="url(#linear-gradient)"/>
    </clipPath>
  </defs>
  <g id="fondo-i" transform="translate(-136 -12513)">
    <rect id="Background-2" data-name="Background" width="1328" height="892" transform="translate(136 12513)" fill="url(#linear-gradient-2)"/>
    <g id="Enmascarar_grupo_338" data-name="Enmascarar grupo 338" transform="translate(136 12513)" clip-path="url(#clip-path)">
      <ellipse id="Elipse_11364" data-name="Elipse 11364" cx="184.427" cy="188.796" rx="184.427" ry="188.796" transform="translate(-237.427 42.519)" fill="#cba1ef" opacity="0.13"/>
      <path id="Trazado_850946" data-name="Trazado 850946" d="M141.828,0c78.33,0,141.828,70.94,141.828,158.449S220.158,316.9,141.828,316.9,0,245.958,0,158.449,63.5,0,141.828,0Z" transform="translate(1241.343 111.012)" fill="#a854f3" opacity="0.13"/>
      <g id="Grupo_1098646" data-name="Grupo 1098646" transform="translate(-666.393 201.416)">
        <path id="Rectangle" d="M2454.8,0s-186.627,173.719-497.778,199.47-306.963-192-756.061-95.7S790.878,448.524,537.9,471.657,0,213.585,0,213.585V740.116H2454.8Z" transform="translate(0 0)" fill="#f1e2fe" opacity="0.24"/>
        <path id="Rectangle-2" data-name="Rectangle" d="M2454.8,191.128S2352.946-48.107,1945.031,10.439,1489.425,338.153,1227.4,367.293s-395.329-145.8-686.328-145.8S0,367.293,0,367.293V583.932H2454.8Z" transform="translate(0 156.185)" fill="#debefb" opacity="0.1"/>
      </g>
    </g>
  </g>
</svg>
